<svg width="18" height="20" viewBox="0 0 18 20" fill="none" xmlns="http://www.w3.org/2000/svg">
<path d="M17.4735 0.558151C16.7716 -0.18605 15.6334 -0.18605 14.9315 0.558151L8.99998 6.84661L3.06852 0.55817C2.36656 -0.186031 1.22846 -0.186063 0.526469 0.55817C-0.175478 1.30237 -0.175502 2.50898 0.526469 3.25322L6.45792 9.54168L0.526489 15.8301C-0.175478 16.5743 -0.175457 17.7809 0.526486 18.5251C1.22847 19.2694 2.36658 19.2693 3.06854 18.5251L8.99998 12.2367L14.9314 18.5251C15.6334 19.2694 16.7715 19.2693 17.4735 18.5251C18.1755 17.7809 18.1755 16.5743 17.4735 15.8301L11.542 9.54168L17.4735 3.2532C18.1755 2.509 18.1755 1.30238 17.4735 0.558151Z" fill="#BDC9AC"/>
</svg>
