<svg width="30" height="25" viewBox="0 0 30 25" fill="#8D214C" xmlns="http://www.w3.org/2000/svg">
<path d="M13.5187 22.216L13.5172 22.2148C9.82869 19.146 6.8521 16.6674 4.78563 14.3494C2.72714 12.0404 1.70142 10.0302 1.70142 7.91839C1.70142 4.52567 4.61725 1.73209 8.53406 1.73209C10.74 1.73209 12.8507 2.67903 14.2096 4.14317L14.9426 4.93285L15.6755 4.14317C17.0345 2.67903 19.1452 1.73209 21.3511 1.73209C25.2679 1.73209 28.1838 4.52567 28.1838 7.91839C28.1838 10.0302 27.158 12.0405 25.0993 14.3513C23.0328 16.6709 20.0565 19.1525 16.3684 22.2275C16.368 22.2279 16.3676 22.2282 16.3672 22.2285L14.945 23.4073L13.5187 22.216Z" stroke="#BDC9AC" stroke-width="2"/>
</svg>
