<svg width="323" height="318" viewBox="0 0 323 318" fill="none" xmlns="http://www.w3.org/2000/svg">
<path d="M198.484 87.0257C198.484 87.0257 202.609 64.2383 187.443 57.4419C187.443 57.4419 189.064 61.4762 188.611 71.7639C188.132 82.6451 194.339 90.0738 198.484 87.0257Z" fill="#8D214C"/>
<path d="M189.669 66.407C189.321 65.8157 188.962 65.2516 188.595 64.7131C188.302 59.5807 187.443 57.4419 187.443 57.4419C202.609 64.2383 198.484 87.0257 198.484 87.0257C197.624 87.6577 196.676 87.8375 195.716 87.6316C195.133 79.6389 192.97 72.018 189.669 66.407Z" fill="#8D214C"/>
<path d="M192.716 64.1898C191.189 61.5942 189.457 59.4947 187.612 57.9567C187.509 57.6079 187.443 57.4417 187.443 57.4417C199.936 63.0404 199.338 79.4892 198.74 85.1136C198.125 77.2316 195.976 69.7309 192.716 64.1898Z" fill="#8D214C"/>
<mask id="mask0_157_5755" style="mask-type:luminance" maskUnits="userSpaceOnUse" x="187" y="56" width="13" height="33">
<path d="M198.385 56.4749L187.019 56.7337L188.475 88.7349L199.84 88.476L198.385 56.4749Z" fill="white"/>
</mask>
<g mask="url(#mask0_157_5755)">
<path d="M196.566 88.3833C197.304 88.3662 198.004 88.119 198.645 87.6481C198.738 87.5797 198.809 87.4403 198.841 87.2634C198.859 87.1671 199.273 84.8597 199.36 81.4769C199.441 78.3444 199.242 73.6662 197.836 69.1676C195.964 63.1799 192.486 59.0169 187.5 56.7941C187.347 56.7262 187.194 56.8369 187.116 57.0725C187.037 57.308 187.048 57.6199 187.143 57.8575C187.157 57.8929 188.666 61.8581 188.228 71.6637C188.039 75.9166 188.83 80.03 190.456 83.2477C192.106 86.5137 194.39 88.4335 196.566 88.3833ZM198.176 86.4573C197.657 86.8007 197.095 86.9811 196.503 86.9947C194.573 87.0393 192.458 85.2551 190.984 82.3382C189.517 79.4342 188.803 75.7193 188.974 71.8767C189.293 64.7353 188.624 60.5153 188.149 58.5101C192.493 60.7006 195.534 64.4901 197.192 69.7851C199.451 77.0013 198.417 84.8891 198.176 86.4573Z" fill="#BDC9AC"/>
</g>
<path d="M198.011 88.0335C198.016 88.0334 198.02 88.0333 198.025 88.0323C198.23 88.0138 198.375 87.6875 198.35 87.3038C198.34 87.1617 198.108 83.7587 197.103 79.1982C196.174 74.988 194.381 68.9718 191.114 64.2219C190.946 63.9768 190.713 64.0186 190.593 64.3146C190.474 64.6107 190.514 65.0481 190.682 65.2933C196.664 73.9913 197.6 87.24 197.609 87.3726C197.633 87.7466 197.812 88.0378 198.011 88.0335Z" fill="#BDC9AC"/>
<path d="M197.34 82.9C197.504 82.8963 197.646 82.688 197.676 82.3756C197.712 82.0037 197.576 81.626 197.373 81.5318L194.73 80.3056C194.526 80.2114 194.333 80.4366 194.297 80.8085C194.261 81.1812 194.397 81.559 194.6 81.6532L197.243 82.8785C197.276 82.8944 197.309 82.9006 197.34 82.9Z" fill="#BDC9AC"/>
<path d="M196.184 77.6197C196.349 77.6161 196.491 77.4069 196.521 77.0936L196.94 72.645C196.975 72.2722 196.839 71.8954 196.635 71.802C196.432 71.7096 196.239 71.9356 196.204 72.3084L195.784 76.7571C195.75 77.1289 195.885 77.5067 196.089 77.5991C196.121 77.6141 196.153 77.6204 196.184 77.6197Z" fill="#BDC9AC"/>
<path d="M194.038 71.3936C194.211 71.3898 194.355 71.1604 194.377 70.8325C194.402 70.4556 194.256 70.0903 194.051 70.0163L191.65 69.1514C191.445 69.0782 191.259 69.3234 191.235 69.7003C191.21 70.0763 191.356 70.4416 191.561 70.5156L193.962 71.3804C193.987 71.3895 194.013 71.3942 194.038 71.3936Z" fill="#BDC9AC"/>
<path d="M121.825 233.926C121.825 233.926 134.117 219.348 144.511 236.759C144.511 236.759 141.37 236.219 135.242 240.93C128.761 245.913 121.655 240.643 121.825 233.926Z" fill="#8D214C"/>
<path d="M138.096 237.387C138.601 237.612 139.095 237.862 139.576 238.135C142.846 236.473 144.511 236.759 144.511 236.759C134.117 219.348 121.825 233.926 121.825 233.926C121.79 235.319 122.069 236.649 122.589 237.84C127.734 235.421 133.298 235.247 138.096 237.387Z" fill="#8D214C"/>
<path d="M138.206 232.457C140.425 233.446 142.424 234.906 144.125 236.741C144.381 236.737 144.511 236.759 144.511 236.759C135.949 222.416 126.1 229.78 122.893 232.821C127.983 230.489 133.468 230.345 138.206 232.457Z" fill="#8D214C"/>
<mask id="mask1_157_5755" style="mask-type:luminance" maskUnits="userSpaceOnUse" x="120" y="221" width="26" height="27">
<path d="M140.615 221.852L145.115 237.042L124.877 247.888L120.377 232.698L140.615 221.852Z" fill="white"/>
</mask>
<g mask="url(#mask1_157_5755)">
<path d="M121.779 237.011C121.486 236.025 121.351 234.998 121.377 233.959C121.381 233.808 121.437 233.657 121.533 233.545C121.584 233.483 122.831 232.012 124.871 230.544C126.76 229.186 129.712 227.581 133.05 227.65C137.493 227.742 141.475 230.695 144.885 236.425C144.989 236.6 144.984 236.847 144.872 237.045C144.759 237.245 144.563 237.354 144.378 237.322C144.351 237.318 141.298 236.899 135.461 241.398C132.928 243.348 130.079 243.941 127.438 243.069C124.756 242.184 122.641 239.919 121.779 237.011ZM122.3 234.106C122.303 234.932 122.422 235.75 122.657 236.54C123.421 239.12 125.384 241.213 127.779 242.004C130.163 242.792 132.736 242.256 135.024 240.493C139.276 237.217 142.14 236.419 143.565 236.248C140.438 231.358 136.865 228.837 132.936 228.752C127.58 228.636 123.164 233.159 122.3 234.106Z" fill="#BDC9AC"/>
</g>
<path d="M121.401 234.955C121.399 234.949 121.397 234.943 121.396 234.936C121.323 234.657 121.464 234.334 121.71 234.214C121.801 234.17 123.984 233.118 127.196 232.631C130.161 232.182 134.588 232.157 138.844 234.595C139.063 234.721 139.133 235.047 139.001 235.324C138.868 235.6 138.583 235.723 138.364 235.597C130.571 231.133 122.057 235.184 121.972 235.225C121.732 235.342 121.48 235.221 121.401 234.955Z" fill="#BDC9AC"/>
<path d="M124.827 233.795C124.762 233.575 124.831 233.304 125.011 233.14C125.224 232.944 125.512 232.973 125.653 233.205L127.49 236.223C127.631 236.455 127.573 236.802 127.359 236.998C127.145 237.195 126.858 237.165 126.716 236.933L124.88 233.915C124.856 233.877 124.839 233.837 124.827 233.795Z" fill="#BDC9AC"/>
<path d="M128.541 233.219C128.476 232.999 128.546 232.727 128.726 232.563L131.284 230.229C131.499 230.034 131.786 230.064 131.926 230.296C132.066 230.529 132.007 230.876 131.793 231.071L129.235 233.406C129.021 233.6 128.733 233.571 128.593 233.338C128.571 233.301 128.554 233.261 128.541 233.219Z" fill="#BDC9AC"/>
<path d="M133.243 233.58C133.174 233.349 133.256 233.066 133.448 232.906C133.669 232.723 133.953 232.771 134.083 233.013L135.599 235.853C135.728 236.096 135.653 236.441 135.432 236.624C135.212 236.807 134.928 236.76 134.798 236.517L133.282 233.676C133.266 233.646 133.253 233.613 133.243 233.58Z" fill="#BDC9AC"/>
<path d="M64.4756 291.438C64.4756 291.438 83.4288 282.841 90.525 306.484C90.525 306.484 86.9625 304.247 78.2817 305.876C69.1002 307.599 62.2567 298.33 64.4756 291.438Z" fill="#8D214C"/>
<path d="M82.7296 303.715C83.2614 304.218 83.7711 304.742 84.26 305.282C88.6364 305.299 90.525 306.484 90.525 306.484C83.4288 282.841 64.4756 291.438 64.4756 291.438C64.0156 292.868 63.9467 294.399 64.2056 295.914C71.0323 296.144 77.6827 298.932 82.7296 303.715Z" fill="#8D214C"/>
<path d="M84.3406 298.648C86.6752 300.861 88.6073 303.444 90.0736 306.259C90.3783 306.392 90.525 306.483 90.525 306.483C84.6793 287.007 70.7887 289.409 66.0737 290.86C72.8093 291.151 79.3566 293.926 84.3406 298.648Z" fill="#8D214C"/>
<mask id="mask2_157_5755" style="mask-type:luminance" maskUnits="userSpaceOnUse" x="63" y="288" width="29" height="20">
<path d="M90.3816 288.91L91.1561 307.099L63.901 307.578L63.1265 289.389L90.3816 288.91Z" fill="white"/>
</mask>
<g mask="url(#mask2_157_5755)">
<path d="M63.4936 294.621C63.4431 293.44 63.5911 292.299 63.9339 291.233C63.9837 291.078 64.0956 290.952 64.2427 290.886C64.3228 290.849 66.2423 289.985 69.1022 289.548C71.7503 289.143 75.7334 289.05 79.6705 290.902C84.9109 293.368 88.7458 298.561 91.0688 306.336C91.1399 306.574 91.0594 306.828 90.8667 306.974C90.674 307.121 90.4086 307.13 90.1988 306.999C90.1676 306.98 86.6736 304.916 78.4002 306.478C74.8118 307.155 71.2553 306.252 68.3846 303.935C65.4709 301.585 63.6425 298.103 63.4936 294.621ZM64.9846 291.879C64.7392 292.738 64.6357 293.653 64.6762 294.6C64.8083 297.688 66.5068 300.911 69.1091 303.011C71.6999 305.102 74.9118 305.916 78.154 305.304C84.1795 304.167 87.8156 304.865 89.5571 305.448C87.318 298.697 83.8382 294.171 79.2038 291.986C72.888 289.009 66.2927 291.355 64.9846 291.879Z" fill="#BDC9AC"/>
</g>
<path d="M63.663 292.282C63.6626 292.275 63.6623 292.267 63.6627 292.26C63.6604 291.931 63.9242 291.67 64.2516 291.677C64.3729 291.679 67.278 291.751 71.2323 292.957C74.883 294.072 80.1406 296.408 84.4545 301.212C84.6771 301.46 84.6622 301.836 84.4218 302.053C84.1813 302.269 83.807 302.245 83.5844 301.997C75.6847 293.2 64.3717 292.87 64.2586 292.867C63.9393 292.861 63.6768 292.601 63.663 292.282Z" fill="#BDC9AC"/>
<path d="M68.0739 292.903C68.0624 292.64 68.2266 292.396 68.4888 292.32C68.8009 292.231 69.133 292.414 69.2307 292.73L70.5029 296.847C70.6006 297.165 70.4268 297.493 70.1147 297.583C69.8018 297.674 69.4697 297.49 69.3719 297.173L68.1006 293.056C68.0842 293.005 68.076 292.954 68.0739 292.903Z" fill="#BDC9AC"/>
<path d="M72.6513 294.287C72.6399 294.022 72.8048 293.777 73.0677 293.703L76.8018 292.642C77.1147 292.553 77.4461 292.737 77.5431 293.054C77.6394 293.37 77.4648 293.7 77.1519 293.788L73.4178 294.85C73.1056 294.938 72.7735 294.754 72.6772 294.437C72.6617 294.387 72.6535 294.337 72.6513 294.287Z" fill="#BDC9AC"/>
<path d="M78.118 297.169C78.106 296.893 78.2877 296.642 78.5638 296.579C78.8811 296.506 79.2036 296.707 79.2844 297.028L80.2288 300.789C80.3089 301.11 80.1175 301.429 79.8002 301.501C79.4837 301.574 79.1612 301.373 79.0803 301.052L78.1359 297.29C78.126 297.25 78.1197 297.209 78.118 297.169Z" fill="#BDC9AC"/>
<path d="M172.795 135.014C172.795 135.014 181.27 125.376 188.097 136.379C188.097 136.379 185.98 136.095 181.784 139.253C177.347 142.594 172.603 139.344 172.795 135.014Z" fill="#8D214C"/>
<path d="M183.754 136.914C184.093 137.048 184.423 137.2 184.746 137.365C186.975 136.229 188.097 136.379 188.097 136.379C181.27 125.376 172.795 135.014 172.795 135.014C172.755 135.912 172.929 136.763 173.266 137.519C176.771 135.858 180.535 135.633 183.754 136.914Z" fill="#8D214C"/>
<path d="M183.884 133.736C185.373 134.328 186.707 135.228 187.837 136.375C188.01 136.368 188.097 136.379 188.097 136.379C182.472 127.315 175.731 132.258 173.529 134.281C176.996 132.676 180.705 132.472 183.884 133.736Z" fill="#8D214C"/>
<mask id="mask3_157_5755" style="mask-type:luminance" maskUnits="userSpaceOnUse" x="171" y="126" width="18" height="18">
<path d="M185.633 126.857L188.505 136.547L174.702 143.945L171.83 134.255L185.633 126.857Z" fill="white"/>
</mask>
<g mask="url(#mask3_157_5755)">
<path d="M172.728 137.002C172.542 136.373 172.462 135.714 172.491 135.044C172.495 134.947 172.535 134.849 172.601 134.774C172.637 134.734 173.496 133.761 174.892 132.775C176.184 131.861 178.198 130.768 180.454 130.745C183.456 130.714 186.114 132.535 188.353 136.156C188.422 136.267 188.416 136.426 188.337 136.556C188.259 136.687 188.126 136.761 188.001 136.745C187.982 136.742 185.924 136.535 181.926 139.55C180.192 140.857 178.26 141.297 176.484 140.788C174.682 140.273 173.277 138.857 172.728 137.002ZM173.113 135.12C173.106 135.652 173.177 136.177 173.327 136.681C173.814 138.327 175.117 139.635 176.727 140.096C178.33 140.555 180.075 140.158 181.641 138.976C184.553 136.78 186.498 136.208 187.463 136.069C185.406 132.983 183.019 131.432 180.364 131.457C176.745 131.49 173.708 134.493 173.113 135.12Z" fill="#BDC9AC"/>
</g>
<path d="M172.496 135.686C172.495 135.682 172.494 135.678 172.493 135.674C172.447 135.496 172.546 135.284 172.713 135.202C172.775 135.172 174.263 134.45 176.44 134.072C178.449 133.722 181.442 133.617 184.291 135.101C184.438 135.177 184.481 135.386 184.388 135.567C184.296 135.747 184.102 135.832 183.955 135.755C178.738 133.038 172.937 135.82 172.879 135.848C172.715 135.928 172.546 135.856 172.496 135.686Z" fill="#BDC9AC"/>
<path d="M174.825 134.869C174.783 134.729 174.834 134.553 174.957 134.443C175.103 134.313 175.297 134.325 175.39 134.472L176.598 136.379C176.69 136.526 176.647 136.75 176.5 136.88C176.353 137.012 176.159 136.998 176.066 136.852L174.859 134.945C174.844 134.922 174.833 134.896 174.825 134.869Z" fill="#BDC9AC"/>
<path d="M177.343 134.423C177.301 134.282 177.351 134.106 177.475 133.996L179.231 132.442C179.378 132.311 179.572 132.325 179.664 132.472C179.756 132.619 179.712 132.844 179.565 132.974L177.809 134.529C177.662 134.659 177.468 134.645 177.376 134.498C177.361 134.475 177.35 134.45 177.343 134.423Z" fill="#BDC9AC"/>
<path d="M180.516 134.56C180.473 134.413 180.531 134.229 180.663 134.122C180.814 133.999 181.006 134.025 181.091 134.178L182.083 135.976C182.167 136.13 182.113 136.354 181.962 136.476C181.811 136.599 181.619 136.574 181.534 136.42L180.542 134.621C180.531 134.602 180.523 134.581 180.516 134.56Z" fill="#BDC9AC"/>
<path d="M235.745 38.9932C235.745 38.9932 245.772 32.4377 250.538 45.1829C250.538 45.1829 248.508 44.2349 243.829 45.9311C238.879 47.7252 234.792 43.091 235.745 38.9932Z" fill="#8D214C"/>
<path d="M246.176 44.3115C246.486 44.5489 246.784 44.7998 247.071 45.0616C249.462 44.6808 250.538 45.1829 250.538 45.1829C245.772 32.4377 235.744 38.9932 235.744 38.9932C235.547 39.8431 235.567 40.716 235.766 41.5501C239.503 41.0713 243.24 42.0552 246.176 44.3115Z" fill="#8D214C"/>
<path d="M246.865 41.3012C248.224 42.3449 249.376 43.6344 250.283 45.0963C250.455 45.1443 250.538 45.1831 250.538 45.1831C246.612 34.6838 239.116 37.2821 236.596 38.5237C240.285 38.0873 243.965 39.0737 246.865 41.3012Z" fill="#8D214C"/>
<mask id="mask4_157_5755" style="mask-type:luminance" maskUnits="userSpaceOnUse" x="234" y="35" width="17" height="14">
<path d="M249.798 35.2517L250.907 45.4751L236.039 48.1769L234.931 37.9535L249.798 35.2517Z" fill="white"/>
</mask>
<g mask="url(#mask4_157_5755)">
<path d="M235.328 40.8813C235.256 40.2176 235.294 39.5591 235.441 38.9253C235.462 38.8331 235.518 38.7517 235.596 38.7011C235.639 38.6733 236.654 38.013 238.2 37.5106C239.631 37.0453 241.803 36.6373 244.023 37.3342C246.978 38.2621 249.268 40.8585 250.829 45.051C250.877 45.1794 250.842 45.3302 250.743 45.4302C250.643 45.5306 250.498 45.5595 250.379 45.5037C250.361 45.4958 248.375 44.6397 243.915 46.2614C241.981 46.9644 240.005 46.7706 238.35 45.7159C236.67 44.646 235.54 42.8385 235.328 40.8813ZM236.039 39.1967C235.937 39.7052 235.915 40.2317 235.973 40.7639C236.161 42.5 237.21 44.1722 238.711 45.1281C240.204 46.0802 241.989 46.2548 243.737 45.6192C246.985 44.4383 248.997 44.509 249.97 44.6834C248.493 41.0633 246.422 38.8124 243.809 37.9895C240.247 36.868 236.734 38.784 236.039 39.1967Z" fill="#BDC9AC"/>
</g>
<path d="M235.333 39.5436C235.332 39.5394 235.332 39.5352 235.332 39.531C235.318 39.3452 235.452 39.1737 235.631 39.1485C235.698 39.139 237.287 38.9203 239.492 39.2504C241.528 39.5552 244.487 40.4081 247.024 42.7416C247.155 42.862 247.161 43.0761 247.038 43.2204C246.915 43.3643 246.71 43.384 246.579 43.2636C241.933 38.9906 235.742 39.8129 235.68 39.8216C235.505 39.8464 235.352 39.7228 235.333 39.5436Z" fill="#BDC9AC"/>
<path d="M237.765 39.5015C237.749 39.3534 237.829 39.2006 237.97 39.1345C238.137 39.0558 238.325 39.1299 238.39 39.3003L239.24 41.5165C239.306 41.6873 239.223 41.8888 239.056 41.9675C238.888 42.0467 238.7 41.9722 238.635 41.8018L237.785 39.5855C237.774 39.5579 237.768 39.5296 237.765 39.5015Z" fill="#BDC9AC"/>
<path d="M240.317 39.8756C240.301 39.7271 240.382 39.5738 240.522 39.5081L242.522 38.5745C242.689 38.4962 242.877 38.5712 242.942 38.7417C243.007 38.9122 242.924 39.1142 242.756 39.1921L240.757 40.126C240.59 40.2039 240.401 40.1294 240.337 39.9584C240.326 39.9316 240.32 39.9037 240.317 39.8756Z" fill="#BDC9AC"/>
<path d="M243.411 41.0193C243.394 40.8641 243.484 40.7058 243.632 40.6455C243.803 40.576 243.987 40.6612 244.043 40.8354L244.7 42.8794C244.756 43.0541 244.664 43.2514 244.493 43.3209C244.323 43.3903 244.139 43.3051 244.083 43.1305L243.426 41.0864C243.419 41.0646 243.414 41.042 243.411 41.0193Z" fill="#BDC9AC"/>
<path d="M35.1766 284.807C133.471 352.713 189.053 -38.9063 289.118 37.1854" stroke="#BDC9AC" stroke-width="4" stroke-linecap="round"/>
<path d="M97.5565 269.535C97.5565 269.535 106.851 253.691 95.5615 240.48C95.5615 240.48 95.9329 244.502 92.9452 252.384C89.7853 260.721 93.2322 269.794 97.5565 269.535Z" fill="#8D214C"/>
<path d="M95.2053 248.705C95.0568 248.059 94.8916 247.428 94.7126 246.813C95.7579 242.612 95.5615 240.48 95.5615 240.48C106.851 253.691 97.5565 269.535 97.5565 269.535C96.6596 269.588 95.8008 269.239 95.0302 268.58C96.5488 261.972 96.619 254.84 95.2053 248.705Z" fill="#8D214C"/>
<path d="M98.3793 248.533C97.7253 245.695 96.7705 243.142 95.5762 240.974C95.5765 240.646 95.5615 240.48 95.5615 240.48C104.862 251.363 100.193 264.031 98.2595 268.159C99.7229 261.622 99.7747 254.592 98.3793 248.533Z" fill="#8D214C"/>
<mask id="mask5_157_5755" style="mask-type:luminance" maskUnits="userSpaceOnUse" x="88" y="239" width="18" height="33">
<path d="M105.189 245.38L95.3746 239.708L88.5448 265.713L98.3596 271.384L105.189 245.38Z" fill="white"/>
</mask>
<g mask="url(#mask5_157_5755)">
<path d="M95.5699 269.613C96.2071 269.982 96.8698 270.149 97.5385 270.109C97.6357 270.103 97.7321 270.03 97.804 269.907C97.8434 269.84 98.7812 268.234 99.7107 265.61C100.572 263.181 101.583 259.387 101.513 255.11C101.42 249.417 99.4891 244.333 95.7739 239.998C95.66 239.866 95.5011 239.874 95.3742 240.019C95.2469 240.164 95.1778 240.416 95.1997 240.653C95.2026 240.688 95.4952 244.597 92.6426 252.107C91.4057 255.364 91.0452 259.019 91.627 262.399C92.217 265.83 93.6911 268.527 95.5699 269.613ZM97.4369 268.927C96.905 268.929 96.3774 268.781 95.8665 268.485C94.1999 267.521 92.8373 265.019 92.3099 261.955C91.7847 258.904 92.1107 255.604 93.2287 252.661C95.306 247.192 95.7984 243.516 95.8977 241.688C99.0697 245.665 100.72 250.228 100.804 255.264C100.919 262.126 98.0399 267.814 97.4369 268.927Z" fill="#BDC9AC"/>
</g>
<path d="M96.8964 270.085C96.9004 270.087 96.9045 270.09 96.9087 270.091C97.0888 270.182 97.2962 270 97.3712 269.685C97.3991 269.568 98.0599 266.763 98.3493 262.644C98.6165 258.842 98.599 253.167 96.9971 247.729C96.9145 247.448 96.7041 247.361 96.5269 247.533C96.35 247.705 96.2731 248.07 96.3557 248.351C99.2888 258.309 96.7441 269.246 96.7183 269.355C96.6449 269.663 96.7245 269.985 96.8964 270.085Z" fill="#BDC9AC"/>
<path d="M97.6178 265.687C97.7599 265.769 97.9337 265.678 98.0384 265.447C98.163 265.172 98.1423 264.804 97.9918 264.625L96.0346 262.289C95.8837 262.109 95.6611 262.187 95.5365 262.462C95.4113 262.737 95.4324 263.106 95.5829 263.285L97.5403 265.62C97.5645 265.65 97.5908 265.671 97.6178 265.687Z" fill="#BDC9AC"/>
<path d="M97.9606 260.923C98.1031 261.006 98.2775 260.914 98.3819 260.682L99.8652 257.389C99.9896 257.113 99.9679 256.746 99.8172 256.567C99.6663 256.389 99.4431 256.467 99.3192 256.743L97.8355 260.036C97.7117 260.311 97.7328 260.679 97.8841 260.858C97.9077 260.886 97.9336 260.908 97.9606 260.923Z" fill="#BDC9AC"/>
<path d="M97.6933 254.901C97.8422 254.987 98.0241 254.881 98.1253 254.633C98.2418 254.349 98.2088 253.985 98.052 253.821L96.2115 251.896C96.0541 251.732 95.8329 251.829 95.7164 252.114C95.6002 252.397 95.6331 252.761 95.7903 252.926L97.6308 254.851C97.6505 254.871 97.6715 254.888 97.6933 254.901Z" fill="#BDC9AC"/>
<path d="M142.929 193.769C142.929 193.769 133.308 174.636 149.009 163.392C149.009 163.392 148.048 167.573 150.796 176.687C153.703 186.327 148.286 195.116 142.929 193.769Z" fill="#8D214C"/>
<path d="M148.435 172.219C148.7 171.569 148.984 170.94 149.283 170.331C148.5 165.608 149.009 163.392 149.009 163.392C133.308 174.636 142.929 193.769 142.929 193.769C144.04 194.048 145.154 193.89 146.195 193.381C145.12 185.984 145.915 178.388 148.435 172.219Z" fill="#8D214C"/>
<path d="M144.502 171.251C145.668 168.397 147.173 165.921 148.929 163.913C148.97 163.564 149.009 163.392 149.009 163.392C136.074 172.654 140.324 187.269 142.224 192.134C141.209 184.826 142.014 177.343 144.502 171.251Z" fill="#8D214C"/>
<mask id="mask6_157_5755" style="mask-type:luminance" maskUnits="userSpaceOnUse" x="136" y="162" width="19" height="34">
<path d="M136.406 166.216L149.336 162.614L154.634 191.933L141.704 195.535L136.406 166.216Z" fill="white"/>
</mask>
<g mask="url(#mask6_157_5755)">
<path d="M145.395 194.345C144.556 194.579 143.709 194.592 142.881 194.385C142.761 194.355 142.65 194.253 142.575 194.104C142.534 194.024 141.565 192.085 140.731 189.067C139.959 186.273 139.168 181.992 139.783 177.464C140.603 171.438 143.638 166.514 148.804 162.827C148.962 162.715 149.159 162.763 149.299 162.949C149.44 163.134 149.495 163.419 149.438 163.665C149.43 163.702 148.582 167.783 151.208 176.468C152.346 180.235 152.344 184.208 151.201 187.655C150.041 191.155 147.871 193.655 145.395 194.345ZM143.154 193.154C143.816 193.288 144.492 193.26 145.165 193.073C147.361 192.461 149.369 190.14 150.405 187.015C151.436 183.903 151.438 180.315 150.409 176.912C148.497 170.587 148.338 166.559 148.44 164.593C143.996 168.033 141.376 172.473 140.648 177.803C139.656 185.066 142.54 191.822 143.154 193.154Z" fill="#BDC9AC"/>
</g>
<path d="M143.684 194.518C143.678 194.519 143.673 194.521 143.668 194.521C143.432 194.574 143.196 194.329 143.142 193.975C143.121 193.844 142.645 190.7 142.794 186.252C142.931 182.146 143.655 176.121 146.323 170.739C146.461 170.461 146.734 170.42 146.933 170.647C147.133 170.873 147.183 171.28 147.046 171.558C142.159 181.414 143.977 193.664 143.996 193.786C144.049 194.132 143.91 194.454 143.684 194.518Z" fill="#BDC9AC"/>
<path d="M143.329 189.667C143.142 189.719 142.936 189.579 142.834 189.308C142.713 188.985 142.785 188.599 142.994 188.445L145.722 186.448C145.932 186.294 146.2 186.432 146.321 186.755C146.443 187.079 146.371 187.465 146.161 187.618L143.434 189.615C143.4 189.64 143.364 189.657 143.329 189.667Z" fill="#BDC9AC"/>
<path d="M143.491 184.52C143.303 184.572 143.097 184.432 142.996 184.159L141.555 180.294C141.434 179.97 141.506 179.584 141.716 179.432C141.926 179.28 142.195 179.418 142.315 179.742L143.756 183.608C143.877 183.931 143.805 184.317 143.594 184.469C143.561 184.493 143.526 184.51 143.491 184.52Z" fill="#BDC9AC"/>
<path d="M144.569 178.187C144.373 178.241 144.159 178.084 144.064 177.796C143.954 177.464 144.04 177.086 144.256 176.95L146.787 175.36C147.003 175.225 147.267 175.383 147.377 175.714C147.487 176.045 147.401 176.423 147.184 176.559L144.653 178.149C144.626 178.166 144.598 178.179 144.569 178.187Z" fill="#BDC9AC"/>
</svg>
