<svg width="331" height="214" viewBox="0 0 331 214" fill="none" xmlns="http://www.w3.org/2000/svg">
<path d="M261.871 30.9285C260.06 31.5923 258.866 32.4515 255.514 35.6146C249.965 40.8865 249.695 41.1989 242.605 50.7664C235.707 60.0606 234.243 62.5208 232.201 68.1832C231.43 70.331 230.428 72.9084 230.005 74.0018C229.542 75.0562 228.849 77.0869 228.463 78.4927C228.001 80.2109 227.616 80.992 227.269 80.8748C226.999 80.7967 225.843 80.4062 224.687 79.9766C223.531 79.5861 222.182 79.2737 221.643 79.2737C220.911 79.2737 220.757 79.1175 220.988 78.5708C221.99 76.0715 222.722 72.0493 222.375 71.073C222.105 70.2139 222.182 69.7453 222.76 68.8861C224.571 66.1916 225.419 64.0047 225.65 61.3493C225.997 57.7566 225.419 57.7175 224.109 61.1931C222.992 64.1609 220.448 67.5584 220.41 66.1525C220.371 63.4971 217.905 59.7091 215.362 58.3423C214.745 58.0299 212.973 57.6004 211.432 57.4051C206.846 56.7412 200.912 58.3423 196.75 61.3102C194.939 62.638 183.187 74.2752 181.414 76.5401C180.066 78.2193 162.456 89.8956 159.142 91.2624C157.562 91.9263 155.366 92.5901 154.248 92.7463C152.36 92.9807 152.206 92.9416 150.857 91.692C149.701 90.6376 149.393 90.0128 149.239 88.5288C149.046 86.9668 149.162 86.4982 149.894 85.7562C150.356 85.2485 151.05 84.7409 151.435 84.6237C152.476 84.3504 153.824 85.4438 153.67 86.4201C153.593 87.0449 153.747 87.2792 154.325 87.2792C154.903 87.2792 155.135 86.9668 155.212 86.0296C155.481 83.1007 151.59 81.6949 148.7 83.6865C146.773 84.9752 145.232 88.3726 144.962 91.692C144.692 95.7142 145.386 98.0573 147.351 99.8927C149.586 101.962 150.279 102.314 153.709 102.939C159.913 104.071 165.885 103.524 172.436 101.299C176.174 100.049 176.944 99.6584 181.144 97.0029C182.956 95.8314 184.574 94.8942 184.69 94.8942C184.805 94.8942 185.113 95.519 185.345 96.2609C185.576 97.0029 186.539 98.4478 187.502 99.5412C188.89 101.103 189.892 101.767 193.09 103.134C196.635 104.657 196.905 104.852 196.018 105.165C194.978 105.516 194.361 106.688 194.785 107.391C195.171 108.015 197.174 107.859 197.829 107.156C198.561 106.453 198.6 105.985 198.022 105.633C197.829 105.477 197.483 104.93 197.251 104.384C197.02 103.798 196.249 103.173 195.093 102.665C189.93 100.4 189.159 99.9318 187.425 97.5106C186.501 96.1828 185.73 94.9332 185.73 94.6989C185.73 94.4646 186.308 93.996 187.002 93.6445C188.042 93.1369 188.427 93.0978 189.198 93.5274C189.737 93.8007 191.279 94.3084 192.627 94.6599C194.015 95.0113 195.671 95.7533 196.365 96.2609C197.752 97.3544 198.33 97.1201 197.483 95.7923C196.905 94.9332 196.943 94.8942 197.983 94.8942C199.679 94.8942 202.453 92.8635 207.501 87.865C213.358 82.0854 214.668 81.4606 220.988 81.4606C224.61 81.4215 225.458 81.5387 226.768 82.2807C229.658 83.8427 231.315 86.0686 234.051 92.1606C237.788 100.361 241.526 104.774 246.844 107.234C253.78 110.436 257.132 114.498 256.477 118.832C255.745 123.284 251.968 125.393 245.688 124.768C243.106 124.534 242.489 124.3 238.675 121.996C234.012 119.184 232.278 118.559 230.583 119.067C227.962 119.809 224.571 122.269 225.226 122.972C225.496 123.206 226.344 122.894 227.808 121.957C231.43 119.653 232.124 119.809 239.599 124.573C241.603 125.862 241.603 125.862 246.728 125.901C251.545 125.94 251.93 125.862 254.126 124.807C255.398 124.222 257.132 123.636 258.018 123.558C259.482 123.362 259.714 123.48 261.525 125.276C263.105 126.838 263.914 127.307 266.033 127.892C267.459 128.283 269.27 129.103 270.002 129.728C271.505 130.899 271.389 131.016 269.347 130.431C264.839 129.181 259.868 128.947 239.715 129.064C225.727 129.181 218.907 129.376 217.597 129.689C215.67 130.157 215.632 130.157 214.553 128.908L213.435 127.619L215.092 125.784C216.017 124.768 217.635 122.855 218.753 121.566C223.454 116.021 230.968 112.389 238.135 112.233C242.566 112.116 242.335 112.194 241.449 111.491C240.062 110.436 231.931 110.944 230.621 112.116C230.082 112.623 229.272 112.545 229.272 111.959C229.272 111.296 226.46 106.766 225.149 105.36C224.571 104.696 223.107 103.564 221.951 102.822C218.059 100.322 217.712 99.8146 217.712 96.7686C217.712 94.8161 217.558 94.1131 217.25 94.1522C216.98 94.1912 216.287 94.035 215.747 93.7617C214.36 93.0588 211.046 93.8007 208.811 95.2456C206.422 96.7686 199.062 103.642 199.563 103.798C200.141 103.993 201.413 103.134 203.918 100.869C207.732 97.4325 210.314 95.7533 212.51 95.2456C215.67 94.5427 216.364 94.9723 216.364 97.7449C216.364 99.6193 216.518 100.088 217.52 101.142C218.175 101.845 219.639 103.056 220.795 103.876C223.107 105.477 224.803 107.273 226.96 110.358C228.656 112.78 228.694 112.858 227.962 112.858C226.845 112.858 220.487 117.583 218.059 120.238C213.589 125.081 212.703 126.33 212.703 127.853C212.703 128.947 212.973 129.415 214.052 130.235C214.784 130.821 215.516 131.173 215.747 131.055C215.94 130.938 226.267 130.743 238.713 130.665C257.402 130.548 261.833 130.626 264.261 131.095C270.619 132.344 273.547 132.149 272.931 130.587C272.507 129.415 269.039 127.307 266.65 126.76C264.453 126.252 263.952 125.94 262.218 123.987C260.176 121.761 259.02 121.332 257.402 122.23C256.708 122.581 256.708 122.542 257.286 121.371C257.633 120.707 257.941 119.067 257.941 117.778C258.018 112.975 254.897 109.343 247.845 105.985C245.495 104.852 243.568 103.603 242.181 102.275C240.254 100.439 237.75 97.042 237.75 96.2609C237.75 96.0657 239.368 97.5106 241.333 99.4631C244.223 102.314 245.302 103.134 247.19 103.837C252.2 105.672 254.704 106.727 254.704 107C254.704 107.469 260.947 110.436 264.646 111.725C267.613 112.741 268.384 112.897 269.154 112.545C270.349 111.999 270.349 111.53 269.154 109.031C268.152 106.883 267.998 106.453 268.499 106.766C268.653 106.844 270.079 107.195 271.697 107.547C274.125 108.054 274.896 108.054 276.283 107.664C278.441 107.039 279.096 106.063 277.94 105.243C277.477 104.891 276.822 104.032 276.476 103.329C276.129 102.626 274.549 100.478 272.892 98.565C271.235 96.6515 269.077 93.9569 268.075 92.5511C265.571 89.1536 259.714 84.3504 256.323 82.9836C254.897 82.3978 253.587 81.812 253.356 81.6558C253.163 81.4996 251.506 81.0701 249.695 80.6796C247.884 80.2891 245.842 79.8595 245.187 79.6642C244.493 79.508 243.53 79.4299 243.067 79.5861C242.258 79.7814 242.22 79.7423 242.759 79.1175C243.067 78.727 244.339 77.5945 245.649 76.6182C248.346 74.5485 252.315 71.112 255.86 67.7536C257.248 66.465 260.06 63.8876 262.103 62.0131C265.455 58.9281 265.917 58.3033 267.035 55.6478C268.653 51.6255 269.54 48.0328 270.31 41.9018C271.312 34.3259 270.927 33.623 266.842 35.9661L264.723 37.1766L264.954 35.0288C265.224 32.842 264.916 30.0303 264.415 30.1084C264.261 30.1084 263.143 30.4989 261.871 30.9285ZM263.76 33.8573C263.413 37.45 262.45 41.238 260.677 46.2755C259.752 48.8529 258.75 51.977 258.442 53.2266C257.517 56.8584 254.165 60.6073 243.53 70.1358C240.447 72.9084 236.208 76.8526 234.089 78.9223C230.929 82.0463 230.12 82.6712 229.581 82.3588C228.425 81.7339 228.463 81.5777 232.702 70.1748C233.55 67.8317 234.937 64.6296 235.785 63.0285C237.287 60.2168 242.836 52.5237 248.346 45.6507C252.932 39.9493 261.717 31.9438 263.683 31.6704C263.837 31.6314 263.875 32.6467 263.76 33.8573ZM268.229 45.885C266.65 53.7734 265.417 57.0927 263.143 59.3577C258.904 63.5752 251.198 70.4872 246.034 74.6266C243.491 76.6964 241.064 78.7661 240.678 79.2347C240.254 79.6642 239.715 80.0547 239.445 80.0547C239.137 80.0547 238.636 80.4843 238.328 80.992C237.827 81.7339 237.249 82.0073 235.399 82.2026C232.972 82.4759 232.124 83.0226 233.588 83.335C234.089 83.4522 236.825 83.6474 239.676 83.7646C246.959 84.1161 249.618 84.9752 253.433 88.2164C254.936 89.4661 256.438 91.2624 257.633 93.215C258.673 94.8942 261.101 98.6431 263.027 101.533C266.149 106.18 268.576 110.397 268.576 111.139C268.576 111.803 263.259 109.773 257.787 107C255.783 105.985 252.392 104.501 250.273 103.681C245.996 102.041 244.146 100.713 239.33 95.9485C236.632 93.254 235.823 92.1606 234.397 89.1927C233.473 87.2401 232.278 85.2485 231.777 84.7409C230.775 83.8036 230.505 82.7883 231.238 82.7883C231.97 82.7883 234.783 80.3672 240.254 74.9781C243.221 72.0883 247.306 68.2613 249.31 66.504C253.702 62.677 254.781 61.5055 257.093 58.1861C259.444 54.8277 263.336 44.4011 264.145 39.3244C264.261 38.5434 264.569 37.8796 264.839 37.8796C265.108 37.8796 266.187 37.45 267.228 36.9814L269.154 36.0442L269.27 38.0358C269.347 39.1682 268.885 42.6047 268.229 45.885ZM213.512 59.631C215.246 59.9825 217.212 61.9741 218.522 64.6686C219.986 67.6365 219.986 67.6365 216.98 70.2529L214.938 72.0102L215.208 70.6044C215.747 67.6755 212.472 64.0828 208.426 63.2237C205.613 62.5989 201.567 63.0285 199.101 64.1609C197.983 64.6686 195.749 66.1135 194.092 67.3241C191.664 69.0814 191.24 69.2766 191.857 68.4175C193.398 66.1916 198.407 62.1693 200.951 61.0759C205.459 59.2015 209.197 58.7328 213.512 59.631ZM208.965 65.2544C209.775 65.4496 211.2 66.4259 212.164 67.3631C213.821 68.9252 213.936 69.1595 213.705 70.5653C213.011 75.4077 213.551 77.0869 214.977 74.3142C215.67 72.9474 217.327 71.1901 221.913 66.9726C223.454 65.5277 223.531 65.4887 222.876 66.5821C222.491 67.2069 221.335 68.7299 220.294 69.9796C218.445 72.1664 217.327 74.7828 217.327 76.9697C217.327 77.7898 217.134 78.0631 216.479 78.1803C215.824 78.2584 215.632 78.5317 215.67 79.1956C215.747 79.7423 215.555 80.0547 215.208 80.0547C213.821 80.0547 209.967 82.515 207.617 84.8971C206.191 86.3029 204.881 87.4745 204.65 87.4745C203.802 87.4745 201.182 84.6628 200.719 83.296C200.45 82.4759 200.373 80.7186 200.45 79.0004C200.681 75.642 201.259 74.7828 204.496 73.1427C206.384 72.2445 206.731 72.1664 208.118 72.596C209.197 72.9474 209.775 73.377 210.044 74.119C210.353 74.939 210.507 75.0172 210.777 74.5876C211.432 73.5723 211.2 72.596 210.044 71.4244C209.081 70.4872 208.58 70.292 207.039 70.292C204.187 70.331 202.299 71.4635 197.598 76.0325C195.209 78.3755 192.126 81.1482 190.739 82.2416C188.042 84.4285 181.645 88.0993 178.678 89.2318C177.677 89.6223 176.906 89.9737 176.983 90.0518C177.368 90.4814 184.69 88.4507 186.501 87.3964C189.159 85.9124 193.591 82.5931 196.982 79.5471L199.602 77.2431L199.371 79.5861C199.024 82.7883 199.371 84.3113 200.873 85.9515L202.107 87.3182L197.097 88.1774C192.473 88.9584 191.741 89.1927 187.464 91.4186C184.921 92.7463 181.453 94.6989 179.757 95.7923C173.399 99.8536 166.348 101.923 159.065 101.923C155.019 101.923 154.21 101.806 152.09 100.908C147.544 98.9945 146.426 97.2372 146.426 92.0825C146.426 88.0602 146.927 86.4201 147.389 88.8803C147.775 91.0281 148.545 92.3558 150.087 93.5664C151.358 94.5427 151.667 94.5817 154.248 94.4255C156.329 94.2693 157.832 93.8788 160.221 92.8245C163.92 91.1453 184.227 77.5164 190.354 72.5569C198.33 66.1135 200.719 64.8248 204.804 64.8248C206.307 64.8248 208.156 65.0201 208.965 65.2544ZM220.564 75.5639C219.832 79.2347 219.832 79.2737 218.714 79.2737C217.674 79.2737 217.635 79.2347 218.175 78.5708C218.483 78.2193 218.946 76.8526 219.215 75.6029C219.639 73.338 220.641 71.1901 221.065 71.6197C221.18 71.7369 220.949 73.4942 220.564 75.5639ZM250.042 82.1635C254.358 83.2179 256.862 84.2332 259.174 85.9905C263.413 89.1536 265.648 91.3405 267.189 93.6445C268.152 95.0894 269.925 97.4715 271.158 98.9555C272.391 100.478 274.202 102.704 275.204 103.915L276.977 106.141L275.821 106.375C274.125 106.727 271.775 106.609 269.501 106.102L267.536 105.633L264.261 100.713C262.45 97.9792 260.33 94.6989 259.56 93.4102C258.789 92.0825 256.67 89.6223 254.858 87.9431C251.853 85.0533 251.352 84.7409 248.038 83.6474C246.073 82.9836 243.299 82.3197 241.834 82.1635C239.561 81.9292 239.253 81.812 239.869 81.3825C240.832 80.6405 244.878 80.992 250.042 82.1635ZM202.068 90.2471C201.451 90.9109 200.18 91.8872 199.217 92.4339C198.253 93.0197 197.29 93.6836 197.059 93.996C196.673 94.4646 196.365 94.4255 195.093 93.9179C194.246 93.5664 192.435 93.1759 191.086 92.9807L188.62 92.6682L190.816 91.6529C192.704 90.7547 196.211 90.0128 201.721 89.3099C202.376 89.2318 202.954 89.1146 203.031 89.0755C203.147 89.0755 202.723 89.5832 202.068 90.2471Z" fill="#E2B95B"/>
<path d="M69.8607 101.923C67.6643 102.158 66.4312 103.017 65.6991 104.852C65.4294 105.477 64.7358 108.601 64.1578 111.764L63.1174 117.544H61.8843C58.6475 117.544 55.4878 119.496 55.4878 121.449C55.4878 122.738 56.0273 123.011 58.7246 123.011C60.343 123.011 61.1907 122.738 62.9247 121.644L65.1596 120.316L66.8936 121.566C68.3579 122.581 69.0515 122.816 71.3249 122.933L74.0222 123.089L75.7177 121.332C77.2205 119.731 77.4517 119.614 77.6444 120.277C77.76 120.668 78.415 121.488 79.0316 122.035C80.0334 122.855 80.6114 123.011 82.6922 123.011C85.4281 123.011 86.7382 122.503 88.2795 120.785C89.2043 119.809 90.553 117.544 90.553 116.958C90.553 116.333 89.0117 116.88 88.819 117.583C88.3566 118.989 85.5822 121.761 84.1565 122.23C83.039 122.62 82.6537 122.581 81.883 122.074C80.8812 121.41 80.3032 119.887 80.6885 118.911C80.8426 118.481 81.4592 118.325 82.8463 118.325C85.2354 118.325 86.8923 117.544 87.663 115.982C89.0117 113.365 87.8171 111.881 84.4262 111.881C81.7289 111.92 79.9178 112.936 78.6462 115.201C78.1838 116.06 77.6444 116.763 77.4517 116.763C77.259 116.763 76.7581 117.427 76.3342 118.247C75.2553 120.434 73.4443 122.23 72.3653 122.23C71.3635 122.23 66.0073 118.481 66.2 117.895C66.2385 117.661 66.8165 114.771 67.4716 111.374C68.7047 105.047 69.1285 103.915 70.6699 102.861C71.5176 102.314 71.7103 102.314 72.7892 102.861C74.4846 103.759 74.947 104.813 74.4076 106.609C74.1764 107.391 73.5599 108.445 73.0204 108.953C72.4809 109.46 72.0571 110.007 72.0571 110.163C72.0571 110.827 73.6755 109.929 74.7544 108.679C76.9508 106.141 76.103 102.822 73.0204 102.001C72.3653 101.845 70.9781 101.806 69.8607 101.923ZM85.1583 113.053C85.8519 113.873 85.0427 116.528 83.8867 117.349C82.9619 118.012 81.4592 118.13 81.1124 117.583C80.7656 116.958 82.1142 114.068 83.1546 113.248C84.3106 112.311 84.5418 112.272 85.1583 113.053ZM62.4238 118.676C62.4238 119.34 60.42 121.449 59.264 122.074C57.8383 122.816 57.0291 122.542 57.0291 121.293C57.0291 120.395 58.2622 119.184 59.7264 118.598C60.6898 118.247 62.4238 118.286 62.4238 118.676Z" fill="#E2B95B"/>
<path d="M110.976 101.884C106.043 102.9 102.768 107.859 102.73 114.42C102.691 117.27 102.845 117.973 103.654 119.496C105.041 122.035 106.968 123.011 110.513 123.011C113.827 123.011 115.445 122.386 117.179 120.395C117.796 119.653 118.374 119.067 118.451 119.145C118.49 119.223 118.759 119.887 119.068 120.59C119.337 121.293 120.031 122.113 120.647 122.425C122.189 123.245 125.811 123.167 127.506 122.269C128.277 121.878 129.472 121.293 130.127 121.058C130.82 120.785 131.745 119.965 132.207 119.262C132.631 118.52 133.055 117.934 133.132 117.934C133.248 117.934 132.94 119.496 132.362 122.113C132.169 122.933 132.284 123.011 133.864 123.011H135.56L136.022 119.887C136.562 116.372 137.448 114.732 139.49 113.326C141.417 111.999 141.648 112.78 140.685 117.895C140.222 120.199 139.875 122.308 139.875 122.542C139.875 122.816 140.492 123.011 141.417 123.011C142.265 123.011 142.958 122.933 142.958 122.816C142.958 121.918 144.23 116.372 144.615 115.63C145.155 114.498 147.929 112.389 148.391 112.701C148.931 113.014 148.815 114.654 147.929 118.051C146.811 122.503 147.312 123.401 150.857 123.011C151.936 122.894 152.399 122.425 153.747 120.121L154.942 118.13L154.672 119.613C154.518 120.473 153.825 122.113 153.092 123.323C151.435 126.135 150.935 127.97 150.896 131.407L150.857 134.141L152.553 134.062C153.478 134.023 154.325 133.906 154.402 133.789C154.672 133.516 156.291 127.58 156.792 124.963L157.254 122.777L159.836 122.933C162.494 123.089 162.687 123.05 167.234 120.707C167.542 120.551 168.159 119.887 168.621 119.223L169.392 118.051V119.926C169.392 122.425 169.97 123.011 172.32 123.011C174.517 123.011 175.75 122.308 176.906 120.434L177.715 119.067L178.37 120.316C179.372 122.386 180.721 123.128 183.225 123.05C184.535 123.05 186 122.699 186.847 122.269C187.618 121.878 188.89 121.293 189.66 120.941C190.47 120.59 191.356 119.809 191.703 119.106C192.011 118.481 192.358 117.934 192.396 117.934C192.435 117.934 192.473 119.028 192.473 120.355V122.816L194.438 122.933C196.211 123.05 196.558 122.933 197.637 121.8C198.33 121.136 199.294 119.731 199.833 118.676C200.334 117.622 200.989 116.763 201.297 116.763C201.567 116.763 202.107 116.06 202.492 115.201C202.877 114.342 203.263 113.678 203.34 113.756C203.417 113.834 203.108 115.63 202.685 117.739C201.606 123.011 201.606 123.011 203.378 123.011C204.765 123.011 204.804 122.972 205.497 120.746C206.23 118.52 208.041 115.201 208.58 115.201C208.734 115.201 208.85 115.591 208.85 116.099C208.85 116.607 209.043 117.192 209.312 117.466C209.929 118.091 212.896 118.051 213.435 117.427C214.09 116.607 213.435 116.294 212.472 116.958C211.509 117.583 210.584 117.427 210.237 116.489C209.929 115.669 210.391 114.029 210.931 114.029C211.663 114.029 212.588 113.131 212.896 112.155C213.127 111.374 213.011 111.296 211.701 111.296C210.507 111.296 209.967 111.608 208.195 113.365L206.153 115.474V114.185C206.153 112.662 205.305 111.686 203.995 111.686C203.301 111.686 202.762 112.155 201.914 113.522C201.297 114.537 200.681 115.669 200.527 116.06C200.411 116.45 200.103 116.763 199.795 116.763C199.525 116.763 198.793 117.7 198.138 118.793C197.521 119.926 196.635 121.215 196.172 121.605C195.363 122.347 195.363 122.347 195.363 121.215C195.363 120.59 195.787 118.286 196.25 116.06L197.174 112.077H195.325C193.86 112.077 193.514 112.194 193.668 112.662C193.976 113.443 192.666 116.763 192.088 116.763C191.818 116.763 191.125 117.583 190.547 118.559C189.969 119.535 189.468 120.277 189.391 120.199C189.314 120.121 189.506 119.301 189.814 118.364C190.547 116.177 190.2 114.381 188.736 112.975C187.734 111.999 187.31 111.881 185.19 111.881C183.187 111.881 182.493 112.077 181.145 112.975C180.258 113.561 179.256 114.654 178.91 115.396C178.563 116.138 178.023 116.763 177.754 116.763C177.484 116.763 176.829 117.583 176.328 118.598C175.21 120.863 173.669 122.425 172.86 122.113C172.051 121.8 172.089 121.215 173.207 115.591C173.746 112.936 174.17 110.749 174.17 110.671C174.17 110.593 175.133 110.515 176.289 110.515C177.445 110.515 178.409 110.319 178.409 110.124C178.409 109.89 177.484 109.734 176.328 109.734H174.286L174.787 107.469C175.48 104.501 175.519 104.657 173.823 104.657H172.359L172.089 106.609C171.704 109.382 171.511 109.734 170.317 109.734C169.7 109.734 169.084 109.89 168.968 110.124C168.814 110.358 169.238 110.515 169.893 110.515C171.319 110.515 171.357 110.749 170.317 114.185C169.816 115.747 169.315 116.763 168.968 116.763C168.698 116.763 168.043 117.466 167.581 118.325C166.54 120.16 166.348 120.16 166.926 118.247C167.427 116.528 167.08 114.42 166.078 113.326C164.922 112.077 162.88 111.686 159.065 111.959L155.674 112.194V113.482C155.674 115.162 155.058 116.763 154.364 116.763C154.094 116.763 153.632 117.27 153.401 117.856C153.169 118.442 152.437 119.731 151.821 120.668C150.78 122.23 150.665 122.308 150.665 121.449C150.665 120.902 150.935 119.223 151.281 117.661C151.821 115.357 151.859 114.693 151.474 113.717C150.588 111.53 147.659 111.139 145.27 112.858C144.345 113.522 144.114 113.561 143.844 113.131C143.035 111.686 140.762 111.335 138.912 112.311C138.18 112.701 137.718 112.741 137.641 112.506C137.563 112.272 136.754 112.077 135.791 112.077C134.519 112.077 134.173 112.194 134.327 112.623C134.635 113.443 133.094 116.763 132.439 116.763C132.13 116.763 131.668 117.27 131.398 117.895C131.167 118.52 130.589 119.34 130.204 119.731C129.472 120.434 129.433 120.395 130.05 119.262C130.82 117.778 130.782 114.849 130.011 113.678C127.853 110.593 122.343 111.296 119.761 114.966C119.106 115.943 118.413 116.763 118.258 116.763C118.104 116.763 117.526 117.544 116.948 118.52C114.212 123.284 108.625 123.675 106.583 119.301C104.502 114.927 106.544 106.102 110.205 103.603C112.748 101.845 116.293 102.197 116.948 104.266C117.372 105.672 116.794 107.703 115.561 108.953L114.367 110.124H115.33C116.563 110.124 118.181 108.211 118.528 106.336C119.183 102.822 115.869 100.908 110.976 101.884ZM127.198 113.287C127.892 113.99 127.969 114.381 127.776 116.099C127.468 118.403 126.582 120.668 126.042 120.668C125.811 120.668 125.618 120.902 125.618 121.176C125.618 122.035 123.807 122.699 122.882 122.191C121.688 121.566 121.302 120.043 121.765 117.778C122.651 113.443 125.233 111.296 127.198 113.287ZM162.995 113.248C163.419 113.678 163.843 114.459 163.997 115.005C164.344 116.372 163.419 119.848 162.61 120.355C162.225 120.629 161.994 121.019 162.109 121.293C162.302 121.839 161.107 122.62 159.99 122.62C159.604 122.62 158.911 122.23 158.448 121.722L157.601 120.824L158.294 117.153C158.872 113.951 159.104 113.404 159.913 112.975C161.261 112.272 162.109 112.35 162.995 113.248ZM186.578 113.131C187.772 114.185 187.271 118.637 185.807 120.121C185.46 120.512 185.152 120.98 185.152 121.215C185.152 121.449 184.651 121.878 184.073 122.152C183.148 122.62 182.879 122.581 181.992 122.035C181.106 121.41 181.029 121.215 181.183 118.989C181.376 116.099 182.378 113.834 183.765 113.053C185.075 112.311 185.73 112.35 186.578 113.131Z" fill="#E2B95B"/>
<path d="M112.093 135C111.515 135.078 110.128 135.703 109.01 136.405C105.504 138.553 104.232 142.576 105.966 146.051C107.084 148.277 109.049 149.409 114.174 150.698C116.64 151.362 119.029 152.065 119.414 152.299C120.802 153.041 121.765 154.681 121.765 156.282C121.765 160.851 114.79 162.57 108.548 159.524L106.698 158.665L105.966 159.641C104.926 160.969 104.964 161.164 106.737 162.062C110.359 163.936 115.368 164.522 118.836 163.468C124.848 161.632 126.774 155.15 122.536 151.089C120.994 149.605 118.682 148.668 113.365 147.418C110.128 146.637 108.895 145.778 108.278 143.903C107.662 141.951 108.702 139.959 111.014 138.709C113.288 137.46 117.642 137.577 120.185 138.944L121.881 139.842L122.882 138.827L123.884 137.811L122.921 137.069C120.763 135.351 115.869 134.414 112.093 135Z" fill="#E2B95B"/>
<path d="M145.232 134.961C144.654 135.078 143.266 135.703 142.149 136.405C138.642 138.553 137.371 142.576 139.105 146.051C140.222 148.277 142.187 149.409 147.312 150.698C149.778 151.362 152.167 152.065 152.553 152.299C153.901 153.002 154.903 154.681 154.903 156.243C154.903 160.851 147.967 162.57 141.686 159.524L139.837 158.665L139.105 159.641C138.064 160.969 138.103 161.164 139.875 162.062C143.498 163.936 148.507 164.522 151.975 163.468C157.986 161.632 159.913 155.15 155.674 151.089C154.133 149.605 151.821 148.668 146.503 147.418C143.266 146.637 142.033 145.778 141.417 143.903C140.762 141.951 141.841 139.92 144.153 138.709C146.426 137.499 150.78 137.616 153.323 138.944L155.019 139.842L156.021 138.827L157.023 137.811L156.059 137.069C153.979 135.468 148.468 134.375 145.232 134.961Z" fill="#E2B95B"/>
<path d="M260.677 134.961C257.556 135.742 255.398 137.304 254.358 139.569C252.778 142.849 253.741 146.676 256.554 148.589C257.363 149.136 260.022 150.073 262.527 150.698C264.993 151.362 267.382 152.065 267.767 152.299C269.154 153.041 270.118 154.681 270.118 156.282C270.118 160.851 263.143 162.57 256.901 159.524L255.051 158.665L254.319 159.641C253.279 160.969 253.317 161.164 255.09 162.062C258.712 163.936 263.721 164.522 267.189 163.468C273.2 161.632 275.127 155.15 270.888 151.089C269.347 149.605 267.035 148.668 261.717 147.418C258.481 146.637 257.248 145.778 256.631 143.903C255.976 141.912 257.016 139.92 259.328 138.709C260.793 137.928 261.486 137.811 263.991 137.968C266.033 138.046 267.42 138.358 268.576 138.983L270.233 139.842L271.235 138.827L272.237 137.811L271.274 137.069C270.734 136.64 269.54 136.015 268.576 135.703C266.804 135.039 262.064 134.609 260.677 134.961Z" fill="#E2B95B"/>
<path d="M55.8732 149.37V163.702L62.9247 163.546C69.7451 163.429 70.0148 163.39 72.2498 162.257C83.1161 156.907 83.0391 141.755 72.0571 136.523C69.6295 135.39 69.3983 135.351 62.7321 135.195L55.8732 135.039V149.37ZM70.3616 138.905C72.9819 139.803 75.949 142.888 76.8738 145.622C77.7215 148.277 77.5288 152.221 76.3728 154.447C75.2939 156.634 72.5966 159.055 70.2846 159.953C68.7818 160.539 67.3946 160.695 63.5798 160.695H58.7632L58.6476 149.449L58.5705 138.241H63.5027C67.1249 138.241 68.9744 138.436 70.3616 138.905Z" fill="#E2B95B"/>
<path d="M83.2317 149.37V163.624H92.6723H102.113V162.257V160.891L94.1366 160.812L86.1217 160.695V155.814V150.932L92.2099 150.815L98.2596 150.698V149.37V148.043L92.2099 147.926L86.1217 147.808V142.927V138.046L94.1366 137.928L102.113 137.85V136.484V135.117H92.6723H83.2317V149.37Z" fill="#E2B95B"/>
<path d="M160.683 149.37V163.624H170.124H179.565V162.257V160.891H171.665H163.766V155.814V150.737H169.739H175.711V149.37V148.004H169.739H163.766V142.927C163.766 139.061 163.882 137.85 164.267 137.889C164.498 137.928 168.082 137.928 172.166 137.889L179.565 137.85V136.484V135.117H170.124H160.683V149.37Z" fill="#E2B95B"/>
<path d="M182.647 149.37V163.624H191.895H201.143V162.257V160.891H193.244H185.345V155.814V150.737H191.51H197.675V149.37V148.004H191.51H185.345V142.927V137.85H193.244H201.143V136.484V135.117H191.895H182.647V149.37Z" fill="#E2B95B"/>
<path d="M204.226 149.37V163.624H213.666H223.107V162.257C223.107 161.203 222.953 160.891 222.452 160.891C222.067 160.891 218.483 160.812 214.437 160.773L207.116 160.695L207 147.886L206.923 135.117H205.574H204.226V149.37Z" fill="#E2B95B"/>
<path d="M225.804 149.37V163.624H227.346H228.887V149.37V135.117H227.346H225.804V149.37Z" fill="#E2B95B"/>
<path d="M231.584 149.37V163.624H241.025H250.466V162.257V160.891L242.489 160.812L234.474 160.695V155.814V150.932L240.563 150.815L246.612 150.698V149.37V148.043L240.563 147.926L234.474 147.808V142.927V138.046L242.489 137.928L250.466 137.85V136.484V135.117H241.025H231.584V149.37Z" fill="#E2B95B"/>
</svg>
