<svg width="134" height="103" viewBox="0 0 134 103" fill="none" xmlns="http://www.w3.org/2000/svg">
<path d="M117.776 1.76438C115.959 2.41364 114.758 3.26311 111.38 6.39913C105.789 11.6261 105.517 11.9364 98.3497 21.4464C91.3776 30.6847 89.8935 33.133 87.8057 38.7788C87.0178 40.9203 85.9952 43.4895 85.5625 44.5795C85.0916 45.6301 84.3817 47.6551 83.985 49.0578C83.5088 50.7723 83.1172 51.5502 82.7713 51.4302C82.5022 51.35 81.3494 50.9502 80.1969 50.5113C79.0441 50.1115 77.698 49.7882 77.1586 49.7839C76.4265 49.778 76.2736 49.6205 76.5092 49.0757C77.5312 46.5846 78.2957 42.5683 77.9568 41.5893C77.694 40.728 77.7748 40.2601 78.3597 39.4056C80.1924 36.7258 81.0578 34.5458 81.3104 31.8923C81.6861 28.3025 81.1084 28.2588 79.7703 31.7237C78.629 34.6824 76.0585 38.0593 76.0313 36.6532C76.0142 33.9975 73.5787 30.1898 71.0466 28.8025C70.4326 28.4852 68.6636 28.0413 67.1239 27.8337C62.5439 27.1329 56.5971 28.6861 52.4117 31.6203C50.59 32.9334 38.744 44.4756 36.9533 46.7262C35.5911 48.3944 17.8879 59.9284 14.5632 61.2684C12.978 61.9196 10.7763 62.5657 9.65766 62.7129C7.76771 62.932 7.6139 62.8917 6.27535 61.6312C5.12789 60.5676 4.82467 59.9403 4.6825 58.4551C4.50243 56.8916 4.6218 56.4239 5.35989 55.6879C5.82637 55.184 6.52403 54.6819 6.91029 54.5679C7.95286 54.3029 9.29266 55.4072 9.13067 56.3822C9.04857 57.0063 9.20081 57.2419 9.77879 57.2465C10.3568 57.2512 10.5905 56.9407 10.6751 56.0041C10.9684 53.0775 7.08803 51.6404 4.18208 53.6086C2.2451 54.8817 0.67644 58.2666 0.379965 61.5837C0.0778248 65.6037 0.752516 67.9522 2.70285 69.8034C4.92102 71.8911 5.61177 72.2481 9.03607 72.9006C15.2306 74.083 21.2074 73.5844 27.7758 71.4114C31.5235 70.1919 32.2973 69.8076 36.5186 67.1861C38.3391 66.0292 39.965 65.105 40.0806 65.106C40.1962 65.1069 40.4994 65.7342 40.7246 66.478C40.9498 67.2218 41.9015 68.6744 42.856 69.7756C44.2305 71.3487 45.227 72.0207 48.4141 73.4132C51.9468 74.9647 52.2149 75.1621 51.3262 75.4674C50.283 75.8104 49.657 76.977 50.0752 77.6833C50.4555 78.3112 52.4604 78.1711 53.1211 77.4735C53.8589 76.7765 53.9012 76.3082 53.3261 75.9521C53.1347 75.7944 52.7923 75.2449 52.5655 74.6963C52.339 74.1087 51.5734 73.4777 50.4216 72.9607C45.2765 70.6542 44.5097 70.1794 42.7953 67.7444C41.8812 66.4092 41.1206 65.1534 41.1225 64.9191C41.1244 64.6848 41.7062 64.2209 42.4026 63.875C43.447 63.3757 43.8326 63.3398 44.5998 63.7756C45.1371 64.0533 46.6743 64.5733 48.02 64.9357C49.4044 65.2983 51.0553 66.0536 51.7447 66.5668C53.1231 67.6714 53.7029 67.4417 52.8659 66.1072C52.2949 65.2435 52.3337 65.2047 53.3741 65.2131C55.0695 65.2268 57.8602 63.2185 62.9481 58.2609C68.8516 52.5287 70.1667 51.9144 76.4859 51.9654C80.1082 51.9555 80.955 52.0795 82.2591 52.832C85.1364 54.4173 86.7753 56.6565 89.462 62.7703C93.1335 71.0009 96.8355 75.4436 102.133 77.9466C109.043 81.2046 112.363 85.2928 111.673 89.6221C110.905 94.0679 107.112 96.1461 100.836 95.4707C98.2561 95.2156 97.6415 94.9763 93.8454 92.6416C89.2057 89.7925 87.4768 89.1537 85.7773 89.6477C83.1511 90.3685 79.7405 92.8013 80.3899 93.5095C80.6577 93.746 81.5079 93.4404 82.9797 92.515C86.6203 90.2403 87.3126 90.4021 94.7494 95.2264C96.7427 96.5312 96.7427 96.5312 101.867 96.6115C106.683 96.6894 107.069 96.6144 109.274 95.5778C110.55 95.0023 112.289 94.4305 113.176 94.3595C114.642 94.1761 114.872 94.2951 116.668 96.106C118.236 97.6807 119.041 98.1558 121.156 98.7587C122.578 99.1606 124.382 99.9953 125.11 100.626C126.603 101.81 126.486 101.926 124.449 101.324C119.951 100.038 114.982 99.7633 94.8288 99.718C80.8408 99.7225 74.019 99.8627 72.7064 100.165C70.7761 100.618 70.7375 100.617 69.6687 99.3591L68.5617 98.0614L70.2333 96.2394C71.1663 95.2316 72.8 93.3312 73.9278 92.0515C78.6734 86.5443 86.2164 82.9733 93.3846 82.8748C97.8167 82.7934 97.5849 82.8696 96.7043 82.1596C95.3257 81.0941 87.1914 81.5362 85.8718 82.6971C85.3283 83.2004 84.5198 83.1158 84.5245 82.5301C84.5298 81.8662 81.7535 77.3138 80.4548 75.8974C79.8821 75.2289 78.427 74.0847 77.2771 73.3334C73.4055 70.8028 73.0628 70.2924 73.0873 67.2465C73.1031 65.294 72.9546 64.5899 72.646 64.6264C72.376 64.6633 71.6837 64.5015 71.1464 64.2238C69.765 63.5098 66.4452 64.225 64.1987 65.6518C61.7975 67.1555 54.3825 73.969 54.8821 74.1292C55.4585 74.3291 56.737 73.4803 59.2599 71.2356C63.1022 67.8299 65.6974 66.1716 67.8978 65.6816C71.0631 65.0042 71.7532 65.4393 71.7308 68.2119C71.7157 70.0863 71.8661 70.5561 72.8594 71.6185C73.5088 72.3267 74.9633 73.5491 76.1126 74.3784C78.4116 75.9981 80.0925 77.8081 82.2255 80.9104C83.9014 83.3451 83.9393 83.4235 83.2072 83.4176C82.0897 83.4086 75.6939 88.0824 73.245 90.7182C68.7362 95.5244 67.8399 96.7669 67.8277 98.2898C67.8188 99.3832 68.0848 99.854 69.1571 100.683C69.8845 101.274 70.6137 101.632 70.8459 101.516C71.0395 101.401 81.3676 101.289 93.8141 101.311C112.503 101.344 116.934 101.458 119.357 101.946C125.705 103.247 128.635 103.076 128.031 101.509C127.617 100.334 124.166 98.1971 121.781 97.6312C119.589 97.1058 119.091 96.7894 117.372 94.8229C115.348 92.5806 114.196 92.1418 112.57 93.0269C111.874 93.3727 111.874 93.3337 112.461 92.1668C112.813 91.5058 113.135 89.8682 113.145 88.5795C113.261 83.777 110.169 80.1202 103.145 76.7051C100.804 75.5537 98.8872 74.2886 97.5107 72.9497C95.5989 71.0989 93.1217 67.6813 93.128 66.9003C93.1296 66.7051 94.7363 68.163 96.6857 70.1313C99.5526 73.0052 100.625 73.834 102.507 74.5521C107.502 76.4278 109.998 77.5023 109.996 77.7757C109.992 78.2443 116.21 81.2624 119.899 82.5808C122.857 83.6201 123.627 83.7825 124.4 83.4372C125.599 82.9002 125.603 82.4316 124.429 79.9227C123.444 77.7669 123.293 77.3361 123.792 77.6526C123.945 77.7319 125.368 78.0949 126.984 78.4593C129.407 78.9866 130.178 78.9928 131.568 78.6134C133.731 78.006 134.394 77.0351 133.244 76.2057C132.785 75.8505 132.137 74.9862 131.796 74.2805C131.455 73.5748 129.892 71.4143 128.251 69.4875C126.609 67.5607 124.473 64.8489 123.483 63.435C121.005 60.0175 115.187 55.1672 111.807 53.7731C110.386 53.1759 109.081 52.5795 108.851 52.4215C108.66 52.2637 107.006 51.8208 105.198 51.4157C103.391 51.0106 101.352 50.5646 100.698 50.3641C100.006 50.2023 99.0435 50.1165 98.5798 50.2689C97.7691 50.4577 97.7309 50.4183 98.2753 49.7978C98.5867 49.4098 99.8674 48.2876 101.185 47.3219C103.899 45.274 107.896 41.8696 111.468 38.5399C112.865 37.2625 115.699 34.7078 117.756 32.8499C121.133 29.792 121.601 29.1709 122.74 26.5245C124.39 22.5155 125.306 18.93 126.126 12.8054C127.188 5.2378 126.809 4.5318 122.706 6.84188L120.577 8.03534L120.825 5.88947C121.112 3.70485 120.827 0.890776 120.325 0.964839C120.171 0.963597 119.051 1.34509 117.776 1.76438ZM119.64 4.70834C119.264 8.29813 118.27 12.0782 116.457 17.1013C115.512 19.6712 114.485 22.7871 114.166 24.0342C113.212 27.6584 109.83 31.3802 99.1184 40.8226C96.0135 43.5703 91.7432 47.4802 89.6072 49.5327C86.4224 52.6312 85.6082 53.2495 85.0713 52.9328C83.9204 52.2987 83.9602 52.1428 88.2906 40.7744C89.1572 38.4382 90.5701 35.2473 91.4307 33.6531C92.9561 30.8536 98.5667 23.2055 104.132 16.3772C108.763 10.7128 117.613 2.77844 119.581 2.52093C119.735 2.48313 119.765 3.49873 119.64 4.70834ZM124.013 16.7717C122.369 24.647 121.11 27.9563 118.818 30.2029C114.545 34.3861 106.783 41.2358 101.587 45.3335C99.027 47.3827 96.5828 49.4327 96.1937 49.8982C95.7664 50.3244 95.2238 50.7105 94.954 50.7083C94.6458 50.7058 94.1414 51.1314 93.8291 51.6365C93.3222 52.3744 92.742 52.6431 90.8909 52.8235C88.4612 53.0772 87.6091 53.6171 89.0708 53.9413C89.5707 54.0625 92.3049 54.2798 95.1553 54.4199C102.435 54.8301 105.087 55.7106 108.875 58.9825C110.368 60.2442 111.856 62.0526 113.035 64.0147C114.062 65.7022 116.459 69.4706 118.362 72.3758C121.446 77.0479 123.84 81.2848 123.834 82.0268C123.828 82.6906 118.527 80.6172 113.078 77.8005C111.083 76.7691 107.704 75.2579 105.591 74.4207C101.327 72.7462 99.4885 71.4036 94.7104 66.6007C92.0348 63.8845 91.2345 62.7846 89.8327 59.8053C88.9237 57.8454 87.7452 55.8442 87.2484 55.3325C86.2541 54.3872 85.9926 53.3698 86.7247 53.3757C87.4568 53.3816 90.2892 50.9832 95.8041 45.6384C98.7944 42.7726 102.91 38.9786 104.927 37.2375C109.351 33.4461 110.439 32.2833 112.778 28.9827C115.155 25.6433 119.131 15.2484 119.981 10.1784C120.103 9.39836 120.417 8.73699 120.686 8.73917C120.956 8.74134 122.039 8.32049 123.083 7.86028L125.017 6.93861L125.116 8.93108C125.184 10.0641 124.694 13.4968 124.013 16.7717ZM69.1867 30.0763C70.9178 30.4417 72.8668 32.4491 74.1552 35.1541C75.5955 38.1337 75.5955 38.1337 72.5689 40.7258L70.5126 42.4666L70.7936 41.0629C71.3567 38.1385 68.1104 34.5196 64.0715 33.6279C61.2637 32.9804 57.2144 33.3773 54.7392 34.4899C53.6177 34.9885 51.3712 36.4154 49.7046 37.6126C47.2629 39.3502 46.8375 39.5421 47.4609 38.688C49.0201 36.4745 54.0617 32.4928 56.6136 31.4199C61.1369 29.5818 64.8783 29.1433 69.1867 30.0763ZM64.5946 35.6628C65.4022 35.8646 66.82 36.8523 67.7757 37.7973C69.42 39.3726 69.5337 39.6078 69.2912 41.0118C68.5586 45.8484 69.0845 47.5319 70.5325 44.7708C71.2371 43.4097 72.9082 41.6658 77.5274 37.4853C79.0804 36.0529 79.1577 36.0145 78.4939 37.1026C78.1035 37.7243 76.9353 39.2379 75.8849 40.4791C74.0177 42.651 72.8792 45.2583 72.8616 47.4451C72.855 48.2652 72.6601 48.537 72.0041 48.6489C71.3484 48.7217 71.1536 48.9935 71.1868 49.6576C71.2594 50.2049 71.0642 50.5158 70.7175 50.513C69.3303 50.5018 65.4573 52.9309 63.0876 55.294C61.6506 56.6883 60.3311 57.8492 60.0999 57.8474C59.2522 57.8405 56.6547 55.0078 56.2033 53.6374C55.9402 52.8151 55.8773 51.0573 55.9682 49.3397C56.2265 45.9833 56.8114 45.1288 60.0613 43.5148C61.9566 42.6319 62.304 42.5566 63.6877 42.9973C64.7638 43.3575 65.3383 43.7917 65.602 44.5358C65.9037 45.3583 66.0572 45.4377 66.3303 45.0103C66.9936 44.0003 66.7703 43.0222 65.6237 41.8414C64.668 40.8964 64.1686 40.6971 62.6274 40.6847C59.7757 40.7008 57.8785 41.818 53.1408 46.3489C50.7329 48.6727 47.628 51.4204 46.2321 52.5026C43.5172 54.6676 37.0913 58.2868 34.1152 59.3953C33.1103 59.7777 32.3368 60.123 32.4132 60.2017C32.7951 60.6343 40.1325 58.6628 41.952 57.623C44.6227 56.1605 49.0806 52.877 52.4959 49.8585L55.1347 47.5756L54.8846 49.9168C54.512 53.1161 54.8465 54.6418 56.3361 56.294L57.5581 57.6707L52.542 58.4894C47.9119 59.2331 47.1779 59.4615 42.8829 61.6529C40.3291 62.9601 36.8455 64.8846 35.1413 65.9644C28.7507 69.9743 21.6827 71.9871 14.4002 71.9284C10.3543 71.8958 9.54611 71.7721 7.4341 70.8569C2.90275 68.9068 1.79949 67.1406 1.84103 61.986C1.87345 57.9639 2.38758 56.3278 2.83014 58.7917C3.19815 60.9425 3.95808 62.2764 5.48961 63.4994C6.75329 64.4859 7.06123 64.5274 9.64413 64.392C11.7261 64.2526 13.232 63.8742 15.6295 62.8391C19.3421 61.1898 39.7582 47.7251 45.9248 42.8151C53.9528 36.4362 56.3522 35.1668 60.4366 35.1997C61.9393 35.2118 63.7873 35.422 64.5946 35.6628ZM76.1096 46.0654C75.3479 49.7302 75.3476 49.7693 74.2302 49.7603C73.1898 49.7519 73.1516 49.7125 73.6964 49.053C74.0075 48.7041 74.4809 47.341 74.7607 46.0936C75.2028 43.8321 76.2219 41.6925 76.6423 42.1254C76.7569 42.2435 76.5116 43.9989 76.1096 46.0654ZM105.533 52.9024C109.84 53.9915 112.337 55.027 114.635 56.8029C118.848 60.0001 121.065 62.2049 122.588 64.5213C123.539 65.9739 125.292 68.3702 126.513 69.864C127.734 71.3969 129.527 73.6373 130.519 74.856L132.274 77.0961L131.116 77.3211C129.418 77.6589 127.068 77.5228 124.799 76.9968L122.838 76.5124L119.602 71.5657C117.813 68.8176 115.72 65.5203 114.96 64.2255C114.2 62.8916 112.101 60.4144 110.303 58.7206C107.321 55.8067 106.823 55.4903 103.518 54.3702C101.558 53.6905 98.789 53.0043 97.326 52.8363C95.0545 52.5837 94.7472 52.464 95.3672 52.0394C96.3365 51.3053 100.379 51.6893 105.533 52.9024ZM57.4959 60.5991C56.8741 61.258 55.5946 62.224 54.6269 62.7629C53.6589 63.3409 52.6903 63.997 52.4566 64.3075C52.0675 64.773 51.7595 64.7315 50.4921 64.2136C49.6472 63.8553 47.8393 63.4502 46.4923 63.2441L44.0288 62.9118L46.2333 61.9142C48.1286 61.0313 51.641 60.3176 57.1567 59.6591C57.8124 59.5863 58.3913 59.4738 58.4687 59.4354C58.5843 59.4363 58.1563 59.9405 57.4959 60.5991Z" fill="#BDC9AC"/>
</svg>
