 <svg width="28" height="29" viewBox="0 0 28 29" fill="none" xmlns="http://www.w3.org/2000/svg">
          <path d="M19.6666 9.97713C19.6666 15.4797 15.2723 19.9542 9.8333 19.9542C4.39434 19.9542 0 15.4797 0 9.97713C0 4.47457 4.39434 0 9.8333 0C15.2723 0 19.6666 4.47457 19.6666 9.97713ZM18.2641 9.97713C18.2641 5.20872 14.4811 1.35667 9.8333 1.35667C5.18545 1.35667 1.40247 5.20872 1.40247 9.97713C1.40247 14.7455 5.18545 18.5976 9.8333 18.5976C14.4811 18.5976 18.2641 14.7455 18.2641 9.97713Z" fill="#BDC9AC" />
          <path d="M16.6061 9.9771C16.6061 6.19541 13.582 3.11633 9.83331 3.11633C9.44603 3.11633 9.13208 3.42003 9.13208 3.79467C9.13208 4.1693 9.44603 4.473 9.83331 4.473C12.7909 4.473 15.2037 6.92958 15.2037 9.9771C15.2037 10.3517 15.5176 10.6554 15.9049 10.6554C16.2922 10.6554 16.6061 10.3517 16.6061 9.9771Z" fill="#BDC9AC" />
          <path d="M16.7814 15.8534L26.2625 25.5075C26.5981 25.8492 26.5981 26.4157 26.2628 26.7568C25.9469 27.0784 25.4508 27.0784 25.1352 26.757L15.6535 17.1028C15.3867 16.8312 14.9429 16.8202 14.6621 17.0783C14.3813 17.3363 14.37 17.7657 14.6367 18.0373L24.1184 27.6915C24.987 28.5758 26.4108 28.5758 27.2793 27.6914C28.1292 26.827 28.1292 25.4385 27.2793 24.5731L17.7982 14.919C17.5315 14.6473 17.0876 14.6363 16.8069 14.8944C16.5261 15.1524 16.5147 15.5818 16.7814 15.8534Z" fill="#BDC9AC" />
        </svg>