<svg width="546" height="584" viewBox="0 0 546 584" fill="none" xmlns="http://www.w3.org/2000/svg">
<g clip-path="url(#clip0_157_20194)">
<g filter="url(#filter0_d_157_20194)">
<path d="M470.987 212.714C472.625 215.302 474.069 218.064 475.934 220.45C484.97 232.011 493.58 243.891 499.323 257.769C505.633 273.019 506.38 288.317 497.935 302.999C491.29 314.553 481.629 322.473 469.946 327.625C468.316 328.343 466.713 329.13 464.746 329.756C464.265 328.514 464.136 327.402 464.134 326.185C465.259 325.416 466.285 324.795 467.25 324.081C473.893 319.165 474.033 315.344 467.705 309.587C463.449 306.672 459.415 303.638 455.074 301.243C451.469 299.253 447.503 298.015 443.844 296.339C443.515 295.665 443.096 295.019 442.547 294.546C441.869 293.962 441.083 293.521 440.563 293.002C451.682 294.368 461.234 299.222 470.001 306.043C472.9 308.299 474.647 311.452 475.551 315.13C475.816 316.21 475.894 317.343 476.084 318.629C476.641 318.365 476.957 318.266 477.221 318.082C483.148 313.94 487.961 308.554 492.186 302.548C498.895 293.009 501.367 282.457 498.544 270.73C496.227 261.102 491.721 252.532 486.799 244.257C483.377 238.506 479.503 233.032 475.499 227.72C473.488 225.052 470.564 223.639 466.954 224.924C465.021 223.016 462.988 221.34 461.584 219.193C460.34 217.292 459.256 214.927 459.038 212.663C458.328 205.324 457.45 203.997 450.777 202.427C450.123 202.273 449.466 202.118 448.825 201.913C444.492 200.526 440.164 199.124 435.708 197.616C432.995 195.554 430.256 193.795 427.859 191.606C424.516 188.552 423.976 184.449 426.324 181.485C429.277 178.644 429.701 175.946 427.597 172.618C426.477 170.846 425.14 169.185 423.699 167.697C417.314 161.102 410.855 154.588 404.347 147.89C391.714 135.837 378.24 125.259 363.416 116.869C354.992 112.101 346.079 108.325 337.244 103.988C326.489 98.859 315.274 96.2227 303.676 94.1896C295.524 93.2789 287.591 91.8063 279.646 91.727C268.5 91.6157 257.345 92.5406 245.968 92.9946C231.773 94.2622 218.328 98.0329 204.515 102.608C205.921 103.816 206.935 104.585 207.835 105.484C209.21 106.858 210.506 108.322 211.833 109.883C211.911 110.264 211.992 110.51 212.147 110.903C212.261 111.152 212.3 111.256 212.296 111.61C211.745 117.662 211.317 123.473 210.697 129.26C210.351 132.481 208.988 135.305 205.826 136.1C203.408 136.708 202.458 138.228 201.657 140.479C198.036 150.656 191.676 158.124 182.002 161.886C178.418 163.28 174.587 163.945 170.679 164.905C168.474 164.31 166.458 163.752 164.336 163.051C160.988 160.149 160.806 155.978 159.965 151.658C151.256 160.199 141.869 165.305 129.903 160.791C125.407 158.114 123.447 158.377 119.875 161.99C119.021 162.854 118.172 163.729 117.277 164.543C104.963 175.735 93.2427 187.585 82.7206 200.722C80.182 203.892 78.1052 207.484 75.8252 210.886C75.8344 210.89 75.8305 210.87 75.6909 210.869C75.4593 211.035 75.3673 211.203 75.1323 211.468C71.2161 217.368 67.2722 223.054 63.7162 229.004C59.8878 235.411 56.776 242.232 54.9653 249.8C53.6922 253.253 52.4102 256.564 51.5095 259.99C49.4355 267.88 48.6232 275.918 50.3233 284.006C53.0027 296.754 60.9869 304.867 71.3794 311.024C73.0045 312.467 74.3523 314.232 76.8072 313.552C76.6393 309.171 78.5432 305.9 81.5602 303.534C85.4109 300.515 89.5148 297.864 93.6865 295.034C99.4833 293.173 105.025 290.971 110.739 289.571C121.863 286.848 133.03 284.226 144.282 282.226C153.05 280.667 161.955 279.79 170.834 279.203C179.468 278.631 188.147 278.813 196.698 278.872C194.652 279.421 192.722 279.829 190.775 280.089C187.29 280.555 183.685 280.702 181.812 284.958C175.661 286.401 170.266 289.112 167.404 295.06C165.416 299.191 164.597 303.966 163.098 308.575C161.08 313.99 159.125 319.247 157.378 324.581C148.105 352.894 141.342 381.718 141.927 412.157C141.012 416.748 140.246 421.22 139.286 425.672C136.79 425.513 137.17 423.539 136.944 421.793C137.5 420.37 137.997 419.144 138.548 417.946C139.458 415.969 139.003 414.691 136.966 413.928C137.026 411.067 136.746 408.395 137.169 405.856C137.996 400.894 137.176 396.392 135.01 392.035C135.964 390.749 136.747 389.54 137.53 388.33C140.807 372.542 144.083 356.753 147.366 340.965C147.494 340.353 147.701 339.759 147.855 339.153C148.75 335.637 148.071 334.933 144.651 334.907C119.385 334.715 94.841 330.735 72.1681 317.995C62.9884 312.837 54.8555 306.164 49.5217 296.296C44.0853 286.238 43.566 275.5 45.7288 264.401C49.4475 245.317 58.3582 228.937 68.7728 213.285C81.3728 194.349 96.666 178.191 113.216 163.294C114.761 161.903 116.3 160.503 117.886 159.166C119.514 157.794 119.738 156.338 118.455 154.535C115.984 151.064 116.205 149.199 119.398 146.418C121.813 144.315 124.28 142.281 127.027 140.117C127.213 139.66 127.095 139.301 126.977 138.943C124.074 136.547 120.851 134.478 118.344 131.677C114.803 127.718 115.635 123.615 119.945 120.632C123.945 117.863 128.407 116.748 133.062 116.275C134.145 116.165 135.233 116.104 136.311 116.021C136.174 109.385 138.391 106.45 145.457 105.587C150.574 104.963 155.811 105.465 161.14 105.465C161.182 105.196 161.289 104.782 161.305 104.364C161.668 95.1205 165.928 90.793 174.617 90.9418C180.784 91.0474 186.646 92.8065 192.074 95.7317C197.551 98.6835 202.539 98.6713 208.386 96.3996C226.985 89.174 246.371 86.2845 266.127 86.2981C285.908 86.3118 305.461 88.4941 324.534 94.3158C346.008 100.871 365.63 111.626 383.875 125.269C398.665 136.329 412.633 148.487 425.479 162.079C425.839 162.459 426.285 162.794 426.521 163.251C429.575 169.166 434.625 170.299 440.468 170.957C460.456 173.207 477.731 181.633 490.849 198.4C493.012 201.166 494.757 204.479 496.02 207.83C497.343 211.34 495.807 214.198 492.478 215.597C488.453 217.289 484.413 216.84 480.408 215.341C477.555 214.273 474.679 213.277 471.502 212.15C471.123 212.272 471.055 212.493 470.987 212.714ZM152.174 288.581C141.537 290.193 130.852 291.514 120.281 293.52C113.298 294.845 106.479 297.155 99.1676 298.98C93.1818 300.037 88.158 303.202 83.5834 307.265C82.7794 307.98 82.176 309.071 81.7351 310.111C80.5562 312.894 81.1128 316.58 83.1813 317.632C85.478 318.801 88.0504 319.349 90.6644 320.496C91.9807 321.081 93.2971 321.666 94.9483 322.428C98.1845 323.243 101.405 324.143 104.662 324.847C107.162 325.387 109.709 325.679 112.403 326.432C113.837 326.866 115.272 327.299 117.133 327.804C124.507 328.461 131.876 329.2 139.258 329.741C143.084 330.022 146.337 328.467 148.887 325.353C154.343 318.691 157.319 310.739 159.732 302.174C159.923 300.44 160.114 298.706 160.558 296.69C161.002 295.316 161.446 293.942 162.224 292.472C163.589 290.892 162.324 289.73 161.342 289.279C159.251 288.317 156.996 287.69 154.753 287.229C154.143 287.103 153.338 288.058 152.174 288.581ZM462.272 200.381C464.893 202.309 467.623 204.089 470.111 206.195C475.008 210.338 480.56 212.563 486.713 213.123C491.002 213.514 493.349 209.798 491.268 205.769C490.363 204.018 488.827 202.639 487.366 200.789C486.833 200.219 486.297 199.652 485.768 199.077C482.43 195.448 479.432 191.347 475.694 188.277C464.186 178.823 450.72 175.015 436.467 173.978C432.568 173.694 431.2 175.865 432.833 179.751C433.733 181.891 433.402 183.119 431.436 184.008C430.827 184.283 430.26 184.717 429.745 185.17C428.078 186.634 428.008 188.156 429.842 189.24C434.09 191.75 438.247 194.79 442.822 196.23C449.054 198.19 455.64 198.859 462.272 200.381ZM133.549 138.813C133.927 139.42 134.305 140.027 134.477 140.957C132.694 141.951 130.88 142.885 129.136 143.953C126.883 145.332 124.586 146.669 122.493 148.296C120.191 150.085 120.223 151.822 122.633 153.33C125.37 155.041 128.182 156.819 131.181 157.808C140.286 160.813 148.237 158.077 155.047 151.275C157.922 148.403 160.543 145.239 163.555 142.213C163.647 142.213 163.739 142.213 163.891 142.713C164.009 145.857 164.11 149.003 164.249 152.146C164.535 158.617 168.056 161.586 173.985 160.378C188.811 157.357 198.494 145.821 199.717 129.762C199.771 129.055 200.078 128.371 200.267 127.677C200.654 127.424 201.042 127.17 201.43 126.917C201.859 127.801 202.15 128.813 202.744 129.544C204.553 131.775 205.807 131.623 206.222 128.773C206.979 123.571 207.447 118.288 207.566 113.027C207.625 110.447 205.89 108.588 203.126 107.773C201.526 106.75 199.926 105.727 198.084 104.436C193.521 102.156 189.046 99.6375 184.37 97.6651C179.666 95.6809 174.741 94.5064 169.59 95.6925C166.593 96.3826 165.281 97.9901 165.28 101.303C165.279 102.741 165.401 104.18 165.415 105.619C165.444 108.71 164.379 109.857 161.541 109.115C155.859 107.627 150.183 108.162 144.495 108.718C142.49 108.914 140.678 109.709 140.092 112.084C139.501 114.48 140.969 115.708 142.592 116.835C143.637 117.56 144.632 118.367 145.649 119.137C145.547 119.4 145.444 119.663 145.342 119.926C142.268 119.926 139.191 120.002 136.12 119.909C131.218 119.761 126.583 120.801 122.288 123.324C119.191 125.144 118.817 127.511 121.178 130.341C124.496 134.319 128.522 137.15 133.549 138.813ZM460.198 203.792C460.681 205.863 461.716 207.989 461.538 209.993C461.102 214.907 463.94 217.602 466.828 220.373C468.176 221.666 469.16 221.007 469.581 219.352C469.773 218.598 469.829 217.68 469.612 216.95C467.952 211.373 465.395 206.464 460.198 203.792Z" fill="#442332"/>
</g>
<path d="M440.344 293.018C441.083 293.521 441.869 293.962 442.547 294.546C443.096 295.019 443.515 295.665 443.635 296.33C442.527 296.352 441.772 296.305 441.024 296.199C428.498 294.425 415.973 292.644 403.397 290.655C402.996 290.252 402.636 289.874 402.295 289.893C398.285 290.115 394.267 290.275 390.273 290.691C385.537 291.184 380.835 292.074 376.095 292.483C372.513 292.791 372.074 293.04 372.12 297.158C372.641 300.613 373.162 303.829 373.654 307.257C373.753 308.969 373.881 310.469 374.039 312.192C375.621 320.084 377.173 327.753 378.879 336.182C381.124 332.779 382.981 329.963 384.999 327.14C385.864 326.331 386.569 325.53 387.423 324.62C391.702 321.964 395.832 319.417 400.145 316.879C401.222 316.499 402.116 316.11 403.202 315.757C412.657 318.172 420.845 322.668 427.697 330.076C430.732 334.857 435.067 335.076 439.45 333.844C447.685 331.531 455.826 328.83 464.006 326.29C464.136 327.402 464.265 328.514 464.567 329.774C457.424 334.296 449.328 335.869 441.225 337.411C439.267 337.784 437.306 338.14 434.562 338.649C439.545 345.809 444.191 352.499 448.856 359.174C450.113 360.974 451.552 362.642 452.695 364.519C457.562 372.511 455.805 380.772 448.206 385.855C442.943 389.375 436.986 390.565 430.986 391.477C427.497 392.007 423.941 392.042 420.464 392.632C416.637 393.281 414.541 395.959 414.522 400.109C414.489 407.184 413.55 414.093 411.859 421.055C412.024 421.239 412.025 421.204 411.861 421.146C411.634 421.32 411.573 421.552 411.361 421.893C409.753 424.269 409.149 426.542 411.089 429.02C407.475 436.07 406.972 443.334 408.777 450.801C409.449 453.582 411.206 455.468 414.108 456.04C414.64 456.614 415.099 457.043 415.628 457.638C418.11 459.507 420.335 461.775 422.978 462.776C426.397 464.071 430.152 464.355 433.784 465.261C433.954 466.173 434.102 466.898 434.016 467.655C427.814 468.082 422.006 467.742 416.984 463.629C413.774 461.001 413.55 460.962 410.749 464.132C406.948 468.435 402.794 471.851 396.897 471.86C391.266 471.869 385.903 471.153 382.302 465.772C380.931 463.723 379.229 463.501 377.205 464.041C374.927 464.648 372.661 465.306 370.377 465.886C358.781 468.83 347.163 471.634 335.107 471.941C334.739 472.001 334.445 472.179 333.943 472.423C332.873 472.533 332.009 472.577 330.998 472.458C325.355 472.038 319.862 471.711 314.364 471.564C312.465 471.513 311.645 470.994 312.678 468.899C317.138 468.695 321.361 468.504 325.72 468.46C328.692 469.457 331.477 469.588 334.358 467.904C339.235 467.118 343.971 466.703 348.508 465.46C356.847 463.175 364.04 458.647 369.553 451.392C376.441 442.329 379.917 431.696 381.7 420.381C384.819 400.579 383.89 380.762 379.849 361.321C375.639 341.063 370.274 321.077 365.225 301.027C364.782 299.268 363.196 297.481 361.695 296.448C355.747 292.355 349.021 290.7 342.038 290.387C316.541 289.245 291.035 288.323 265.544 287.051C254.87 286.518 244.225 285.318 233.547 284.228C232.238 282.22 234.202 281.4 234.746 280.072C235.139 280.076 235.363 280.104 235.631 280.335C236.011 280.749 236.328 281.087 236.688 281.154C246.123 282.908 255.62 283.697 265.204 283.412C266.603 283.37 268.135 283.971 269.407 284.681C271.106 285.629 272.086 285.502 272.733 283.363C275.662 283.399 278.356 283.396 281.047 283.505C301.042 284.319 321.033 285.282 341.032 285.928C350.693 286.241 360.375 285.761 370.038 286.012C384.998 286.4 399.983 286.65 414.893 287.859C423.113 288.526 431.202 291.029 439.43 292.802C439.65 293.007 439.806 293.047 440.069 292.995C440.16 292.971 440.344 293.018 440.344 293.018ZM389.951 419.637C389.938 419.816 389.925 419.995 389.782 420.546C389.244 421.996 388.706 423.445 387.889 425.109C386.39 428.204 384.672 431.204 383.436 434.415C380.67 441.602 377.606 448.6 372.798 454.498C370.796 456.953 368.349 458.992 366.105 461.219C367.672 461.771 368.769 461.784 369.846 461.636C376.374 460.737 379.124 458.33 380.458 452.413C382.01 445.53 383.596 444.147 390.67 443.952C394.32 446.752 395.951 446.684 397.966 443.258C403.3 434.189 406.871 424.399 408.374 413.426C410.871 405.307 410.455 396.892 410.437 388.54C410.434 387.627 409.213 386.022 408.436 385.931C405.541 385.593 402.546 385.394 399.684 385.844C397.547 386.181 395.696 387.75 394.81 390.447C393.193 391.259 391.576 392.07 389.772 392.975C389.772 393.239 389.946 394.169 389.743 394.993C388.502 400.052 389.294 404.646 392.245 409.218C391.55 412.654 390.854 416.09 390.232 419.59C390.232 419.59 390.18 419.505 389.951 419.637ZM427.649 381.284C432.335 381.422 437.021 381.685 441.706 381.656C445.279 381.635 448.691 380.616 450.381 376.863C452.006 373.255 450.917 369.784 448.671 366.856C445.653 362.923 442.44 359.162 439.207 355.028C438.914 354.744 438.621 354.46 438.209 353.824C436.036 350.304 433.954 346.715 431.67 343.28C427.217 336.581 422.113 330.496 415.884 325.625C410.822 321.666 405.247 319.613 399.111 322.458C390.839 326.293 385.06 333.076 380.704 341.334C380.31 342.08 380.316 343.23 380.477 344.122C381.159 347.905 381.996 351.657 382.727 355.431C384.104 362.54 385.418 369.664 386.819 376.768C387.299 379.201 388.328 381.267 391.063 381.255C398.042 381.225 405.021 381.126 412.474 381.138C417.379 381.164 422.285 381.191 427.649 381.284ZM385.048 447.833C383.46 451.039 383.09 454.402 383.686 457.973C384.643 463.706 388.628 467.802 393.433 467.824C397.192 467.84 399.759 465.464 399.302 462.16C398.336 455.171 394.914 450.018 388.772 447.236C387.819 446.804 386.464 447.39 385.048 447.833ZM408.478 459.9C409.027 459.277 409.575 458.655 410.352 457.773C406.312 456.521 405.245 453.405 405.04 449.79C404.942 448.042 404.11 447.676 402.726 447.823C400.162 448.096 399.242 449.59 400.082 452.256C400.805 454.548 401.619 456.807 402.345 459.097C403.59 463.032 404.316 463.297 407.44 460.863C407.711 460.652 407.949 460.393 408.478 459.9Z" fill="#442332"/>
<path d="M331.145 472.621C332.009 472.577 332.873 472.533 334.084 472.47C334.681 472.32 334.931 472.189 335.181 472.058C347.163 471.634 358.781 468.83 370.377 465.886C372.661 465.306 374.927 464.648 377.205 464.041C379.229 463.501 380.931 463.723 382.302 465.772C385.903 471.153 391.266 471.869 396.897 471.86C402.794 471.851 406.948 468.435 410.749 464.132C413.55 460.962 413.774 461.001 416.984 463.629C422.006 467.742 427.814 468.082 434.24 467.69C435.941 467.595 437.21 467.638 438.423 467.377C441.678 466.678 443.307 465.149 443.301 462.273C443.296 459.684 444.255 458.051 446.303 456.953C447.523 457.462 448.709 458.231 449.971 458.419C451.955 458.716 453.99 458.622 456.307 458.924C458.264 459.495 459.916 459.835 461.57 460.392C461.393 463.96 459.106 466.878 455.684 467.696C448.42 469.434 441.172 471.327 433.834 472.61C424.936 474.164 415.972 475.366 406.999 476.325C399.087 477.17 391.13 477.587 383.184 477.981C373.374 478.467 363.557 478.874 353.738 479.061C338.006 479.362 322.269 479.622 306.535 479.597C278.836 479.552 251.137 479.309 223.439 479.086C211.495 478.99 199.552 478.763 187.61 478.548C180.3 478.416 172.991 478.23 165.684 477.995C162.922 477.906 160.164 477.648 157.41 477.402C149.826 476.724 142.246 475.991 134.662 475.32C129.99 474.906 125.303 474.667 120.642 474.154C117.413 473.799 114.045 473.496 112.224 469.67C111.881 467.726 111.493 466.004 111.161 464.269C110.147 458.99 109.155 453.706 108.155 448.424C108.35 448.171 108.545 447.917 109.073 447.726C110.208 449.754 111.026 451.712 111.812 453.685C114.875 461.377 119.62 467.136 127.698 468.542C130.706 469.066 133.847 468.716 137.09 468.853C138.928 470.974 141.047 471.511 143.541 471.585C149.128 471.752 154.707 472.231 160.289 472.585C163.206 472.77 166.134 473.219 169.035 473.065C171.352 472.942 173.954 472.914 175.671 470.345C181.965 470.944 188.045 471.515 194.245 472.251C195.6 472.624 196.833 472.989 198.072 473.014C202.956 473.114 207.85 473.318 212.726 473.102C226.419 472.493 240.1 471.269 253.795 471.092C267.077 470.921 280.371 471.727 293.658 472.152C297.272 472.267 300.878 472.667 304.491 472.738C313.073 472.904 321.657 472.956 330.24 473.028C330.54 473.031 330.843 472.763 331.145 472.621Z" fill="#4E5C2C"/>
<path d="M499.274 463.981C500.027 464.469 500.532 465.016 501.136 465.37C502.976 466.451 504.538 468.059 503.892 470.26C503.482 471.655 501.884 473.266 500.543 473.635C490.092 476.51 479.651 479.553 469.053 481.661C458.802 483.701 448.385 484.842 438.01 486.089C429.95 487.058 421.849 487.651 413.757 488.279C407.657 488.753 401.547 489.109 395.436 489.355C384.697 489.787 373.956 490.275 363.213 490.417C340.405 490.72 317.594 490.796 294.785 491.003C279.052 491.147 263.318 491.269 247.587 491.569C238.107 491.75 228.632 492.52 219.154 492.552C204.264 492.601 189.368 492.463 174.485 491.992C165.208 491.699 155.952 490.637 146.685 489.942C141.422 489.548 136.144 489.333 130.894 488.796C123.66 488.058 116.435 487.187 109.227 486.196C102.018 485.206 94.8282 484.054 87.6444 482.872C78.3158 481.337 69.0048 479.68 59.6797 478.12C53.8188 477.14 47.9454 476.244 42.0785 475.305C39.3379 474.866 37.2128 473.459 35.8904 470.579C41.3178 466.137 47.5132 464.314 54.3445 464.179C54.3587 464.578 54.2136 464.802 54.0171 464.945C53.0617 465.644 52.0926 466.321 51.1283 467.005C51.9532 468.064 52.5914 469.493 53.644 470.101C55.541 471.199 57.6294 472.099 59.7377 472.565C67.759 474.341 75.7965 476.06 83.8728 477.516C92.6836 479.104 101.524 480.551 110.389 481.739C120.09 483.04 129.82 484.159 139.564 485.017C150.161 485.951 160.782 486.621 171.403 487.156C177.12 487.444 182.859 487.224 188.589 487.205C239.456 487.029 290.323 486.872 341.19 486.648C351.869 486.601 362.548 486.32 373.226 486.122C381.883 485.961 390.539 485.764 399.196 485.581C399.532 485.574 399.87 485.559 400.204 485.521C407.847 484.645 415.489 483.754 423.134 482.888C429.785 482.136 436.506 481.826 443.075 480.586C455.747 478.194 468.35 475.37 480.941 472.524C483.869 471.863 486.727 470.596 489.431 469.196C490.364 468.712 491.043 467.023 491.2 465.792C491.261 465.311 489.575 464.561 488.67 463.959C488.072 463.562 487.448 463.211 486.836 462.839C490.704 461.48 494.362 463.125 498.091 463.745C498.42 463.8 498.744 463.882 499.274 463.981Z" fill="#4E5C2C"/>
<path d="M112.204 469.886C114.045 473.496 117.413 473.799 120.642 474.154C125.303 474.667 129.99 474.906 134.662 475.32C142.246 475.991 149.826 476.724 157.41 477.402C160.164 477.648 162.923 477.906 165.684 477.995C172.991 478.23 180.3 478.416 187.61 478.548C199.553 478.763 211.495 478.99 223.439 479.086C251.137 479.309 278.836 479.552 306.535 479.597C322.27 479.622 338.006 479.362 353.738 479.061C363.557 478.874 373.374 478.467 383.184 477.981C391.13 477.587 399.088 477.17 406.999 476.325C415.972 475.366 424.936 474.164 433.835 472.609C441.173 471.327 448.42 469.434 455.684 467.696C459.107 466.878 461.393 463.96 461.779 460.395C465.283 460.604 468.574 461.105 471.88 461.423C473.912 461.618 476.053 463.286 476.165 465.246C476.29 467.443 474.884 468.205 473.17 468.947C464.315 472.785 454.996 474.445 445.622 475.842C437.682 477.026 429.735 478.187 421.767 479.133C413.131 480.157 404.483 481.278 395.812 481.709C384.732 482.259 373.624 482.138 362.528 482.349C355.39 482.484 348.254 482.716 341.116 482.872C331.957 483.072 322.798 483.215 313.64 483.43C308.186 483.558 302.734 483.794 297.28 483.953C290.48 484.151 283.679 484.494 276.879 484.466C262.919 484.407 248.961 484.115 235.001 483.969C215.315 483.764 195.624 483.814 175.944 483.343C164.567 483.071 153.204 482.039 141.84 481.25C135.498 480.81 129.129 480.47 122.841 479.55C110.763 477.782 98.7196 475.724 86.6906 473.601C81.2541 472.641 75.857 471.368 70.4977 469.989C67.2004 469.141 66.2694 467.537 66.2237 463.997C66.2132 463.188 66.1589 462.379 66.1248 461.57C66.7958 461.387 67.4668 461.204 68.4462 460.875C70.4422 460.358 72.13 459.987 73.8178 459.616C76.7951 459.695 79.7724 459.774 83.0631 459.803C88.2179 464.22 92.9412 468.489 100.15 468.024C104.118 467.767 108.183 469.209 112.204 469.886Z" fill="#4E5C2C"/>
<path d="M136.928 468.765C133.847 468.716 130.706 469.066 127.698 468.542C119.62 467.136 114.875 461.377 111.812 453.685C111.026 451.712 110.208 449.754 109.231 447.701C108.379 442.477 107.795 437.323 106.992 432.209C106.34 428.055 104.496 426.436 100.462 426.108C97.9533 425.904 95.4367 425.808 92.8318 425.45C97.1402 422.734 101.541 420.232 105.966 417.715C105.036 417.637 103.885 417.659 102.784 417.418C101.273 417.088 99.313 417.709 98.7986 415.369C106.112 414.542 113.226 413.772 120.55 413.046C121.575 413.233 122.392 413.363 123.204 413.524C127.756 414.427 132.292 415.675 136.944 414.177C139.003 414.691 139.458 415.969 138.548 417.946C137.997 419.144 137.5 420.37 136.78 421.807C134.439 424.452 131.522 424.503 128.737 424.981C124.903 425.638 123.498 427.728 124.166 431.729C124.402 433.144 124.579 434.58 124.932 435.962C126.585 442.429 128.289 448.881 129.881 455.484C129.726 456.343 129.369 457.272 129.66 457.728C130.641 459.266 131.952 460.561 132.951 462.088C134.363 464.248 135.61 466.533 136.928 468.765ZM113.748 445.462C115.852 453.889 118.928 461.49 128.141 464.795C123.45 456.934 120.886 448.902 118.934 440.123C118.474 433.239 118.088 426.347 117.468 419.48C117.385 418.568 116.231 417.265 115.362 417.029C112.586 416.275 110.199 418.231 110.19 421.284C110.166 429.398 111.168 437.366 113.748 445.462Z" fill="#442332"/>
<path d="M451.622 449.853C452.905 450.648 453.912 450.35 454.953 449.205C458.065 445.783 461.243 442.428 464.442 439.098C465.919 437.562 465.823 436.275 464.731 434.384C463.504 432.259 462.71 429.773 462.106 427.337C461.659 425.535 463.055 424.241 464.51 424.243C465.352 424.244 466.582 425.59 466.95 426.613C467.692 428.677 467.964 430.934 468.54 433.631C470.36 431.155 472.082 428.836 473.78 426.498C480.525 417.217 485.751 406.939 490.821 396.572C492.317 393.512 493.429 390.238 494.827 386.716C494.943 386.257 494.948 386.143 495.085 385.958C495.297 385.59 495.378 385.294 495.45 384.998C495.441 384.999 495.439 385.016 495.439 385.016C497.443 381.829 499.447 378.642 501.451 375.456C501.995 374.59 502.542 373.726 503.452 372.282C503.913 379.775 499.402 384.915 498.005 391.615C499.651 390.996 500.917 390.311 502.253 390.073C503.759 389.805 505.374 389.692 506.849 390.007C507.562 390.159 508.514 391.436 508.532 392.224C508.55 393.022 507.665 394.387 506.97 394.561C504.473 395.185 501.897 395.605 499.334 395.739C495.642 395.931 493.18 398.431 493.059 402.911C494.07 402.546 494.956 401.987 495.862 401.947C497.79 401.862 499.861 401.609 501.631 402.224C504.207 403.119 504.36 405.785 501.879 407.053C498.879 408.586 495.895 410.838 492.148 409.012C490.393 408.157 488.963 409.137 487.893 410.851C482.297 419.81 476.614 428.708 471.08 437.71C470.319 438.948 469.884 440.655 469.905 442.136C469.927 443.771 469.432 444.489 468.076 444.742C464.722 445.367 462.352 447.523 460.28 450.255C456.792 454.852 453.281 456.23 448.989 454.485C449.78 452.748 450.701 451.301 451.622 449.853Z" fill="#4E5C2C"/>
<path d="M73.7371 459.458C72.1298 459.987 70.442 460.358 68.5525 460.726C63.0027 452.827 58.3456 444.507 55.2224 435.314C54.197 432.296 53.0333 429.823 49.8259 428.851C48.3649 428.408 46.9248 427.274 45.8894 426.051C45.1939 425.231 44.7176 423.48 45.0754 422.559C45.4283 421.652 46.9088 421.136 47.9839 420.702C48.6374 420.438 49.4602 420.653 50.7744 420.653C50.2494 416.888 49.8156 413.296 49.2386 409.73C47.6925 400.177 45.6564 390.683 46.0668 380.894C46.1748 378.317 46.6043 375.755 47.4487 373.17C48.4818 379.871 49.5416 386.567 50.5425 393.274C52.8503 408.737 55.6114 424.069 61.588 438.508C64.7068 446.044 68.6332 453.034 73.7371 459.458Z" fill="#4F5D2C"/>
<path d="M137.347 388.342C136.747 389.54 135.964 390.749 134.87 391.95C133.016 390.532 131.474 389.122 129.865 387.542C127.815 383.647 125.282 380.576 121.16 379.103C115.462 375.589 109.907 374.853 104.494 379.207C99.2053 383.461 94.7711 388.586 91.2119 394.766C90.0158 396.556 88.968 398.265 87.7711 400.075C85.5215 403.942 83.1841 407.584 81.3804 411.506C79.1129 416.436 80.7959 419.335 85.9388 420.326C86.6035 421.899 87.266 423.265 87.9284 424.632C86.2132 424.223 84.452 423.964 82.7914 423.379C77.5857 421.543 75.1489 417.225 77.226 411.832C79.4101 406.161 82.1811 400.619 85.4697 395.6C89.2091 389.894 93.4952 384.5 98.0953 379.557C107.144 369.835 117.304 369.333 127.362 377.949C130.935 381.009 133.915 384.862 137.347 388.342Z" fill="#442332"/>
<path d="M451.642 449.629C450.701 451.301 449.78 452.748 448.797 454.362C448.005 455.251 447.275 455.973 446.424 456.824C444.255 458.051 443.296 459.684 443.301 462.273C443.307 465.149 441.678 466.678 438.423 467.377C437.21 467.638 435.941 467.595 434.473 467.657C434.102 466.898 433.954 466.173 433.945 465.16C435.635 464.288 437.186 463.704 439.141 462.969C437.817 461.684 436.778 460.676 435.523 459.458C436.539 459.019 437.142 458.729 437.764 458.494C443.437 456.344 447.194 452.128 449.329 446.187C452.032 438.663 450.52 436.351 442.89 436.126C442.917 435.203 442.981 434.492 443.171 433.663C446.484 430.077 447.219 425.609 447.273 421.092C447.346 414.892 444.872 412.05 440.036 413.259C433.958 414.779 428.473 417.714 425.754 424.451C425.382 425.372 424.6 426.104 423.737 427.299C423.264 426.102 423.067 425.624 422.885 425.139C421.138 420.48 419.628 420.09 416.161 423.52C414.437 425.226 412.825 427.06 411.162 428.837C409.15 426.542 409.753 424.27 411.536 421.878C411.915 421.568 411.97 421.386 412.025 421.204C412.025 421.204 412.024 421.239 412.008 421.236C419.213 418.271 426.445 415.338 433.645 412.316C434.798 411.832 435.784 410.908 436.885 410.261C442.416 407.009 446.641 408.642 448.882 414.974C450.991 420.937 450.996 426.887 448.345 432.893C448.945 433.395 449.516 433.892 450.104 434.364C452.697 436.444 453.821 439.179 453.179 442.605C452.752 444.888 452.173 447.14 451.642 449.629Z" fill="#442332"/>
<path d="M112.224 469.67C108.183 469.209 104.118 467.767 100.15 468.024C92.9412 468.489 88.2179 464.22 83.2409 459.661C80.5788 454.433 78.3845 449.232 79.281 443.156C80.0882 437.685 83.1956 434.878 88.3566 435.38C94.0531 435.934 98.6652 438.991 102.788 442.995C104.53 444.688 106.154 446.52 107.994 448.356C109.155 453.706 110.147 458.99 111.161 464.269C111.494 466.004 111.881 467.726 112.224 469.67ZM92.3683 440.535C91.4258 440.155 90.5052 439.687 89.5371 439.408C84.8057 438.046 81.9659 440.361 82.5252 445.584C82.8227 448.363 83.7373 451.231 84.9965 453.695C87.9965 459.564 92.5637 463.568 98.8631 464.776C101.663 465.313 104.586 465.069 106.436 462.368C108.181 459.821 107.303 457.047 106.195 454.435C106.022 454.026 105.804 453.637 105.586 453.252C102.451 447.717 98.1466 443.548 92.3683 440.535Z" fill="#442332"/>
<path d="M472.027 411.132C472.436 412.865 472.751 414.633 473.275 416.326C474.201 419.311 473.11 421.776 471.702 424.182C471.028 425.332 470.182 425.667 468.956 424.896C465.559 422.76 463.266 415.645 464.796 411.755C465.923 408.886 467.072 408.485 471.051 409.679C470.347 406.874 469.578 404.176 469.007 401.431C468.418 398.594 469.332 396.722 471.426 395.986C473.514 395.253 475.37 396.104 476.525 398.683C477.754 401.426 478.769 404.28 479.814 407.113C480.657 409.396 480.631 411.564 478.522 413.108C476.435 414.635 475.124 412.792 473.66 411.691C473.319 411.435 472.969 411.192 472.39 410.811C472.114 410.83 472.07 410.981 472.027 411.132Z" fill="#4E5C2C"/>
<path d="M55.0383 444.5C54.0007 447.693 52.5195 448.606 48.5717 447.919C43.8171 447.091 39.2694 445.556 35.5078 442.06C33.1339 439.853 32.3554 437.424 33.3951 434.962C34.5301 432.276 37.401 430.751 40.3007 431.411C47.2677 432.998 52.2542 437.213 55.0383 444.5Z" fill="#4F5D2C"/>
<path d="M68.3993 408.929C65.6632 412.803 62.8484 414.338 60.0501 413.066C58.8082 412.501 57.4036 411.208 56.985 409.909C55.2922 404.656 56.2356 399.796 59.9092 395.742C62.2726 393.134 65.3285 392.401 67.688 393.68C70 394.934 71.6093 398.474 70.9232 401.797C70.4279 404.196 69.3393 406.455 68.3993 408.929Z" fill="#4E5C2C"/>
<path d="M481.279 359.748C477.901 355.909 478.179 353.843 481.774 350.528C483.309 349.111 484.417 347.091 485.505 345.204C488.56 339.909 494.162 339.12 497.947 343.548C500.497 346.531 500.41 351.481 497.646 354.236C493.957 357.914 489.361 359.623 484.536 360.628C483.584 360.827 482.472 360.15 481.279 359.748ZM493.117 352.551C495.39 352.288 495.889 350.566 495.949 348.539C496.012 346.433 495.185 344.566 493.253 344.3C492.04 344.133 490.255 344.909 489.45 345.921C487.542 348.318 489.296 351.643 493.117 352.551ZM482.838 354.079C483.161 355.25 483.246 356.597 483.861 357.553C484.839 359.074 487.716 358.976 488.175 357.5C488.736 355.695 488.55 353.841 486.91 352.686C485.367 351.599 483.881 351.626 482.838 354.079Z" fill="#E2B95B"/>
<path d="M492.02 448.815C489.593 451.677 486.735 452.408 483.47 451.634C481.837 451.246 480.181 450.931 478.585 450.407C474.819 449.168 473.427 447.125 474.005 443.913C474.647 440.348 477.111 438.191 480.785 438.76C483.795 439.227 486.812 440.188 489.618 441.458C492.915 442.95 493.406 444.919 492.02 448.815Z" fill="#4F5D2C"/>
<path d="M32.4738 409.435C32.0255 406.694 32.2527 404.361 34.2905 402.615C36.1037 401.063 38.104 400.598 40.154 401.881C43.5296 403.993 46.0558 406.981 47.2674 411.008C48.3534 414.617 46.8153 416.854 43.2615 416.879C38.2865 416.913 34.9061 414.105 32.4738 409.435Z" fill="#4F5D2C"/>
<path d="M88.1452 363.693C91.6455 367.75 91.4777 373.261 87.9038 376.754C84.5797 380.002 79.384 379.735 76.386 376.161C74.2787 373.649 74.0104 368.853 75.7936 365.572C77.4034 362.609 81.0579 361.027 84.5829 361.949C85.772 362.26 86.859 363.018 88.1452 363.693ZM87.4574 370.928C87.258 369.545 87.4017 367.948 86.7885 366.823C85.4578 364.382 82.686 364.082 80.45 365.802C78.6918 367.154 78.1184 370.967 79.3898 372.851C80.849 375.013 83.7853 375.33 85.8622 373.454C86.4822 372.894 86.8921 372.068 87.4574 370.928Z" fill="#E2B95B"/>
<path d="M454.267 395.482C455.296 395.028 456.137 394.571 457.029 394.368C460.856 393.494 464.363 395.684 465.049 399.303C465.933 403.973 463.85 407.444 459.659 408.282C456.032 409.007 453.745 408.143 452.478 405.568C451.118 402.803 451.875 398.156 454.267 395.482ZM459.573 397.508C458.99 397.501 458.39 397.395 457.827 397.504C455.71 397.915 454.631 399.523 455.02 401.748C455.394 403.889 456.815 404.822 458.671 404.436C459.654 404.231 460.954 403.417 461.293 402.524C461.961 400.761 461.935 398.792 459.573 397.508Z" fill="#E2B95B"/>
<path d="M482.101 395.448C481.304 392.443 480.325 389.635 480.061 386.752C479.942 385.451 480.963 383.286 481.985 382.823C482.99 382.369 485.116 383.137 485.939 384.134C488.666 387.434 489.833 391.398 488.724 395.849C488.239 397.798 486.954 398.538 485.268 397.829C484.15 397.358 483.222 396.371 482.101 395.448Z" fill="#4E5C2C"/>
<path d="M78.2027 174.49C74.2173 172.929 72.6405 169.645 73.8185 165.696C74.9691 161.839 77.8123 160.136 81.4253 161.141C83.8916 161.826 86.0439 165.044 85.9376 167.885C85.811 171.271 83.3918 174.244 80.4117 174.608C79.7503 174.689 79.0685 174.58 78.2027 174.49ZM77.4073 165.188C76.0146 166.302 76.0633 167.804 77.0588 168.934C77.8127 169.789 79.295 170.724 80.13 170.459C81.0125 170.179 81.8784 168.601 82.1027 167.445C82.5614 165.083 80.5009 163.986 77.4073 165.188Z" fill="#E2B95B"/>
<path d="M88.0588 424.781C87.266 423.265 86.6035 421.899 85.9958 420.157C87.059 419.057 88.0673 418.333 89.2795 417.592C92.5221 416.859 95.5609 416.143 98.5996 415.426C99.3129 417.708 101.272 417.088 102.784 417.418C103.885 417.659 105.036 417.637 105.965 417.715C101.54 420.232 97.1402 422.734 92.635 425.379C91.0831 425.324 89.6361 425.127 88.0588 424.781Z" fill="#442332"/>
<path d="M489.639 422.695C488.575 421.795 486.969 420.935 486.995 420.137C487.041 418.727 487.752 416.9 488.771 416.054C491.369 413.895 494.592 413.704 497.674 414.534C498.745 414.822 500.299 416.367 500.267 417.283C500.216 418.744 499.349 420.643 498.246 421.496C495.777 423.405 492.812 423.645 489.639 422.695Z" fill="#4E5C2C"/>
<path d="M77.1242 146.125C79.8632 148.203 80.4583 152.133 78.6338 155.014C76.9389 157.69 73.0906 158.48 70.5708 156.668C67.7627 154.65 67.8379 148.615 70.9879 146.923C72.6853 146.011 74.9422 146.291 77.1242 146.125ZM71.8828 152.692C73.0339 154.231 74.594 154.583 75.7602 153.182C76.4739 152.324 76.4978 150.662 76.4789 149.366C76.4746 149.068 74.9072 148.382 74.2627 148.591C72.6766 149.106 70.9511 149.845 71.8828 152.692Z" fill="#E2B95B"/>
<path d="M494.953 386.03C494.948 386.143 494.943 386.257 494.919 386.54C491.093 384.318 488.61 381.001 488.907 376.051C488.981 374.823 489.576 373.385 490.375 372.502C492.182 370.502 494.848 371.196 495.362 373.902C495.836 376.395 495.668 379.036 495.699 381.613C495.711 382.588 495.491 383.567 495.408 384.78C495.439 385.016 495.441 384.999 495.311 385.058C495.105 385.422 495.029 385.726 494.953 386.03Z" fill="#4E5C2C"/>
<path d="M123.516 359.216C126.102 357.566 129.559 357.521 130.988 358.968C132.507 360.506 132.9 363.951 131.867 366.29C130.757 368.801 128.65 369.374 126.406 369.253C124.205 369.135 122.743 367.526 122.604 365.284C122.483 363.339 123.088 361.343 123.516 359.216ZM126.374 360.797C124.71 362.199 124.922 363.847 126.352 365.031C127.734 366.175 129.065 365.263 129.881 363.839C130.179 363.319 130.287 362.042 130.095 361.94C129.059 361.387 127.902 361.095 126.374 360.797Z" fill="#E2B95B"/>
<path d="M67.0571 418.944C67.2912 422.399 65.2235 426.018 62.476 426.903C61.62 427.179 60.3086 427.159 59.7044 426.627C59.1264 426.118 58.9282 424.733 59.0328 423.793C59.3317 421.104 60.3974 418.818 62.8804 417.642C64.4977 416.875 65.9701 416.871 67.0571 418.944Z" fill="#4E5C2C"/>
<path d="M72.0986 363.095C72.3579 365.546 70.9705 366.856 69.2877 366.805C68.269 366.775 66.7694 365.236 66.4774 364.087C66.2713 363.276 67.5177 361.529 68.4934 361.006C70.0512 360.171 71.3342 361.214 72.0986 363.095Z" fill="#E2B95B"/>
<path d="M477.419 342.222C476.131 340.456 477.296 339.505 478.333 338.87C478.869 338.541 480.176 338.718 480.509 339.181C480.931 339.767 481.018 341.024 480.716 341.732C480.049 343.295 478.793 343.148 477.419 342.222Z" fill="#E2B95B"/>
<path d="M127.058 139.128C127.095 139.301 127.213 139.66 127.194 140.057C127.085 139.835 127.112 139.574 127.058 139.128Z" fill="#722B34"/>
<path d="M435.834 197.728C440.164 199.125 444.492 200.526 448.825 201.913C449.466 202.118 450.123 202.273 450.777 202.427C457.45 203.997 458.328 205.324 459.038 212.664C459.256 214.927 460.34 217.292 461.584 219.194C462.988 221.34 465.021 223.016 466.974 225.114C470.095 230.096 472.545 235.147 473.441 240.788C474.294 246.153 474.808 251.597 475.167 257.029C475.422 260.888 473.84 263.018 470.385 263.821C464.424 265.206 458.461 266.691 452.427 267.581C441.009 269.266 429.554 270.705 418.088 271.968C409.436 272.921 400.744 274.023 392.068 274.035C373.076 274.061 354.08 273.542 335.091 273.023C328.324 272.837 321.569 272.045 314.815 271.459C304.812 270.591 294.808 269.728 284.815 268.736C276.577 267.919 268.356 266.917 260.127 266.001C248.907 264.753 237.696 263.401 226.463 262.307C220.293 261.707 214.084 261.213 207.896 261.263C198.672 261.337 189.431 261.642 180.237 262.406C173.174 262.994 166.098 264.05 159.164 265.6C149.265 267.812 139.278 269.992 129.725 273.442C120.855 276.645 112.46 281.389 103.947 285.663C99.7451 287.773 96.0342 290.712 93.5095 295.054C89.5147 297.864 85.4108 300.515 81.5601 303.534C78.5432 305.9 76.6392 309.171 76.8071 313.552C74.3523 314.233 73.0045 312.467 71.3821 310.822C70.8038 309.484 70.5294 308.257 69.8083 307.556C63.954 301.862 61.826 294.366 61.2478 286.38C60.4462 275.307 61.7857 264.555 67.3689 254.697C67.5391 254.558 67.6078 254.503 67.8786 254.481C77.3363 253.343 84.7867 248.891 89.926 240.468C94.0704 233.675 95.3712 226.34 93.0179 218.257C92.6658 216.784 92.3129 215.514 91.9887 214.046C95.5825 206.372 100.741 201.381 109.101 201.733C112.261 201.865 115.423 202.296 118.556 202.799C130.399 204.699 141.437 208.812 151.317 216.276C152.751 217.36 154.874 217.4 156.719 218.109C157.026 218.857 157.261 219.438 157.562 219.977C160.224 224.759 162.355 225.984 167.132 224.022C170.75 222.536 173.983 219.975 177.628 217.9C183.07 218.091 188.27 218.35 193.472 218.442C206.254 218.669 219.038 218.79 231.82 219.011C238.454 219.126 245.087 219.362 251.72 219.544C251.972 219.551 252.225 219.563 252.477 219.585C260.477 220.29 268.468 221.334 276.481 221.606C284.281 221.871 292.105 221.405 299.916 221.15C308.888 220.856 317.857 220.461 326.827 220.069C330.091 219.927 333.349 219.564 336.614 219.481C344.341 219.286 352.071 219.207 359.8 219.064C364.55 218.976 369.312 219.057 374.046 218.7C379.542 218.286 385.019 217.531 390.493 216.822C396.375 216.059 402.325 215.58 408.098 214.251C416.29 212.366 424.323 209.785 432.875 211.343C434.238 211.591 435.913 211.016 437.211 210.323C441.049 208.273 441.36 205.477 438.521 202.119C437.438 200.837 436.719 199.202 435.834 197.728ZM364.292 233.675C361.939 237.28 361.848 240.538 364.006 243.896C367.154 248.795 374.403 251.776 379.829 250.404C382.924 249.622 384.554 247.522 384.732 244.151C385.013 238.817 382.519 235.207 378.307 232.925C373.717 230.438 369.038 229.762 364.292 233.675Z" fill="#DF824D"/>
<path d="M435.708 197.616C436.719 199.202 437.438 200.837 438.521 202.119C441.36 205.477 441.049 208.273 437.211 210.323C435.913 211.016 434.238 211.591 432.875 211.342C424.323 209.785 416.29 212.366 408.099 214.251C402.325 215.58 396.375 216.059 390.493 216.822C385.019 217.531 379.542 218.285 374.046 218.7C369.313 219.057 364.55 218.976 359.8 219.064C352.071 219.207 344.342 219.286 336.614 219.481C333.349 219.564 330.091 219.927 326.827 220.069C317.858 220.461 308.888 220.856 299.916 221.15C292.105 221.405 284.281 221.871 276.481 221.606C268.468 221.334 260.477 220.29 252.477 219.585C252.225 219.563 251.973 219.551 251.72 219.544C245.087 219.362 238.455 219.126 231.82 219.011C219.038 218.79 206.254 218.669 193.472 218.442C188.27 218.35 183.07 218.091 177.658 217.706C178.188 215.694 179.217 213.947 179.575 212.055C179.846 210.625 179.689 208.703 178.966 207.537C177.157 204.62 174.318 203.255 171.064 204.028C166.683 205.069 162.856 207.306 160.292 211.435C158.991 213.529 157.877 215.756 156.678 217.922C154.874 217.4 152.751 217.36 151.317 216.276C141.437 208.812 130.399 204.699 118.556 202.799C115.424 202.296 112.261 201.865 109.101 201.733C100.741 201.381 95.5827 206.372 91.8508 213.95C91.0891 213.222 90.494 212.392 89.9338 211.363C96.2111 203.256 102.398 195.296 108.736 187.475C110.248 185.609 112.326 184.28 114.031 182.576C119.002 177.61 123.916 172.581 128.937 167.75C129.668 169.433 130.315 170.943 130.755 172.467C128.955 173.157 127.096 173.48 125.825 174.581C123.074 176.964 122.92 180.705 122.5 184.128C122.413 184.841 123.643 186.381 124.361 186.452C127.068 186.722 129.856 186.864 132.538 186.467C138.317 185.611 143.311 183.4 144.772 176.287C148.381 174.657 152.022 173.422 155.141 171.308C158.496 169.034 161.362 165.934 164.442 163.195C166.458 163.752 168.474 164.31 170.699 165.098C173.385 171.594 178.014 176.123 184.62 175.299C185.237 177.343 184.845 179.978 187.373 180.384C189.983 180.804 192.672 180.861 195.317 180.771C199.046 180.643 202.675 179.88 206.504 180.849C211.44 182.098 216.537 182.941 221.6 183.219C230.74 183.72 239.905 183.667 249.06 183.857C250.708 183.891 252.364 184.133 254 184.013C258.585 183.677 263.155 182.976 267.741 182.848C272.174 182.724 276.621 183.277 281.061 183.269C285.922 183.26 290.782 182.892 295.644 182.788C299.728 182.702 303.821 182.91 307.9 182.737C313.333 182.506 318.779 182.241 324.181 181.614C333.474 180.536 342.719 178.988 352.017 177.97C360.831 177.006 369.709 176.701 378.515 175.676C386.138 174.789 393.692 173.231 401.293 172.107C404.198 171.678 407.107 169.78 410.09 171.753C412.722 173.496 415.608 173.769 418.728 173.686C421.299 176.377 423.733 178.965 426.167 181.553C423.976 184.449 424.516 188.551 427.859 191.606C430.256 193.795 432.995 195.554 435.708 197.616Z" fill="#DF824D"/>
<path d="M233.567 284.422C244.225 285.318 254.87 286.518 265.544 287.051C291.035 288.323 316.541 289.244 342.038 290.387C349.021 290.7 355.747 292.355 361.695 296.448C363.196 297.481 364.782 299.268 365.225 301.027C370.274 321.077 375.639 341.063 379.85 361.321C383.89 380.761 384.819 400.579 381.7 420.381C379.917 431.696 376.441 442.329 369.553 451.392C364.04 458.647 356.848 463.175 348.508 465.46C343.971 466.703 339.235 467.118 334.274 467.693C332.919 463.537 333.582 461.746 337.23 459.615C342.446 456.568 347.23 452.873 348.991 446.587C350.194 442.294 350.231 437.626 350.951 433.189C352.711 434.916 353.338 433.499 354.107 432.232C362.789 417.922 366.898 402.058 367.434 385.186C367.684 377.327 367.266 369.377 366.412 361.561C365.454 352.789 362.088 345.086 354.503 340.451C349.555 337.427 344.592 334.336 339.368 331.945C332.972 329.018 326.241 327.038 319.126 326.478C314.747 317.547 311.658 316.782 304.676 322.79C297.914 321.878 291.368 320.922 284.803 320.141C277.733 319.3 270.651 318.556 263.564 317.892C255.39 317.127 247.214 316.217 239.021 315.893C232.401 315.631 225.742 315.93 219.123 316.377C212.617 316.817 206.096 317.456 199.66 318.541C187.766 320.548 176.207 323.88 165.377 329.743C164.417 330.263 163.005 329.831 161.789 329.614C162.056 327.822 162.265 326.236 162.63 324.693C163.901 319.321 165.175 313.961 163.256 308.453C164.597 303.966 165.416 299.191 167.404 295.06C170.266 289.112 175.661 286.401 182.027 284.98C183.764 284.766 185.091 284.487 186.427 284.424C195.06 284.012 203.695 283.648 212.564 283.303C215.387 283.48 217.974 283.63 220.563 283.764C224.897 283.988 229.232 284.203 233.567 284.422Z" fill="#BDC9AC"/>
<path d="M93.6865 295.034C96.0343 290.712 99.7452 287.773 103.947 285.663C112.46 281.389 120.855 276.645 129.725 273.442C139.278 269.992 149.265 267.812 159.164 265.6C166.098 264.05 173.174 262.994 180.237 262.406C189.431 261.642 198.672 261.337 207.896 261.263C214.084 261.213 220.293 261.707 226.463 262.307C237.696 263.401 248.907 264.753 260.127 266.001C268.356 266.917 276.577 267.919 284.815 268.736C294.808 269.728 304.812 270.591 314.815 271.459C321.569 272.045 328.324 272.837 335.091 273.022C354.08 273.542 373.076 274.061 392.069 274.035C400.744 274.023 409.437 272.921 418.088 271.968C429.554 270.705 441.009 269.266 452.427 267.581C458.461 266.691 464.424 265.206 470.385 263.821C473.841 263.018 475.423 260.888 475.167 257.029C474.808 251.597 474.295 246.153 473.442 240.788C472.545 235.147 470.095 230.096 467.149 225.14C470.564 223.639 473.488 225.052 475.5 227.72C479.503 233.032 483.377 238.506 486.799 244.257C491.721 252.532 496.227 261.102 498.544 270.73C501.367 282.457 498.895 293.009 492.186 302.548C487.961 308.554 483.148 313.94 477.221 318.082C476.957 318.266 476.641 318.365 476.084 318.629C475.894 317.343 475.816 316.21 475.551 315.13C474.647 311.452 472.9 308.299 470.001 306.043C461.234 299.222 451.682 294.368 440.563 293.002C440.344 293.018 440.16 292.971 439.984 292.902C439.669 292.736 439.517 292.693 439.351 292.704C431.202 291.029 423.113 288.526 414.893 287.859C399.983 286.65 384.998 286.4 370.038 286.012C360.375 285.761 350.693 286.241 341.032 285.928C321.033 285.282 301.042 284.319 281.047 283.505C278.356 283.396 275.662 283.399 272.531 283.311C267.399 282.757 262.708 282.205 258.009 281.748C256.424 281.594 254.811 281.771 253.222 281.644C247.341 281.174 241.465 280.641 235.588 280.131C235.363 280.104 235.139 280.076 234.516 280.029C229.296 279.861 224.476 279.712 219.656 279.565C219.155 279.55 218.652 279.556 218.151 279.532C212.332 279.243 206.512 278.951 200.494 278.616C199.132 278.603 197.969 278.634 196.806 278.664C188.147 278.813 179.468 278.631 170.834 279.203C161.955 279.79 153.05 280.667 144.282 282.226C133.03 284.226 121.863 286.848 110.739 289.571C105.025 290.971 99.4833 293.173 93.6865 295.034Z" fill="#DF824D"/>
<path d="M212.339 111.359C212.3 111.256 212.261 111.152 212.194 110.768C212.057 110.241 211.946 109.994 211.836 109.748C210.506 108.322 209.21 106.858 207.835 105.484C206.935 104.585 205.921 103.816 204.515 102.608C218.328 98.0329 231.773 94.2622 245.986 93.1848C246.938 94.4955 247.427 95.9536 248.393 96.6153C251.838 98.9749 255.225 101.831 259.04 103.086C265.739 105.288 272.684 106.853 279.628 107.914C285.113 108.753 290.764 108.227 296.006 105.904C300.936 103.72 304.569 100.485 303.89 94.2496C315.274 96.2227 326.489 98.859 337.073 104.091C333.995 105.763 332.088 108.346 331.183 111.667C330.434 114.412 330.043 117.268 329.316 120.072C327.733 121.123 325.967 121.887 324.993 123.285C322.203 127.287 318.644 130.149 314.587 132.419C304.995 137.787 294.843 141.359 284.088 142.68C278.528 143.363 272.896 143.85 267.315 143.693C263.464 143.584 259.674 142.83 255.835 144.401C253.245 140.651 249.829 138.749 245.692 138.49C242.854 138.313 239.997 138.497 237.05 138.36C230.273 134.123 223.594 130.044 216.882 125.766C215.346 120.83 213.842 116.094 212.339 111.359Z" fill="#DF824D"/>
<path d="M203.3 108.089C205.89 108.588 207.625 110.447 207.566 113.027C207.447 118.288 206.979 123.571 206.222 128.773C205.807 131.623 204.553 131.775 202.744 129.544C202.15 128.813 201.859 127.801 201.43 126.917C201.042 127.17 200.654 127.424 200.266 127.677C200.078 128.371 199.771 129.055 199.717 129.762C198.494 145.821 188.811 157.357 173.985 160.378C168.056 161.586 164.535 158.617 164.249 152.146C164.11 149.002 164.009 145.857 163.828 142.347C163.603 142.057 163.441 142.133 163.28 142.208C160.543 145.239 157.922 148.403 155.047 151.275C148.237 158.077 140.285 160.813 131.181 157.808C128.182 156.819 125.37 155.041 122.633 153.33C120.223 151.822 120.191 150.085 122.493 148.296C124.586 146.669 126.883 145.332 129.136 143.953C130.88 142.885 132.694 141.951 134.762 140.786C140.446 139.01 145.841 137.388 151.245 135.805C156.17 134.362 161.102 132.945 166.04 131.557C166.788 131.347 167.59 131.359 168.367 131.268C168.409 132.279 168.526 133.295 168.47 134.3C168.422 135.177 168.178 136.041 168.021 136.911C168.276 136.98 168.531 137.048 168.786 137.116C169.111 136.52 169.509 135.954 169.751 135.321C171.261 131.379 173.072 127.635 176.471 125.173C179.961 122.646 183.494 120.171 187.125 117.884C192.462 114.521 197.903 111.345 203.3 108.089ZM185.033 133.855C185.265 136.989 185.497 140.124 185.729 143.258C187.859 136.062 187.149 129.011 185.292 122.015C184.985 122.027 184.677 122.039 184.37 122.051C184.591 125.819 184.811 129.587 185.033 133.855Z" fill="#DF824D"/>
<path d="M329.493 120.075C330.043 117.268 330.434 114.412 331.183 111.667C332.088 108.346 333.995 105.763 337.215 104.206C346.079 108.325 354.992 112.101 363.416 116.869C378.24 125.259 391.714 135.837 404.163 147.934C401.656 149.22 399.256 150.307 396.644 151.388C391.418 151.904 386.408 152.815 381.39 152.871C369.035 153.008 357.445 149.45 346.581 143.308C337.73 138.304 331.059 131.292 329.493 120.075Z" fill="#8D214C"/>
<path d="M133.395 138.496C128.522 137.15 124.496 134.319 121.178 130.341C118.817 127.511 119.191 125.144 122.288 123.324C126.583 120.801 131.219 119.761 136.12 119.909C139.192 120.002 142.268 119.926 145.342 119.926C145.444 119.663 145.547 119.4 145.649 119.137C144.632 118.367 143.637 117.56 142.592 116.835C140.969 115.708 139.501 114.48 140.092 112.084C140.678 109.709 142.49 108.914 144.495 108.718C150.183 108.162 155.859 107.627 161.541 109.115C164.379 109.857 165.444 108.71 165.415 105.619C165.401 104.18 165.279 102.742 165.28 101.303C165.281 97.9902 166.593 96.3826 169.59 95.6926C174.741 94.5064 179.666 95.6809 184.37 97.6651C189.046 99.6375 193.521 102.156 198.11 104.749C197.932 105.348 197.716 105.625 197.525 105.921C193.587 112.035 189.069 113.324 182.753 110.189C179.486 108.568 176.185 107.024 172.872 105.369C172.8 105.266 172.755 105.24 172.711 105.214C172.774 105.29 172.837 105.367 172.914 105.631C173.196 106.263 173.425 106.742 173.739 107.146C175.998 110.058 178.861 111.974 182.204 113.194C183.663 113.727 185.292 114.592 183.777 116.656C179.176 122.924 172.969 126.294 165.283 121.9C163.509 120.886 161.851 119.64 160.14 118.5C159.978 118.711 159.817 118.922 159.655 119.132C161.571 122.62 164.77 124.781 168.423 127.432C166.221 128.377 164.664 129.203 163.022 129.721C157.062 131.601 151.645 129.256 146.194 127.135C144.011 126.285 141.755 125.647 139.506 124.835C139.436 124.731 139.392 124.704 139.347 124.676C139.41 124.754 139.472 124.832 139.611 125.074C142.987 127.672 146.287 130.105 149.586 132.539C149.515 132.803 149.444 133.067 149.373 133.331C147.559 133.947 145.752 134.589 143.929 135.174C140.423 136.298 136.907 137.39 133.395 138.496Z" fill="#DF824D"/>
<path d="M163.098 308.575C165.175 313.961 163.901 319.321 162.63 324.693C162.265 326.236 162.056 327.822 161.641 329.745C158.594 343.881 155.405 357.604 152.869 371.463C151.285 380.122 150.295 388.96 149.755 397.768C149.207 406.702 149.511 415.677 151.121 424.567C153.064 435.293 156.33 445.313 163.267 453.835C164.026 454.903 164.781 455.751 165.387 456.707C166.101 457.833 166.688 459.052 167.153 460.2C165.089 458.843 163.064 457.695 161.334 456.164C148.407 444.725 144.494 428.747 142.077 412.039C141.342 381.719 148.105 352.894 157.378 324.581C159.125 319.247 161.08 313.99 163.098 308.575Z" fill="#BDC9AC"/>
<path d="M462.075 200.082C455.641 198.859 449.054 198.19 442.823 196.23C438.247 194.79 434.09 191.75 429.842 189.24C428.008 188.156 428.078 186.634 429.745 185.17C430.261 184.717 430.827 184.283 431.436 184.008C433.402 183.119 433.733 181.891 432.834 179.751C431.2 175.865 432.568 173.694 436.467 173.978C450.72 175.015 464.186 178.823 475.694 188.277C479.432 191.347 482.43 195.448 485.768 199.077C486.297 199.652 486.833 200.219 487.217 200.959C483.151 200.938 479.197 201.036 475.33 200.462C472.318 200.015 472.087 198.701 474.029 196.204C475.53 194.275 475.774 193.244 475.111 191.644C469.737 197.432 469.733 197.416 465.552 198.76C464.375 199.138 463.233 199.638 462.075 200.082Z" fill="#DF824D"/>
<path d="M89.8988 211.562C90.4939 212.392 91.089 213.222 91.8221 214.148C92.313 215.514 92.6659 216.784 92.8659 218.337C86.4056 226.689 79.9266 234.615 73.8728 242.896C71.3421 246.358 69.7148 250.575 67.6767 254.449C67.6079 254.503 67.5391 254.558 67.1691 254.696C65.7957 254.835 64.7159 255.003 63.6527 254.922C60.0486 254.649 57.5128 252.307 55.1296 249.711C56.776 242.232 59.8878 235.411 63.7162 229.004C67.2722 223.054 71.2161 217.368 75.2779 211.46C75.6546 211.193 75.7426 211.031 75.8306 210.87C75.8306 210.87 75.8344 210.891 76.0319 210.935C77.4503 210.69 78.6819 210.444 79.8901 210.103C83.4219 209.105 86.8254 209.009 89.8988 211.562Z" fill="#8D214C"/>
<path d="M303.676 94.1897C304.569 100.485 300.936 103.72 296.007 105.904C290.765 108.227 285.113 108.753 279.629 107.914C272.684 106.853 265.739 105.288 259.04 103.086C255.225 101.831 251.838 98.9749 248.393 96.6153C247.427 95.9536 246.938 94.4955 246.212 93.2125C257.346 92.5407 268.5 91.6158 279.646 91.7271C287.591 91.8064 295.524 93.2789 303.676 94.1897Z" fill="#8D214C"/>
<path d="M89.9338 211.363C86.8254 209.009 83.4219 209.105 79.89 210.103C78.6819 210.444 77.4503 210.69 76.0227 210.931C78.1052 207.484 80.182 203.892 82.7206 200.722C93.2427 187.585 104.963 175.735 117.277 164.543C118.172 163.729 119.021 162.854 119.875 161.99C123.447 158.377 125.407 158.114 129.868 161.039C129.599 163.457 129.226 165.517 128.853 167.576C123.916 172.581 119.002 177.611 114.031 182.576C112.325 184.28 110.248 185.609 108.736 187.475C102.398 195.296 96.211 203.256 89.9338 211.363Z" fill="#DF824D"/>
<path d="M212.296 111.61C213.843 116.094 215.346 120.83 216.867 126.017C216.708 129.413 216.725 132.389 216.301 135.291C215.833 138.498 214.531 141.54 211.442 142.613C208.027 143.8 206.599 146.311 205.806 149.723C205.303 151.891 204.292 153.936 203.887 156.117C202.971 161.05 200.04 164.561 197.016 168.056C193.608 171.994 189.392 174.292 184.467 175.161C178.014 176.123 173.385 171.594 170.888 165.135C174.587 163.945 178.419 163.28 182.002 161.886C191.676 158.124 198.036 150.656 201.657 140.479C202.458 138.228 203.409 136.708 205.826 136.1C208.988 135.305 210.351 132.481 210.697 129.26C211.317 123.473 211.745 117.662 212.296 111.61Z" fill="#442332"/>
<path d="M54.9655 249.8C57.5129 252.307 60.0487 254.649 63.6529 254.922C64.7161 255.003 65.7958 254.835 67.0679 254.781C61.7859 264.555 60.4464 275.307 61.2481 286.38C61.8262 294.366 63.9542 301.862 69.8085 307.556C70.5296 308.257 70.804 309.484 71.2826 310.669C60.9871 304.867 53.0028 296.754 50.3234 284.006C48.6234 275.918 49.4356 267.88 51.5097 259.991C52.4104 256.564 53.6924 253.253 54.9655 249.8Z" fill="#DF824D"/>
<path d="M159.361 302.303C157.319 310.739 154.343 318.691 148.887 325.353C146.337 328.467 143.084 330.022 139.258 329.741C131.876 329.2 124.507 328.461 116.899 327.554C117.173 326.471 117.536 325.445 118.224 324.85C119.191 324.014 120.4 323.499 121.504 322.845C132.983 316.038 144.446 309.198 155.974 302.487C156.869 301.966 158.221 302.343 159.361 302.303Z" fill="#E2B95B"/>
<path d="M403.448 290.864C415.973 292.644 428.498 294.425 441.024 296.199C441.772 296.305 442.527 296.352 443.488 296.435C447.503 298.015 451.469 299.254 455.074 301.243C459.416 303.638 463.449 306.672 467.51 309.629C463.874 311.842 460.344 313.854 456.648 315.835C438.796 304.982 419.793 297.661 399.783 291.749C401.354 291.37 402.401 291.117 403.448 290.864Z" fill="#E2B95B"/>
<path d="M150.72 453.172C145.246 444.975 141.289 436.06 139.498 425.901C140.246 421.22 141.012 416.748 141.927 412.157C144.494 428.747 148.407 444.725 161.334 456.164C163.064 457.695 165.088 458.843 167.161 460.176C167.346 460.184 167.305 460.159 167.342 460.269C167.469 460.53 167.596 460.59 167.915 460.669C170.919 462.044 173.669 463.845 176.634 464.464C183.756 465.95 190.98 466.882 198.231 468.211C200.167 468.709 202.027 469.079 203.9 469.346C205.486 469.573 207.181 469.49 208.291 472.067C206.152 472.067 204.434 472.064 202.716 472.067C199.853 472.072 196.989 472.08 194.125 472.087C188.045 471.516 181.965 470.944 175.542 470.216C165.629 466.767 157.37 461.304 150.72 453.172Z" fill="#442332"/>
<path d="M128.937 167.75C129.226 165.517 129.599 163.457 130.008 161.15C141.869 165.305 151.256 160.199 159.965 151.658C160.806 155.978 160.988 160.149 164.337 163.051C161.362 165.934 158.496 169.034 155.141 171.308C152.022 173.422 148.381 174.657 144.57 176.25C143.363 176.055 142.56 175.865 141.749 175.726C138.033 175.088 134.098 175.28 130.962 172.453C130.315 170.943 129.668 169.433 128.937 167.75Z" fill="#442332"/>
<path d="M456.814 315.867C460.344 313.854 463.874 311.841 467.599 309.787C474.033 315.344 473.893 319.165 467.25 324.081C466.285 324.795 465.259 325.416 464.134 326.185C455.826 328.83 447.685 331.531 439.45 333.844C435.067 335.076 430.733 334.857 427.827 329.915C429.874 328.897 432.531 329.563 433.473 326.501C435.12 327.496 436.564 328.484 438.043 329.407C439.16 330.104 440.322 330.716 441.464 331.366C441.67 331.099 441.876 330.833 442.081 330.567C441.626 329.697 441.258 328.755 440.695 327.973C439.943 326.928 439.041 326.006 438.375 324.96C443.031 322.385 447.516 319.881 452.182 317.404C456.233 319.596 460.104 321.76 463.975 323.925C464.155 323.61 464.335 323.294 464.514 322.979C463.27 321.845 462.019 320.719 460.782 319.576C459.453 318.348 458.136 317.104 456.814 315.867Z" fill="#E2B95B"/>
<path d="M161.89 292.568C161.446 293.942 161.002 295.316 160.259 296.867C154.632 300.133 149.327 303.266 143.972 306.298C138.553 309.366 133.084 312.333 127.469 315.259C125.125 311.292 122.765 307.645 118.224 306.818C118.419 306.63 118.48 306.556 118.556 306.528C132.041 301.534 145.518 296.513 159.038 291.632C159.803 291.356 160.931 292.229 161.89 292.568Z" fill="#E2B95B"/>
<path d="M90.5029 320.167C88.0505 319.349 85.478 318.801 83.1814 317.632C81.1128 316.58 80.5562 312.894 81.7352 310.111C82.1761 309.071 82.7795 307.98 83.5835 307.266C88.1581 303.202 93.1819 300.038 99.3972 299.194C101.639 302.283 104.722 302.217 107.6 302.863C109.7 303.335 111.711 304.259 113.654 305.127C105.865 310.238 98.1839 315.202 90.5029 320.167Z" fill="#E2B95B"/>
<path d="M133.472 138.654C136.907 137.39 140.422 136.298 143.929 135.174C145.752 134.589 147.559 133.947 149.373 133.331C149.444 133.067 149.515 132.803 149.586 132.539C146.286 130.105 142.987 127.672 139.61 125.075C139.533 124.911 139.532 124.912 139.532 124.912C141.755 125.647 144.01 126.285 146.194 127.135C151.645 129.256 157.062 131.601 163.021 129.721C164.663 129.203 166.22 128.377 168.423 127.432C164.77 124.781 161.571 122.62 159.655 119.133C159.817 118.922 159.978 118.711 160.14 118.5C161.851 119.64 163.509 120.886 165.283 121.9C172.969 126.294 179.176 122.924 183.777 116.656C185.292 114.592 183.663 113.727 182.204 113.194C178.861 111.974 175.998 110.058 173.739 107.146C173.425 106.742 173.196 106.263 172.914 105.631C172.9 105.444 172.9 105.445 172.9 105.445C176.185 107.024 179.486 108.568 182.753 110.189C189.069 113.324 193.587 112.036 197.525 105.921C197.716 105.625 197.932 105.348 198.231 104.883C199.926 105.727 201.526 106.75 203.213 107.931C197.903 111.345 192.462 114.521 187.125 117.884C183.494 120.171 179.961 122.646 176.471 125.173C173.072 127.635 171.261 131.379 169.751 135.321C169.509 135.955 169.111 136.52 168.786 137.117C168.531 137.048 168.276 136.98 168.021 136.911C168.178 136.041 168.422 135.177 168.47 134.3C168.526 133.295 168.409 132.279 168.367 131.268C167.59 131.359 166.788 131.347 166.04 131.557C161.102 132.945 156.17 134.362 151.245 135.805C145.841 137.388 140.446 139.01 134.866 140.625C134.305 140.027 133.927 139.42 133.472 138.654Z" fill="#8D214C"/>
<path d="M118.097 306.953C122.765 307.645 125.125 311.292 127.347 315.403C122.34 319.115 117.287 322.599 112.235 326.082C109.709 325.68 107.162 325.387 104.662 324.847C101.405 324.143 98.1845 323.243 94.7917 322.154C95.7904 320.639 96.8023 319.178 98.1253 318.195C104.345 313.577 110.636 309.064 118.097 306.953Z" fill="#E2B95B"/>
<path d="M113.762 304.982C111.711 304.259 109.7 303.335 107.6 302.863C104.722 302.217 101.639 302.283 99.6064 299.216C106.479 297.155 113.298 294.845 120.281 293.52C130.852 291.514 141.537 290.193 152.618 288.605C154.229 288.713 155.395 288.797 156.562 288.88C155.796 289.762 155.036 290.045 154.266 290.296C148.729 292.1 143.135 293.728 137.663 295.736C129.651 298.676 121.725 301.886 113.762 304.982Z" fill="#E2B95B"/>
<path d="M396.856 151.393C399.256 150.307 401.656 149.22 404.239 148.089C410.856 154.588 417.314 161.102 423.699 167.697C425.14 169.185 426.477 170.846 427.597 172.618C429.701 175.946 429.277 178.644 426.324 181.485C423.733 178.965 421.299 176.377 418.656 173.521C411.25 165.967 404.053 158.68 396.856 151.393Z" fill="#DF824D"/>
<path d="M462.173 200.232C463.233 199.638 464.375 199.138 465.552 198.76C469.732 197.416 469.737 197.432 475.111 191.644C475.774 193.244 475.53 194.275 474.029 196.204C472.087 198.701 472.318 200.015 475.33 200.462C479.197 201.036 483.151 200.938 487.322 201.11C488.827 202.639 490.363 204.018 491.268 205.769C493.349 209.798 491.002 213.514 486.713 213.123C480.56 212.563 475.008 210.338 470.111 206.195C467.623 204.089 464.893 202.309 462.173 200.232Z" fill="#DF824D"/>
<path d="M113.654 305.127C121.725 301.886 129.651 298.676 137.663 295.736C143.135 293.728 148.729 292.1 154.266 290.296C155.036 290.045 155.796 289.762 156.562 288.88C155.395 288.797 154.229 288.713 152.843 288.573C153.338 288.058 154.143 287.103 154.753 287.229C156.996 287.69 159.251 288.317 161.342 289.279C162.324 289.73 163.589 290.892 162.057 292.52C160.931 292.229 159.803 291.356 159.038 291.632C145.518 296.513 132.041 301.534 118.556 306.528C118.48 306.556 118.419 306.63 118.224 306.818C110.637 309.064 104.345 313.577 98.1254 318.195C96.8024 319.178 95.7905 320.639 94.6244 322.066C93.2972 321.666 91.9809 321.081 90.5837 320.332C98.184 315.202 105.865 310.238 113.654 305.127Z" fill="#442332"/>
<path d="M129.932 387.713C131.474 389.122 133.016 390.532 134.699 392.027C137.176 396.392 137.996 400.894 137.169 405.856C136.746 408.394 137.026 411.067 136.966 413.928C132.292 415.675 127.756 414.427 123.204 413.524C122.392 413.363 121.574 413.233 120.661 412.921C121.974 411.806 123.471 410.978 124.778 409.888C127.828 407.347 130.964 404.657 130.904 400.048C130.85 395.932 130.276 391.824 129.932 387.713Z" fill="#A42958"/>
<path d="M112.319 326.257C117.288 322.598 122.341 319.115 127.515 315.488C133.084 312.333 138.553 309.366 143.972 306.298C149.327 303.266 154.632 300.133 160.132 297.008C160.114 298.706 159.923 300.44 159.547 302.239C158.221 302.343 156.869 301.966 155.974 302.487C144.446 309.198 132.983 316.038 121.503 322.845C120.399 323.499 119.191 324.014 118.224 324.85C117.536 325.445 117.173 326.471 116.686 327.519C115.272 327.3 113.837 326.866 112.319 326.257Z" fill="#442332"/>
<path d="M196.698 278.872C197.969 278.634 199.132 278.603 200.509 278.824C201.128 279.415 201.503 279.989 201.945 280.055C203.838 280.337 205.809 280.225 207.639 280.729C209.313 281.189 211.757 280.381 212.33 283.268C203.695 283.648 195.06 284.012 186.427 284.424C185.091 284.487 183.764 284.766 182.218 284.923C183.685 280.702 187.29 280.555 190.775 280.089C192.722 279.829 194.652 279.421 196.698 278.872Z" fill="#442332"/>
<path d="M460.298 203.639C465.395 206.464 467.952 211.373 469.612 216.95C469.83 217.68 469.773 218.598 469.581 219.352C469.16 221.007 468.176 221.667 466.828 220.373C463.94 217.602 461.103 214.907 461.538 209.993C461.716 207.989 460.681 205.863 460.298 203.639Z" fill="#8D214C"/>
<path d="M211.833 109.883C211.946 109.994 212.057 110.241 212.12 110.622C211.992 110.51 211.911 110.264 211.833 109.883Z" fill="#722B34"/>
<path d="M163.418 142.211C163.442 142.133 163.603 142.057 163.798 142.097C163.739 142.213 163.647 142.213 163.418 142.211Z" fill="#722B34"/>
<path d="M471.099 212.59C471.055 212.493 471.123 212.272 471.307 212.129C471.352 212.293 471.282 212.38 471.099 212.59Z" fill="white"/>
<path d="M75.691 210.869C75.7427 211.031 75.6547 211.193 75.4211 211.362C75.3675 211.203 75.4594 211.035 75.691 210.869Z" fill="#E2B95B"/>
<path d="M198.162 468.037C190.98 466.882 183.756 465.95 176.634 464.464C173.669 463.845 170.919 462.044 167.847 460.594C167.516 460.327 167.41 460.244 167.305 460.159C167.305 460.159 167.346 460.184 167.338 460.207C166.688 459.052 166.101 457.833 165.387 456.707C164.781 455.751 164.026 454.903 163.496 453.838C164.569 453.771 165.491 453.825 166.397 453.983C173 455.129 179.571 456.93 186.21 457.288C193.547 457.683 201.01 457.298 208.303 456.293C220.155 454.661 231.881 452 243.723 450.254C251.172 449.155 258.735 448.447 266.248 448.443C275.287 448.44 284.332 449.298 293.366 449.927C297.618 450.223 301.859 450.772 306.088 451.352C312.105 452.177 318.1 452.744 324.101 451.187C324.467 454.892 325.755 457.729 328.789 459.478C330.261 460.327 330.458 461.71 329.502 463.102C328.27 464.896 326.897 466.581 325.585 468.312C321.361 468.504 317.138 468.695 312.474 468.83C304.995 468.158 297.966 467.322 290.916 466.976C279.494 466.417 268.051 465.703 256.631 465.913C237.136 466.271 217.651 467.294 198.162 468.037Z" fill="#BDC9AC"/>
<path d="M411.999 381.055C405.021 381.126 398.042 381.225 391.063 381.255C388.328 381.267 387.299 379.201 386.819 376.768C385.418 369.664 384.104 362.541 382.727 355.431C381.996 351.657 381.159 347.905 380.477 344.122C380.316 343.23 380.31 342.08 380.704 341.334C385.06 333.076 390.839 326.293 399.111 322.458C405.247 319.613 410.822 321.666 415.884 325.625C422.113 330.496 427.217 336.581 431.67 343.28C433.954 346.715 436.036 350.304 438.055 354.004C433.31 355.086 428.668 355.763 424.139 356.939C415.716 359.127 408.189 362.641 405.361 372.672C404.332 376.32 405.277 378.87 408.672 379.948C409.785 380.302 410.89 380.685 411.999 381.055Z" fill="#8D214C"/>
<path d="M411.089 429.02C412.825 427.06 414.437 425.226 416.161 423.52C419.628 420.09 421.138 420.48 422.885 425.139C423.067 425.624 423.264 426.102 423.737 427.299C424.6 426.104 425.382 425.372 425.754 424.451C428.473 417.714 433.958 414.779 440.036 413.259C444.872 412.05 447.346 414.891 447.273 421.092C447.219 425.608 446.484 430.077 442.92 433.629C440.178 433.712 437.813 433.712 435.027 433.712C437.527 429.43 439.63 425.829 441.733 422.227C441.524 422.04 441.315 421.853 441.106 421.666C440.181 422.594 439.191 423.46 438.346 424.465C437.059 425.995 435.928 427.679 434.605 429.17C434.234 429.588 433.387 429.757 432.827 429.646C432.555 429.593 432.312 428.636 432.281 428.074C432.201 426.637 432.361 425.177 432.194 423.757C432.109 423.031 431.53 422.371 431.173 421.681C430.858 421.78 430.542 421.878 430.227 421.977C430.227 424.362 430.315 426.753 430.209 429.133C429.958 434.733 428.392 439.729 424.006 443.248C423.39 443.743 422.367 444.34 421.845 444.102C421.259 443.836 420.811 442.712 420.693 441.896C420.502 440.575 420.744 439.187 420.591 437.855C420.425 436.417 420.017 435.01 419.714 433.59C419.51 433.627 419.306 433.665 419.102 433.702C419.102 436.089 419.217 438.483 419.079 440.861C418.758 446.377 417.991 451.76 414.034 455.897C411.206 455.468 409.449 453.582 408.777 450.801C406.972 443.334 407.476 436.07 411.089 429.02Z" fill="#DF824D"/>
<path d="M412.237 381.096C410.89 380.685 409.785 380.302 408.672 379.948C405.277 378.87 404.332 376.32 405.361 372.672C408.189 362.641 415.716 359.127 424.139 356.939C428.668 355.763 433.31 355.086 438.115 354.18C438.621 354.46 438.914 354.744 439.183 355.359C439.396 357.307 439.519 358.954 439.885 360.537C441.936 369.401 441.283 375.176 431.854 379.023C430.269 379.67 428.743 380.482 427.19 381.217C422.285 381.191 417.379 381.164 412.237 381.096Z" fill="#A42958"/>
<path d="M438.203 325.031C439.041 326.006 439.943 326.928 440.695 327.973C441.258 328.755 441.627 329.697 442.081 330.567C441.876 330.833 441.67 331.099 441.464 331.366C440.322 330.716 439.16 330.104 438.043 329.407C436.564 328.484 435.12 327.496 433.391 326.352C419.838 312.737 387.261 294.512 378.159 295.629C379.668 296.702 381.04 297.559 382.289 298.586C389.213 304.275 396.106 310.006 403.01 315.722C402.116 316.11 401.222 316.498 399.981 316.817C394.46 312.317 389.474 307.595 384.044 303.557C380.395 300.843 376.118 299.097 372.121 296.918C372.074 293.04 372.513 292.791 376.095 292.483C380.835 292.074 385.537 291.184 390.273 290.691C394.267 290.275 398.285 290.114 402.295 289.893C402.636 289.874 402.996 290.252 403.397 290.655C402.401 291.117 401.354 291.37 399.783 291.749C419.793 297.66 438.796 304.982 456.648 315.835C458.136 317.104 459.453 318.348 460.782 319.576C462.019 320.719 463.27 321.845 464.514 322.979C464.335 323.294 464.155 323.61 463.975 323.925C460.104 321.76 456.233 319.596 452.071 317.264C442.19 310.86 432.094 305.817 421.407 302.1C411.62 298.695 392.029 293.658 389.533 293.914C395.257 296.914 401.39 299.846 407.263 303.286C413.155 306.737 418.883 310.54 424.503 314.482C429.204 317.779 433.646 321.498 438.203 325.031Z" fill="#442332"/>
<path d="M198.232 468.21C217.651 467.294 237.136 466.271 256.631 465.913C268.051 465.703 279.494 466.417 290.916 466.976C297.966 467.322 304.995 468.158 312.238 468.844C311.645 470.994 312.465 471.513 314.364 471.564C319.862 471.711 325.355 472.038 330.998 472.458C330.843 472.763 330.54 473.031 330.24 473.028C321.657 472.956 313.073 472.904 304.491 472.738C300.878 472.667 297.272 472.267 293.659 472.152C280.371 471.727 267.077 470.921 253.795 471.092C240.1 471.269 226.419 472.493 212.726 473.102C207.85 473.318 202.956 473.114 198.072 473.014C196.833 472.989 195.6 472.624 194.245 472.251C196.989 472.08 199.853 472.072 202.716 472.067C204.434 472.064 206.152 472.067 208.292 472.067C207.181 469.49 205.486 469.573 203.9 469.346C202.027 469.079 200.167 468.709 198.232 468.21Z" fill="#442332"/>
<path d="M442.927 436.338C450.52 436.351 452.032 438.663 449.329 446.187C447.194 452.128 443.437 456.344 437.764 458.494C437.142 458.729 436.539 459.019 435.523 459.458C436.778 460.676 437.817 461.684 439.141 462.969C437.186 463.704 435.635 464.288 433.923 464.972C430.152 464.355 426.397 464.071 422.978 462.776C420.335 461.775 418.11 459.507 415.65 457.445C416.504 454.247 418.336 453.006 421.154 453.106C424.467 453.223 427.792 453.264 431.102 453.109C434.619 452.945 437.527 451.233 439.889 448.387C438.478 448.58 437.165 449.147 435.802 449.394C432.615 449.974 429.402 450.779 426.202 450.771C423.553 450.764 422.995 449.131 424.397 446.805C425.299 445.308 426.312 443.869 427.401 442.52C431.507 437.433 436.44 434.627 442.927 436.338Z" fill="#DF824D"/>
<path d="M408.113 413.708C406.871 424.399 403.3 434.189 397.966 443.258C395.951 446.684 394.32 446.752 390.473 443.688C389.596 440.272 388.678 437.152 388.306 433.959C387.959 430.978 388.191 427.919 388.168 424.895C388.706 423.445 389.244 421.996 389.947 420.28C390.231 419.858 390.253 419.689 390.18 419.505C390.18 419.505 390.232 419.59 390.37 419.532C392.222 417.293 393.992 415.161 395.636 412.923C397.937 409.789 399.611 409.282 402.984 410.981C404.711 411.851 406.404 412.797 408.113 413.708Z" fill="#BDC9AC"/>
<path d="M408.244 413.567C406.404 412.797 404.711 411.851 402.984 410.981C399.611 409.282 397.937 409.789 395.636 412.922C393.992 415.161 392.222 417.293 390.333 419.5C390.854 416.09 391.55 412.654 392.418 408.89C393.439 402.493 394.286 396.425 395.134 390.357C395.696 387.75 397.547 386.181 399.684 385.844C402.546 385.394 405.541 385.593 408.436 385.931C409.213 386.022 410.435 387.627 410.437 388.54C410.455 396.892 410.871 405.307 408.244 413.567Z" fill="#BDC9AC" fill-opacity="0.76"/>
<path d="M403.202 315.757C396.106 310.006 389.213 304.275 382.289 298.586C381.04 297.559 379.668 296.703 378.159 295.63C387.261 294.512 419.838 312.737 433.203 326.317C432.531 329.563 429.874 328.897 427.77 329.742C420.845 322.668 412.657 318.172 403.202 315.757Z" fill="#E2B95B"/>
<path d="M325.72 468.46C326.898 466.581 328.27 464.896 329.503 463.102C330.458 461.71 330.261 460.327 328.789 459.478C325.755 457.729 324.467 454.892 324.166 450.981C324.662 448.385 324.984 446.15 325.625 444.026C328.092 435.846 332.418 429.224 339.904 425.469C343.274 423.779 345.93 424.479 348.079 427.691C349.187 429.346 349.899 431.304 350.789 433.126C350.231 437.626 350.194 442.294 348.991 446.587C347.23 452.873 342.446 456.568 337.23 459.615C333.582 461.746 332.919 463.537 334.042 467.691C331.477 469.588 328.692 469.457 325.72 468.46ZM330.903 440.791C330.053 443.787 328.97 446.735 328.424 449.793C327.962 452.382 328.894 454.742 330.982 456.407C332.635 457.724 334.39 457.445 335.948 456.443C340.199 453.708 344.115 450.33 345.602 445.144C346.61 441.631 346.521 437.728 346.711 433.988C346.823 431.798 346.446 429.546 344.246 428.524C342.082 427.519 340.133 428.548 338.777 430.189C336.069 433.468 333.628 437.001 330.903 440.791Z" fill="#442332"/>
<path d="M372.12 297.158C376.117 299.097 380.395 300.843 384.044 303.557C389.474 307.595 394.46 312.317 399.798 316.809C395.832 319.417 391.702 321.964 387.267 324.511C386.543 323.957 386.125 323.4 385.704 322.846C381.698 317.579 377.69 312.312 373.683 307.044C373.162 303.829 372.641 300.613 372.12 297.158Z" fill="#E2B95B"/>
<path d="M385.171 447.669C386.464 447.39 387.819 446.804 388.772 447.236C394.914 450.018 398.336 455.171 399.302 462.16C399.759 465.464 397.192 467.84 393.433 467.824C388.628 467.802 384.643 463.706 383.686 457.973C383.09 454.402 383.46 451.039 385.171 447.669Z" fill="#8D214C"/>
<path d="M427.42 381.25C428.743 380.482 430.269 379.67 431.854 379.023C441.283 375.176 441.936 369.401 439.885 360.537C439.519 358.954 439.396 357.307 439.235 355.509C442.44 359.162 445.653 362.923 448.671 366.856C450.917 369.784 452.006 373.255 450.381 376.863C448.691 380.616 445.279 381.635 441.706 381.656C437.022 381.685 432.335 381.422 427.42 381.25Z" fill="#A42958"/>
<path d="M442.89 436.126C436.44 434.626 431.507 437.433 427.401 442.52C426.312 443.869 425.299 445.308 424.397 446.805C422.995 449.131 423.553 450.764 426.202 450.771C429.402 450.779 432.615 449.974 435.802 449.394C437.165 449.147 438.478 448.58 439.889 448.387C437.527 451.233 434.619 452.945 431.102 453.109C427.792 453.264 424.467 453.223 421.154 453.106C418.336 453.006 416.504 454.247 415.579 457.28C415.099 457.043 414.64 456.614 414.108 456.04C417.991 451.76 418.758 446.377 419.079 440.861C419.217 438.484 419.102 436.089 419.102 433.702C419.306 433.665 419.51 433.627 419.714 433.59C420.017 435.01 420.425 436.417 420.591 437.855C420.744 439.187 420.502 440.575 420.693 441.896C420.811 442.712 421.259 443.836 421.845 444.102C422.367 444.34 423.39 443.743 424.006 443.248C428.392 439.729 429.958 434.733 430.209 429.133C430.315 426.753 430.227 424.363 430.227 421.977C430.542 421.878 430.858 421.78 431.173 421.681C431.529 422.371 432.109 423.031 432.194 423.757C432.361 425.177 432.201 426.637 432.281 428.074C432.312 428.636 432.555 429.593 432.827 429.646C433.387 429.757 434.234 429.588 434.605 429.17C435.928 427.679 437.058 425.995 438.346 424.465C439.191 423.46 440.181 422.595 441.106 421.666C441.315 421.853 441.524 422.04 441.733 422.227C439.63 425.829 437.527 429.43 435.027 433.712C437.813 433.712 440.178 433.712 442.794 433.746C442.981 434.492 442.917 435.203 442.89 436.126Z" fill="#8D214C"/>
<path d="M388.029 425.002C388.191 427.919 387.959 430.978 388.307 433.959C388.679 437.152 389.597 440.272 390.309 443.612C383.596 444.147 382.01 445.53 380.458 452.413C379.124 458.33 376.374 460.737 369.846 461.636C368.769 461.784 367.673 461.771 366.105 461.219C368.349 458.992 370.796 456.953 372.798 454.498C377.607 448.6 380.671 441.602 383.436 434.416C384.672 431.204 386.39 428.204 388.029 425.002Z" fill="#BDC9AC" fill-opacity="0.83"/>
<path d="M212.564 283.303C211.757 280.381 209.313 281.189 207.639 280.729C205.809 280.225 203.838 280.337 201.945 280.055C201.503 279.989 201.128 279.415 200.708 278.867C206.513 278.951 212.332 279.243 218.151 279.532C218.652 279.556 219.155 279.55 219.656 279.565C224.476 279.712 229.296 279.861 234.347 280.053C234.202 281.4 232.238 282.22 233.547 284.228C229.232 284.203 224.897 283.989 220.563 283.764C217.974 283.63 215.387 283.48 212.564 283.303Z" fill="#442332"/>
<path d="M384.839 327.147C382.981 329.963 381.124 332.779 378.879 336.182C377.173 327.753 375.621 320.083 374.216 312.231C374.927 312.697 375.561 313.29 376.043 314.002C378.994 318.369 381.911 322.763 384.839 327.147Z" fill="#E2B95B"/>
<path d="M408.341 460.028C407.949 460.393 407.711 460.652 407.44 460.863C404.315 463.297 403.59 463.032 402.345 459.097C401.619 456.807 400.805 454.548 400.082 452.256C399.242 449.59 400.162 448.096 402.726 447.823C404.11 447.676 404.942 448.042 405.04 449.79C405.244 453.405 406.311 456.521 410.352 457.773C409.575 458.655 409.027 459.277 408.341 460.028Z" fill="#4E5C2C"/>
<path d="M394.972 390.402C394.286 396.425 393.439 402.493 392.438 408.678C389.294 404.646 388.502 400.052 389.743 394.993C389.946 394.169 389.772 393.239 389.772 392.975C391.576 392.07 393.193 391.259 394.972 390.402Z" fill="#442332"/>
<path d="M384.999 327.14C381.911 322.763 378.994 318.369 376.043 314.002C375.561 313.29 374.927 312.697 374.186 312.009C373.881 310.469 373.753 308.969 373.654 307.257C377.691 312.312 381.698 317.579 385.704 322.846C386.125 323.4 386.543 323.957 387.118 324.621C386.569 325.53 385.864 326.331 384.999 327.14Z" fill="#442332"/>
<path d="M235.631 280.335C241.466 280.641 247.342 281.174 253.222 281.644C254.811 281.771 256.424 281.594 258.009 281.748C262.708 282.205 267.399 282.757 272.295 283.323C272.086 285.502 271.106 285.629 269.407 284.681C268.135 283.971 266.603 283.37 265.204 283.412C255.62 283.697 246.123 282.908 236.688 281.154C236.328 281.087 236.011 280.749 235.631 280.335Z" fill="#442332"/>
<path d="M335.107 471.941C334.931 472.189 334.681 472.32 334.291 472.404C334.445 472.179 334.739 472.001 335.107 471.941Z" fill="#442332"/>
<path d="M439.43 292.802C439.517 292.693 439.669 292.736 439.893 292.927C439.806 293.047 439.65 293.007 439.43 292.802Z" fill="#722B34"/>
<path d="M390.066 419.571C390.253 419.689 390.231 419.858 390.012 420.093C389.925 419.995 389.938 419.816 390.066 419.571Z" fill="#E2B95B"/>
<path d="M411.861 421.146C411.97 421.386 411.915 421.568 411.685 421.767C411.573 421.551 411.634 421.32 411.861 421.146Z" fill="white"/>
<path d="M150.586 453.324C157.37 461.304 165.629 466.767 175.327 470.188C173.954 472.914 171.352 472.942 169.035 473.065C166.134 473.219 163.206 472.77 160.289 472.585C154.707 472.231 149.128 471.752 143.541 471.585C141.047 471.511 138.928 470.974 137.09 468.853C135.61 466.533 134.363 464.248 132.951 462.088C131.952 460.561 130.64 459.266 129.66 457.728C129.369 457.272 129.726 456.343 129.881 455.484C136.8 454.717 143.625 454.096 150.586 453.324Z" fill="#4E5C2C"/>
<path d="M129.865 387.542C130.276 391.824 130.85 395.933 130.904 400.049C130.964 404.657 127.828 407.347 124.778 409.888C123.471 410.978 121.974 411.806 120.451 412.877C113.226 413.772 106.112 414.542 98.7985 415.369C95.5608 416.143 92.5221 416.859 89.1935 417.413C85.6644 413.923 85.2438 410.082 86.8067 405.69C87.4461 403.894 87.5647 401.885 87.9203 399.973C88.968 398.265 90.0157 396.556 91.4053 394.796C95.5464 397.445 99.6607 398.268 103.878 396.309C108.019 394.385 112.095 392.235 115.997 389.812C119.669 387.531 121.352 383.786 121.314 379.212C125.282 380.576 127.815 383.647 129.865 387.542Z" fill="#8D214C"/>
<path d="M113.768 445.043C111.168 437.366 110.166 429.398 110.19 421.284C110.199 418.231 112.586 416.275 115.362 417.029C116.231 417.265 117.385 418.568 117.467 419.48C118.088 426.347 118.474 433.239 118.748 440.401C116.965 442.134 115.366 443.588 113.768 445.043Z" fill="#BDC9AC"/>
<path d="M113.758 445.252C115.366 443.588 116.965 442.134 118.751 440.644C120.886 448.902 123.45 456.934 128.141 464.795C118.928 461.49 115.852 453.889 113.758 445.252Z" fill="#BDC9AC" fill-opacity="0.56"/>
<path d="M495.085 385.958C495.029 385.726 495.105 385.422 495.319 385.057C495.378 385.293 495.297 385.59 495.085 385.958Z" fill="white"/>
<path d="M121.16 379.103C121.352 383.786 119.669 387.531 115.997 389.812C112.095 392.235 108.019 394.385 103.878 396.309C99.6607 398.268 95.5464 397.445 91.5537 394.714C94.7711 388.586 99.2053 383.461 104.494 379.207C109.907 374.853 115.462 375.589 121.16 379.103Z" fill="#A42958"/>
<path d="M87.7712 400.075C87.5648 401.885 87.4462 403.894 86.8068 405.69C85.2439 410.082 85.6645 413.923 88.9898 417.43C88.0674 418.333 87.059 419.057 85.9936 419.95C80.7959 419.335 79.113 416.437 81.3805 411.506C83.1841 407.584 85.5216 403.942 87.7712 400.075Z" fill="#8D214C"/>
<path d="M92.5488 440.608C98.1464 443.548 102.451 447.717 105.586 453.252C105.804 453.637 106.022 454.026 106.195 454.434C107.302 457.047 108.181 459.821 106.435 462.368C104.585 465.069 101.663 465.313 98.8629 464.776C92.5634 463.568 87.9962 459.564 84.9963 453.695C83.7371 451.231 82.8225 448.363 82.5249 445.584C81.9657 440.361 84.8055 438.046 89.5368 439.408C90.5049 439.687 91.4256 440.154 92.5488 440.608Z" fill="#8D214C"/>
<path d="M472.091 411.063C472.07 410.981 472.114 410.83 472.219 410.768C472.28 410.856 472.155 410.995 472.091 411.063Z" fill="white"/>
<path d="M67.8787 254.481C69.7148 250.575 71.3422 246.357 73.8728 242.896C79.9266 234.615 86.4057 226.689 92.8651 218.54C95.3713 226.34 94.0705 233.675 89.926 240.468C84.7868 248.891 77.3363 253.343 67.8787 254.481Z" fill="#8D214C"/>
<path d="M364.426 233.532C369.038 229.762 373.717 230.438 378.307 232.924C382.519 235.207 385.013 238.817 384.732 244.151C384.554 247.522 382.924 249.622 379.829 250.404C374.403 251.776 367.154 248.795 364.007 243.896C361.848 240.538 361.939 237.28 364.426 233.532Z" fill="#8D214C"/>
<path d="M156.719 218.109C157.877 215.756 158.991 213.529 160.292 211.435C162.856 207.306 166.683 205.069 171.064 204.028C174.318 203.255 177.157 204.62 178.966 207.537C179.689 208.704 179.846 210.625 179.575 212.055C179.217 213.947 178.188 215.694 177.417 217.698C173.983 219.975 170.75 222.536 167.132 224.022C162.355 225.984 160.224 224.759 157.562 219.977C157.261 219.438 157.026 218.857 156.719 218.109Z" fill="#8D214C"/>
<path d="M396.644 151.388C404.053 158.68 411.25 165.967 418.519 173.419C415.608 173.769 412.722 173.496 410.09 171.753C407.107 169.78 404.198 171.678 401.293 172.107C393.692 173.231 386.138 174.789 378.515 175.676C369.709 176.701 360.831 177.006 352.017 177.971C342.72 178.988 333.474 180.536 324.181 181.614C318.779 182.241 313.333 182.506 307.9 182.737C303.821 182.91 299.728 182.702 295.645 182.789C290.782 182.892 285.922 183.26 281.061 183.269C276.621 183.277 272.174 182.724 267.742 182.848C263.155 182.976 258.585 183.677 254 184.013C252.364 184.133 250.708 183.891 249.06 183.857C239.905 183.667 230.74 183.72 221.6 183.219C216.537 182.941 211.44 182.098 206.504 180.849C202.675 179.88 199.046 180.643 195.317 180.771C192.672 180.862 189.983 180.804 187.373 180.384C184.845 179.978 185.237 177.343 184.62 175.299C189.392 174.292 193.608 171.994 197.016 168.056C200.04 164.561 202.971 161.05 203.887 156.117C204.292 153.936 205.303 151.891 205.807 149.723C206.599 146.312 208.027 143.8 211.442 142.613C214.531 141.54 215.833 138.499 216.301 135.291C216.725 132.389 216.708 129.413 216.9 126.218C223.594 130.044 230.273 134.123 236.938 138.498C231.6 141.524 227.472 145.673 224.526 151.098C221.353 156.943 224.268 163.723 230.33 164.336C237.291 165.04 243.981 164.493 249.965 159.631C254.838 155.671 257.086 150.951 255.964 144.484C259.674 142.83 263.464 143.584 267.316 143.693C272.897 143.85 278.529 143.363 284.088 142.68C294.843 141.359 304.995 137.787 314.588 132.419C318.644 130.149 322.204 127.287 324.993 123.285C325.967 121.888 327.734 121.123 329.316 120.072C331.06 131.292 337.73 138.304 346.581 143.308C357.445 149.45 369.036 153.008 381.39 152.871C386.408 152.815 391.418 151.904 396.644 151.388ZM328.644 165.747C331.392 161.478 331.101 157.27 327.858 153.518C325.126 150.357 321.743 148.495 317.821 147.801C311.38 146.661 305.675 153.806 307.994 160.105C310.982 168.222 324.069 170.987 328.644 165.747Z" fill="#DF824D"/>
<path d="M130.755 172.467C134.098 175.28 138.032 175.088 141.749 175.726C142.56 175.865 143.363 176.055 144.372 176.258C143.311 183.4 138.317 185.611 132.538 186.467C129.856 186.864 127.068 186.722 124.361 186.452C123.643 186.381 122.413 184.841 122.5 184.128C122.92 180.705 123.074 176.964 125.825 174.581C127.096 173.48 128.955 173.157 130.755 172.467Z" fill="#8D214C"/>
<path d="M350.951 433.189C349.899 431.305 349.187 429.346 348.079 427.691C345.93 424.48 343.274 423.779 339.904 425.469C332.418 429.224 328.091 435.846 325.625 444.026C324.984 446.15 324.662 448.385 324.128 450.774C318.1 452.745 312.105 452.177 306.087 451.352C301.859 450.772 297.618 450.223 293.366 449.927C284.332 449.299 275.287 448.44 266.247 448.443C258.735 448.447 251.172 449.155 243.723 450.254C231.881 452 220.155 454.661 208.303 456.293C201.01 457.298 193.547 457.683 186.21 457.288C179.57 456.93 173 455.129 166.397 453.983C165.491 453.825 164.569 453.771 163.426 453.666C156.33 445.313 153.064 435.293 151.121 424.567C149.511 415.677 149.206 406.702 149.754 397.768C150.295 388.96 151.285 380.122 152.869 371.463C155.405 357.604 158.594 343.881 161.655 329.971C163.005 329.831 164.416 330.264 165.377 329.743C176.207 323.88 187.766 320.548 199.66 318.542C206.096 317.456 212.617 316.817 219.123 316.377C225.742 315.93 232.401 315.631 239.021 315.893C247.214 316.217 255.39 317.127 263.563 317.892C270.65 318.556 277.733 319.301 284.803 320.141C291.367 320.922 297.914 321.878 304.667 323.018C303.786 328.47 303.981 333.467 306.914 338.005C308.635 340.668 311.458 341.777 314.439 341.063C317.432 340.345 319.303 338.402 319.558 334.919C319.758 332.181 319.347 329.391 319.207 326.624C326.241 327.038 332.972 329.018 339.368 331.945C344.592 334.336 349.555 337.427 354.503 340.451C362.088 345.086 365.454 352.789 366.412 361.561C367.266 369.377 367.684 377.327 367.434 385.186C366.898 402.058 362.789 417.922 354.107 432.232C353.338 433.499 352.711 434.916 350.951 433.189ZM205.368 326.051C205.073 327.818 204.651 329.573 204.508 331.354C204.151 335.766 206.156 339.639 209.165 340.623C212.709 341.782 216.228 340.027 218.408 335.94C220.434 332.142 220.683 328.047 219.733 323.908C218.544 318.721 212.727 316.786 208.934 320.417C207.492 321.797 206.65 323.894 205.368 326.051ZM182.434 347.598C186.797 349.955 192.213 348.903 195.297 345.1C198.089 341.655 197.314 335.585 193.782 333.25C190.191 330.876 185.116 331.798 182.1 335.373C179.217 338.79 179.225 343.502 182.434 347.598ZM326.551 338.939C325.196 343.995 327.855 348.556 333.031 350.057C337.303 351.296 341.805 348.617 342.696 344.306C343.797 338.98 341.167 334.585 336.128 333.551C331.855 332.673 328.906 334.887 326.551 338.939Z" fill="#BDC9AC" fill-opacity="0.83"/>
<path d="M319.126 326.478C319.347 329.391 319.758 332.181 319.558 334.919C319.303 338.402 317.432 340.345 314.44 341.063C311.458 341.777 308.635 340.668 306.914 338.005C303.981 333.467 303.786 328.47 304.875 323.052C311.658 316.782 314.747 317.547 319.126 326.478Z" fill="#442332"/>
<path d="M255.835 144.401C257.086 150.951 254.838 155.671 249.964 159.631C243.981 164.493 237.291 165.04 230.329 164.336C224.268 163.723 221.353 156.943 224.526 151.098C227.472 145.673 231.6 141.524 237.035 138.658C239.997 138.497 242.854 138.313 245.692 138.49C249.829 138.749 253.245 140.651 255.835 144.401Z" fill="#8D214C"/>
<path d="M185.033 133.605C184.811 129.587 184.591 125.819 184.37 122.051C184.677 122.039 184.985 122.027 185.292 122.015C187.149 129.011 187.859 136.062 185.729 143.258C185.497 140.124 185.265 136.989 185.033 133.605Z" fill="#8D214C"/>
<path d="M139.534 124.911C139.472 124.832 139.409 124.754 139.347 124.676C139.391 124.704 139.436 124.731 139.506 124.835C139.532 124.912 139.534 124.911 139.534 124.911Z" fill="#8D214C"/>
<path d="M172.9 105.444C172.837 105.367 172.774 105.29 172.711 105.214C172.755 105.24 172.8 105.266 172.872 105.369C172.9 105.445 172.9 105.444 172.9 105.444Z" fill="#8D214C"/>
<path d="M167.342 460.269C167.41 460.244 167.516 460.327 167.692 460.483C167.596 460.59 167.469 460.53 167.342 460.269Z" fill="#E2B95B"/>
<path d="M438.375 324.96C433.646 321.498 429.204 317.779 424.503 314.482C418.883 310.54 413.155 306.738 407.263 303.286C401.39 299.846 395.257 296.914 389.533 293.914C392.029 293.658 411.62 298.696 421.406 302.1C432.094 305.817 442.19 310.86 451.891 317.237C447.516 319.882 443.031 322.386 438.375 324.96Z" fill="#E2B95B"/>
<path d="M330.99 440.61C333.628 437.001 336.069 433.468 338.777 430.189C340.133 428.548 342.081 427.519 344.245 428.524C346.446 429.546 346.823 431.798 346.711 433.988C346.521 437.728 346.61 441.631 345.602 445.144C344.115 450.329 340.199 453.708 335.947 456.443C334.389 457.445 332.635 457.724 330.982 456.407C328.894 454.742 327.961 452.382 328.424 449.793C328.97 446.735 330.053 443.787 330.99 440.61Z" fill="#8D214C"/>
<path d="M328.515 165.895C324.069 170.987 310.982 168.222 307.994 160.105C305.675 153.806 311.38 146.661 317.821 147.801C321.743 148.495 325.125 150.357 327.857 153.517C331.101 157.27 331.392 161.478 328.515 165.895Z" fill="#8D214C"/>
<path d="M198.621 324.169C200.594 322.243 201.979 320.185 204.351 318.831C210.593 315.269 220.166 317.167 222.124 322.256C223.686 326.318 223.277 330.335 219.942 334.062C216.354 338.071 210.563 339.793 204.733 338.656C199.78 337.691 196.481 333.891 197.067 329.562C197.304 327.814 197.998 326.092 198.621 324.169Z" fill="#442332"/>
<path d="M299.621 324.169C301.594 322.243 302.979 320.185 305.351 318.831C311.593 315.269 321.166 317.167 323.124 322.256C324.686 326.318 324.277 330.335 320.942 334.062C317.354 338.071 311.563 339.793 305.733 338.656C300.78 337.691 297.481 333.891 298.067 329.562C298.304 327.814 298.998 326.092 299.621 324.169Z" fill="#442332"/>
<path d="M182.277 347.477C179.225 343.502 179.217 338.79 182.1 335.373C185.116 331.798 190.191 330.876 193.782 333.25C197.314 335.585 198.089 341.655 195.297 345.1C192.213 348.903 186.797 349.955 182.277 347.477Z" fill="#A42958"/>
<path d="M326.608 338.738C328.906 334.887 331.855 332.673 336.128 333.551C341.167 334.585 343.797 338.98 342.696 344.306C341.805 348.617 337.303 351.296 333.031 350.057C327.855 348.556 325.196 343.995 326.608 338.738Z" fill="#A42958"/>
<path d="M262.101 432.5C286.965 432.5 306.5 410.727 306.5 384.667C306.5 371.526 301.755 361.498 293.542 354.859C285.473 348.337 274.575 345.5 262.899 345.5C238.035 345.5 218.5 367.273 218.5 393.333C218.5 406.474 223.245 416.502 231.458 423.141C239.527 429.663 250.425 432.5 262.101 432.5Z" fill="#442332" stroke="#DF824D" stroke-width="9"/>
</g>
<defs>
<filter id="filter0_d_157_20194" x="-5.46069" y="36.2981" width="559.625" height="439.374" filterUnits="userSpaceOnUse" color-interpolation-filters="sRGB">
<feFlood flood-opacity="0" result="BackgroundImageFix"/>
<feColorMatrix in="SourceAlpha" type="matrix" values="0 0 0 0 0 0 0 0 0 0 0 0 0 0 0 0 0 0 127 0" result="hardAlpha"/>
<feOffset/>
<feGaussianBlur stdDeviation="25"/>
<feComposite in2="hardAlpha" operator="out"/>
<feColorMatrix type="matrix" values="0 0 0 0 0.739687 0 0 0 0 0.7875 0 0 0 0 0.675937 0 0 0 0.5 0"/>
<feBlend mode="normal" in2="BackgroundImageFix" result="effect1_dropShadow_157_20194"/>
<feBlend mode="normal" in="SourceGraphic" in2="effect1_dropShadow_157_20194" result="shape"/>
</filter>
<clipPath id="clip0_157_20194">
<rect width="546" height="584" fill="white"/>
</clipPath>
</defs>
</svg>
