<svg width="40" height="40" viewBox="0 0 44 48" fill="none" xmlns="http://www.w3.org/2000/svg">
<path d="M6.16224 41.0277C5.73628 41.0277 5.39197 40.6817 5.39197 40.2536C5.39197 37.2651 7.81139 34.8339 10.7854 34.8339C11.2114 34.8339 11.5557 35.1799 11.5557 35.6079C11.5557 36.0359 11.2114 36.3819 10.7854 36.3819C8.661 36.3819 6.93251 38.1189 6.93251 40.2536C6.93251 40.6817 6.5882 41.0277 6.16224 41.0277Z" fill="#E2B95B"/>
<path d="M36.9729 41.027C36.547 41.027 36.2027 40.681 36.2027 40.253C36.2027 38.1189 34.475 36.3828 32.3513 36.3828C31.9254 36.3828 31.5811 36.0368 31.5811 35.6088C31.5811 35.1807 31.9254 34.8347 32.3513 34.8347C35.3238 34.8347 37.7432 37.266 37.7432 40.253C37.7432 40.681 37.3989 41.027 36.9729 41.027Z" fill="#E2B95B"/>
<path d="M16.9459 36.3827L10.7853 36.3819C10.3593 36.3819 10.015 36.0352 10.015 35.6079C10.015 35.1799 10.3601 34.8339 10.7853 34.8339L16.9459 34.8346C17.3719 34.8346 17.7162 35.1814 17.7162 35.6087C17.7162 36.0367 17.3711 36.3827 16.9459 36.3827Z" fill="#E2B95B"/>
<path d="M32.3514 36.3827L26.1892 36.3819C25.7633 36.3819 25.4189 36.0352 25.4189 35.6079C25.4189 35.1799 25.764 34.8339 26.1892 34.8339L32.3514 34.8346C32.7773 34.8346 33.1216 35.1814 33.1216 35.6087C33.1216 36.0367 32.7766 36.3827 32.3514 36.3827Z" fill="#E2B95B"/>
<path d="M6.16301 46.4436C5.73782 46.4436 5.39274 46.0976 5.39274 45.6696L5.39197 40.2536C5.39197 39.8264 5.73628 39.4796 6.16224 39.4796C6.58743 39.4796 6.93251 39.8256 6.93251 40.2536L6.93328 45.6696C6.93328 46.0968 6.58897 46.4436 6.16301 46.4436Z" fill="#E2B95B"/>
<path d="M6.93324 47.2176C6.08363 47.2176 5.3927 46.5233 5.3927 45.6695C5.3927 45.2415 5.73701 44.8955 6.16297 44.8955C6.58893 44.8955 6.93324 45.2415 6.93324 45.6695V45.6711C7.3592 45.6711 7.70351 46.0163 7.70351 46.4443C7.70351 46.8716 7.3592 47.2176 6.93324 47.2176Z" fill="#E2B95B"/>
<path d="M36.2028 47.2176C35.7768 47.2176 35.4325 46.8716 35.4325 46.4436C35.4325 46.0155 35.7768 45.6695 36.2028 45.6695H36.2043C36.2043 45.2415 36.5478 44.8955 36.9738 44.8955C37.399 44.8955 37.7433 45.2415 37.7433 45.6695C37.7433 46.5233 37.0524 47.2176 36.2028 47.2176Z" fill="#E2B95B"/>
<path d="M36.9729 46.4435C36.5469 46.4435 36.2026 46.0975 36.2026 45.6695V40.2528C36.2026 39.8248 36.5469 39.4788 36.9729 39.4788C37.3989 39.4788 37.7432 39.8248 37.7432 40.2528V45.6695C37.7432 46.0975 37.3989 46.4435 36.9729 46.4435Z" fill="#E2B95B"/>
<path d="M36.2027 47.2176H6.93323C6.50727 47.2176 6.16296 46.8716 6.16296 46.4436C6.16296 46.0155 6.50727 45.6696 6.93323 45.6696H36.2027C36.6287 45.6696 36.973 46.0155 36.973 46.4436C36.973 46.8716 36.6287 47.2176 36.2027 47.2176Z" fill="#E2B95B"/>
<path d="M16.9459 36.3827C16.52 36.3827 16.1757 36.0367 16.1757 35.6087V31.545C16.1757 31.117 16.52 30.771 16.9459 30.771C17.3719 30.771 17.7162 31.117 17.7162 31.545V35.6087C17.7162 36.0367 17.3719 36.3827 16.9459 36.3827Z" fill="#E2B95B"/>
<path d="M26.1892 36.382C25.7633 36.382 25.4189 36.036 25.4189 35.6079V31.545C25.4189 31.117 25.7633 30.771 26.1892 30.771C26.6152 30.771 26.9595 31.117 26.9595 31.545V35.6079C26.9595 36.036 26.6152 36.382 26.1892 36.382Z" fill="#E2B95B"/>
<path d="M21.5675 33.2859C14.7722 33.2859 9.24316 27.7299 9.24316 20.9014C9.24316 20.4741 9.58747 20.1273 10.0134 20.1273C10.4394 20.1273 10.7837 20.4741 10.7837 20.9014C10.7837 26.8769 15.621 31.7378 21.5675 31.7378C27.514 31.7378 32.3513 26.8769 32.3513 20.9014C32.3513 20.4741 32.6956 20.1273 33.1215 20.1273C33.5475 20.1273 33.8918 20.4741 33.8918 20.9014C33.8918 27.7299 28.3628 33.2859 21.5675 33.2859Z" fill="#E2B95B"/>
<path d="M10.0134 21.6753C9.58747 21.6753 9.24316 21.3285 9.24316 20.9013V14.7082C9.24316 14.281 9.58747 13.9342 10.0134 13.9342C10.4394 13.9342 10.7837 14.281 10.7837 14.7082V20.9013C10.7837 21.3285 10.4394 21.6753 10.0134 21.6753Z" fill="#E2B95B"/>
<path d="M33.1217 21.6753C32.6958 21.6753 32.3514 21.3285 32.3514 20.9013V14.7082C32.3514 14.281 32.6958 13.9342 33.1217 13.9342C33.5477 13.9342 33.892 14.281 33.892 14.7082V20.9013C33.892 21.3285 33.5477 21.6753 33.1217 21.6753Z" fill="#E2B95B"/>
<path d="M29.2703 12.3846C27.9963 12.3846 26.9595 11.3427 26.9595 10.0625C26.9595 9.63522 27.3038 9.28845 27.7297 9.28845C28.1557 9.28845 28.5 9.63522 28.5 10.0625C28.5 10.489 28.8451 10.8365 29.2703 10.8365C29.6962 10.8365 30.0406 11.1833 30.0406 11.6106C30.0406 12.0378 29.6962 12.3846 29.2703 12.3846Z" fill="#E2B95B"/>
<path d="M30.8108 15.4807C29.5368 15.4807 28.5 14.4389 28.5 13.1586C28.5 11.8784 29.5368 10.8365 30.8108 10.8365C31.2368 10.8365 31.5811 11.1833 31.5811 11.6106C31.5811 12.0378 31.2368 12.3846 30.8108 12.3846C30.3856 12.3846 30.0405 12.7322 30.0405 13.1586C30.0405 13.5851 30.3856 13.9327 30.8108 13.9327C31.2368 13.9327 31.5811 14.2794 31.5811 14.7067C31.5811 15.134 31.2368 15.4807 30.8108 15.4807Z" fill="#E2B95B"/>
<path d="M30.8108 12.3846H29.2703C28.8443 12.3846 28.5 12.0378 28.5 11.6106C28.5 11.1833 28.8443 10.8365 29.2703 10.8365H30.8108C31.2368 10.8365 31.5811 11.1833 31.5811 11.6106C31.5811 12.0378 31.2368 12.3846 30.8108 12.3846Z" fill="#E2B95B"/>
<path d="M33.1216 15.4807H30.8108C30.3848 15.4807 30.0405 15.1339 30.0405 14.7067C30.0405 14.2794 30.3848 13.9326 30.8108 13.9326H33.1216C33.5476 13.9326 33.8919 14.2794 33.8919 14.7067C33.8919 15.1339 33.5476 15.4807 33.1216 15.4807Z" fill="#E2B95B"/>
<path d="M13.8657 12.3846C13.4398 12.3846 13.0955 12.0378 13.0955 11.6106C13.0955 11.1833 13.4398 10.8365 13.8657 10.8365C14.2909 10.8365 14.636 10.489 14.636 10.0625C14.636 9.63522 14.9803 9.28845 15.4063 9.28845C15.8322 9.28845 16.1765 9.63522 16.1765 10.0625C16.1765 11.3427 15.1398 12.3846 13.8657 12.3846Z" fill="#E2B95B"/>
<path d="M12.3251 15.4807C11.8991 15.4807 11.5548 15.134 11.5548 14.7067C11.5548 14.2794 11.8991 13.9327 12.3251 13.9327C12.7503 13.9327 13.0954 13.5851 13.0954 13.1586C13.0954 12.7322 12.7503 12.3846 12.3251 12.3846C11.8991 12.3846 11.5548 12.0378 11.5548 11.6106C11.5548 11.1833 11.8991 10.8365 12.3251 10.8365C13.5991 10.8365 14.6359 11.8784 14.6359 13.1586C14.6359 14.4389 13.5991 15.4807 12.3251 15.4807Z" fill="#E2B95B"/>
<path d="M13.8656 12.3846H12.3251C11.8991 12.3846 11.5548 12.0378 11.5548 11.6106C11.5548 11.1833 11.8991 10.8365 12.3251 10.8365H13.8656C14.2916 10.8365 14.6359 11.1833 14.6359 11.6106C14.6359 12.0378 14.2916 12.3846 13.8656 12.3846Z" fill="#E2B95B"/>
<path d="M12.3251 15.4807H10.0143C9.58833 15.4807 9.24402 15.1339 9.24402 14.7067C9.24402 14.2794 9.58833 13.9326 10.0143 13.9326H12.3251C12.7511 13.9326 13.0954 14.2794 13.0954 14.7067C13.0954 15.1339 12.7511 15.4807 12.3251 15.4807Z" fill="#E2B95B"/>
<path d="M19.2568 10.8365H15.4063C14.9803 10.8365 14.636 10.4898 14.636 10.0625C14.636 9.63522 14.9803 9.28845 15.4063 9.28845H19.2568C19.6828 9.28845 20.0271 9.63522 20.0271 10.0625C20.0271 10.4898 19.6828 10.8365 19.2568 10.8365Z" fill="#E2B95B"/>
<path d="M36.1828 15.4807C35.7761 15.4807 35.4356 15.1602 35.414 14.7469C35.0312 7.34558 28.9492 1.54807 21.5677 1.54807C14.2147 1.54807 8.13414 7.32081 7.72359 14.6904C7.70048 15.1169 7.32921 15.4373 6.91172 15.4203C6.48653 15.3963 6.16148 15.031 6.18613 14.6045C6.64136 6.41519 13.3982 0 21.5677 0C29.7687 0 36.5271 6.44228 36.953 14.6664C36.9746 15.0929 36.648 15.4567 36.2236 15.4791C36.2097 15.4807 36.1959 15.4807 36.1828 15.4807Z" fill="#E2B95B"/>
<path d="M19.2568 10.8365C18.8309 10.8365 18.4866 10.4897 18.4866 10.0624C18.4866 9.63518 18.8309 9.28841 19.2568 9.28841C20.1065 9.28841 20.7974 8.5941 20.7974 7.74034C20.7974 7.31308 21.1417 6.96631 21.5677 6.96631C21.9936 6.96631 22.3379 7.31308 22.3379 7.74034C22.3379 9.44786 20.9561 10.8365 19.2568 10.8365Z" fill="#E2B95B"/>
<path d="M27.7297 10.8365H23.8792C23.4532 10.8365 23.1089 10.4898 23.1089 10.0625C23.1089 9.63522 23.4532 9.28845 23.8792 9.28845H27.7297C28.1557 9.28845 28.5 9.63522 28.5 10.0625C28.5 10.4898 28.1557 10.8365 27.7297 10.8365Z" fill="#E2B95B"/>
<path d="M23.8792 10.8365C22.18 10.8365 20.7981 9.44786 20.7981 7.74034C20.7981 7.31308 21.1424 6.96631 21.5684 6.96631C21.9943 6.96631 22.3386 7.31308 22.3386 7.74034C22.3386 8.5941 23.0296 9.28841 23.8792 9.28841C24.3051 9.28841 24.6494 9.63518 24.6494 10.0624C24.6494 10.4897 24.3051 10.8365 23.8792 10.8365Z" fill="#E2B95B"/>
<path d="M8.47461 47.2176C8.18113 47.2176 7.90075 47.0481 7.77212 46.7625C7.5965 46.3731 7.76904 45.9141 8.15648 45.7384L32.0341 34.8865C32.4223 34.71 32.8791 34.8834 33.0532 35.2727C33.2288 35.6621 33.0562 36.1211 32.6688 36.2968L8.79119 47.1487C8.68797 47.1959 8.5809 47.2176 8.47461 47.2176Z" fill="#E2B95B"/>
<path d="M21.5707 41.2685C21.4644 41.2685 21.3573 41.2468 21.2541 41.1996L10.468 36.2976C10.0806 36.1211 9.90802 35.6629 10.0836 35.2736C10.2593 34.8842 10.7137 34.7108 11.1027 34.8873L21.8888 39.7901C22.2763 39.9665 22.4488 40.4248 22.2732 40.8141C22.1445 41.0997 21.8642 41.2685 21.5707 41.2685Z" fill="#E2B95B"/>
<path d="M36.2028 38.4578C35.7768 38.4578 35.4325 38.1118 35.4325 37.6838V17.8027C35.4325 17.3755 35.7768 17.0287 36.2028 17.0287C36.6287 17.0287 36.973 17.3755 36.973 17.8027V37.6838C36.973 38.111 36.6287 38.4578 36.2028 38.4578Z" fill="#E2B95B"/>
<path d="M33.1217 15.4815C32.6965 15.4815 32.3514 15.1347 32.3514 14.7074C32.3514 14.2802 32.6958 13.9334 33.1217 13.9334L42.365 13.9326C42.7901 13.9326 43.1352 14.2794 43.1352 14.7067C43.1352 15.1339 42.7909 15.4807 42.365 15.4807L33.1217 15.4815Z" fill="#E2B95B"/>
<path d="M33.1224 20.1248C32.8397 20.1248 32.5678 19.9685 32.4322 19.6968C32.242 19.3144 32.396 18.8492 32.7765 18.658L42.0198 14.0138C42.4003 13.8226 42.8625 13.9774 43.0535 14.3598C43.2438 14.7422 43.0897 15.2074 42.7092 15.3986L33.4659 20.0428C33.3558 20.0985 33.2379 20.1248 33.1224 20.1248Z" fill="#E2B95B"/>
<path d="M6.93238 38.4578C6.50642 38.4578 6.16211 38.1118 6.16211 37.6838V17.8027C6.16211 17.3755 6.50642 17.0287 6.93238 17.0287C7.35834 17.0287 7.70265 17.3755 7.70265 17.8027V37.6838C7.70265 38.111 7.35834 38.4578 6.93238 38.4578Z" fill="#E2B95B"/>
<path d="M10.0135 15.4815L0.77027 15.4807C0.344311 15.4807 0 15.1339 0 14.7067C0 14.2794 0.345081 13.9326 0.77027 13.9326L10.0135 13.9334C10.4395 13.9334 10.7838 14.2802 10.7838 14.7074C10.7838 15.1347 10.4387 15.4815 10.0135 15.4815Z" fill="#E2B95B"/>
<path d="M10.0127 20.1249C9.89721 20.1249 9.77936 20.0986 9.66921 20.0436L0.425962 15.3994C0.045448 15.2082 -0.108606 14.743 0.0816506 14.3607C0.272678 13.9783 0.73484 13.8235 1.11535 14.0147L10.3586 18.6589C10.7391 18.8501 10.8932 19.3152 10.7029 19.6976C10.5673 19.9685 10.2954 20.1249 10.0127 20.1249Z" fill="#E2B95B"/>
<path d="M13.0953 7.74107C11.8212 7.74107 10.7837 6.69922 10.7837 5.4182C10.7837 4.99093 11.128 4.64417 11.554 4.64417C11.9799 4.64417 12.3242 4.99093 12.3242 5.4182C12.3242 5.84546 12.6701 6.19301 13.0953 6.19301C13.5212 6.19301 13.8655 6.53977 13.8655 6.96704C13.8655 7.39431 13.5212 7.74107 13.0953 7.74107Z" fill="#E2B95B"/>
<path d="M11.554 6.19229C11.128 6.19229 10.7837 5.84552 10.7837 5.41825V4.75646C10.7837 4.32919 11.128 3.98242 11.554 3.98242C11.9799 3.98242 12.3242 4.32919 12.3242 4.75646V5.41825C12.3242 5.84552 11.9799 6.19229 11.554 6.19229Z" fill="#E2B95B"/>
<path d="M30.0398 7.74107C29.6138 7.74107 29.2695 7.39431 29.2695 6.96704C29.2695 6.53977 29.6138 6.19301 30.0398 6.19301C30.465 6.19301 30.8108 5.84546 30.8108 5.4182C30.8108 4.99093 31.1552 4.64417 31.5811 4.64417C32.0071 4.64417 32.3514 4.99093 32.3514 5.4182C32.3514 6.69922 31.3138 7.74107 30.0398 7.74107Z" fill="#E2B95B"/>
<path d="M31.5812 6.19229C31.1552 6.19229 30.8109 5.84552 30.8109 5.41825V4.75646C30.8109 4.32919 31.1552 3.98242 31.5812 3.98242C32.0071 3.98242 32.3515 4.32919 32.3515 4.75646V5.41825C32.3515 5.84552 32.0071 6.19229 31.5812 6.19229Z" fill="#E2B95B"/>
</svg>
