<svg width="74" height="74" viewBox="0 0 74 74" fill="none" xmlns="http://www.w3.org/2000/svg">
<g filter="url(#filter0_d_157_20325)">
<path d="M34.0758 18.4778C33.1186 25.8122 32.3741 28.9556 31.3105 28.9556C30.566 28.9556 29.6088 28.5365 29.2897 27.9078C28.9706 27.3839 27.8007 26.4409 26.6307 25.8122C24.8227 24.8692 24.8227 25.0788 25.8862 28.5365C27.3753 33.2515 26.6307 33.7754 16.4204 34.7184C12.0597 35.1375 8.33719 35.7662 8.01812 36.2901C7.69905 36.7092 11.6343 37.4426 16.6331 37.8617C26.6307 38.6999 27.588 39.4334 25.6735 44.6723L24.6099 47.9204L27.588 45.7201C29.2897 44.5675 31.0978 43.6245 31.7359 43.6245C32.6931 43.6245 35.1394 56.617 35.1394 61.9607C35.1394 63.3228 35.5648 64.6849 36.0966 64.9992C36.6284 65.3136 37.692 60.7033 38.3301 54.6262C39.0746 48.5491 40.1382 43.6245 40.67 43.6245C41.3081 43.6245 43.1162 44.6723 44.9243 45.8249L48.115 48.13L47.2642 45.6153C45.2434 39.3286 45.5624 39.0143 55.8792 37.7569C61.1971 37.0235 65.6641 36.3948 65.9832 36.2901C66.3022 36.1853 62.0479 35.4518 56.6237 34.7184C51.1994 33.9849 46.5197 33.1467 46.2006 32.8324C45.8815 32.518 46.0942 30.632 46.626 28.5365C47.6896 25.0788 47.5832 24.8692 45.7752 25.8122C44.6052 26.4409 43.4353 27.3839 43.1162 27.9078C42.7971 28.5365 41.8399 28.9556 41.0954 28.9556C40.1382 28.9556 39.2873 25.6027 38.3301 18.4778C37.5856 12.715 36.6284 7.99998 36.203 7.99998C35.7775 7.99998 34.8203 12.715 34.0758 18.4778Z" fill="url(#paint0_linear_157_20325)"/>
</g>
<defs>
<filter id="filter0_d_157_20325" x="0" y="0" width="74" height="73.0144" filterUnits="userSpaceOnUse" color-interpolation-filters="sRGB">
<feFlood flood-opacity="0" result="BackgroundImageFix"/>
<feColorMatrix in="SourceAlpha" type="matrix" values="0 0 0 0 0 0 0 0 0 0 0 0 0 0 0 0 0 0 127 0" result="hardAlpha"/>
<feOffset/>
<feGaussianBlur stdDeviation="4"/>
<feComposite in2="hardAlpha" operator="out"/>
<feColorMatrix type="matrix" values="0 0 0 0 0.886275 0 0 0 0 0.72549 0 0 0 0 0.356863 0 0 0 1 0"/>
<feBlend mode="normal" in2="BackgroundImageFix" result="effect1_dropShadow_157_20325"/>
<feBlend mode="normal" in="SourceGraphic" in2="effect1_dropShadow_157_20325" result="shape"/>
</filter>
<linearGradient id="paint0_linear_157_20325" x1="37" y1="65.0144" x2="37" y2="7.99998" gradientUnits="userSpaceOnUse">
<stop stop-color="#E2B95B"/>
<stop offset="1" stop-color="#DF824D"/>
</linearGradient>
</defs>
</svg>
